<mxfile host="app.diagrams.net" modified="2024-07-14T14:37:10.412Z" agent="Mozilla/5.0 (X11; Linux x86_64; rv:127.0) Gecko/20100101 Firefox/127.0" etag="pHUE7c-7FF9eqbo58DNU" version="24.6.5" type="github" pages="5">
  <diagram id="VGt8NKjKaY3T89ASlulM" name="PBS">
    <mxGraphModel dx="1195" dy="663" grid="0" gridSize="10" guides="1" tooltips="1" connect="1" arrows="1" fold="1" page="0" pageScale="1" pageWidth="827" pageHeight="1169" math="0" shadow="0">
      <root>
        <mxCell id="0" />
        <mxCell id="1" parent="0" />
        <mxCell id="8GjarqtCZsp81MKR5A-h-42" value="Rotor magnetic field&#xa;measurement bench" style="html=1;overflow=block;blockSpacing=1;whiteSpace=wrap;fontSize=17;fontStyle=1;align=center;spacing=9;strokeColor=#1071e5;strokeOpacity=100;fillOpacity=100;rounded=1;absoluteArcSize=1;arcSize=9;fillColor=#edf5ff;strokeWidth=2.3;lucidId=op2DlNhiaoXF;shadow=1;" parent="1" vertex="1">
          <mxGeometry x="570" y="274" width="206" height="97" as="geometry" />
        </mxCell>
        <mxCell id="8GjarqtCZsp81MKR5A-h-43" value="&lt;div style=&quot;display: flex; justify-content: center; text-align: center; align-items: baseline; font-size: 16px; line-height: 1.25; margin-top: -2px;&quot;&gt;&lt;span style=&quot;&quot;&gt;&lt;span style=&quot;color: rgb(51, 51, 51); font-weight: bold;&quot;&gt;Arbre Produit&lt;/span&gt;&lt;span style=&quot;font-size: 14px; color: rgb(51, 51, 51); font-weight: bold;&quot;&gt;&lt;br&gt;&lt;/span&gt;&lt;/span&gt;&lt;/div&gt;&lt;div style=&quot;display: flex; justify-content: center; text-align: center; align-items: baseline; font-size: 14px; line-height: 1.25; margin-top: -2px;&quot;&gt;&lt;span style=&quot;font-size: 14px;&quot;&gt;&lt;span style=&quot;font-size: 14px; color: rgb(51, 51, 51);&quot;&gt;&lt;span style=&quot;font-size: 14px; color: rgb(51, 51, 51);&quot;&gt;(PBS: Product Breakdown Structure)&lt;/span&gt;&lt;/span&gt;&lt;/span&gt;&lt;/div&gt;" style="html=1;overflow=block;blockSpacing=1;whiteSpace=wrap;fontSize=14;spacing=3.8;strokeOpacity=0;fillOpacity=0;rounded=1;absoluteArcSize=1;arcSize=9;fillColor=#ffffff;strokeWidth=2.3;lucidId=op2DOxUPKWHS;" parent="1" vertex="1">
          <mxGeometry x="549" y="216" width="236" height="47" as="geometry" />
        </mxCell>
        <mxCell id="8GjarqtCZsp81MKR5A-h-85" style="edgeStyle=orthogonalEdgeStyle;rounded=1;orthogonalLoop=1;jettySize=auto;html=1;exitX=0.25;exitY=1;exitDx=0;exitDy=0;entryX=0;entryY=0.5;entryDx=0;entryDy=0;curved=0;strokeWidth=1.5;strokeColor=#5E5E5E;" parent="1" source="8GjarqtCZsp81MKR5A-h-45" target="8GjarqtCZsp81MKR5A-h-63" edge="1">
          <mxGeometry relative="1" as="geometry" />
        </mxCell>
        <mxCell id="8GjarqtCZsp81MKR5A-h-89" style="edgeStyle=orthogonalEdgeStyle;rounded=1;orthogonalLoop=1;jettySize=auto;html=1;exitX=0.25;exitY=1;exitDx=0;exitDy=0;entryX=0;entryY=0.5;entryDx=0;entryDy=0;curved=0;strokeColor=#5E5E5E;strokeWidth=1.5;" parent="1" source="8GjarqtCZsp81MKR5A-h-45" target="8GjarqtCZsp81MKR5A-h-64" edge="1">
          <mxGeometry relative="1" as="geometry" />
        </mxCell>
        <mxCell id="8GjarqtCZsp81MKR5A-h-90" style="edgeStyle=orthogonalEdgeStyle;rounded=1;orthogonalLoop=1;jettySize=auto;html=1;exitX=0.25;exitY=1;exitDx=0;exitDy=0;entryX=0;entryY=0.5;entryDx=0;entryDy=0;curved=0;strokeWidth=1.5;strokeColor=#5E5E5E;" parent="1" source="8GjarqtCZsp81MKR5A-h-45" target="8GjarqtCZsp81MKR5A-h-65" edge="1">
          <mxGeometry relative="1" as="geometry" />
        </mxCell>
        <mxCell id="QH--4bEgFCzSNv2URltK-6" style="edgeStyle=orthogonalEdgeStyle;rounded=1;orthogonalLoop=1;jettySize=auto;html=1;exitX=0.25;exitY=1;exitDx=0;exitDy=0;entryX=0;entryY=0.5;entryDx=0;entryDy=0;curved=0;strokeWidth=1.5;strokeColor=#666666;" edge="1" parent="1" source="8GjarqtCZsp81MKR5A-h-45">
          <mxGeometry relative="1" as="geometry">
            <mxPoint x="311" y="809.25" as="targetPoint" />
            <Array as="points">
              <mxPoint x="287" y="809" />
            </Array>
          </mxGeometry>
        </mxCell>
        <mxCell id="8GjarqtCZsp81MKR5A-h-45" value="&lt;div style=&quot;display: flex; justify-content: center; text-align: center; align-items: baseline; font-size: 14px; line-height: 1.25; margin-top: -2px;&quot;&gt;&lt;span style=&quot;font-size: 14px;&quot;&gt;&lt;span style=&quot;font-size: 14px; color: rgb(51, 51, 51);&quot;&gt;1000&lt;br&gt;&lt;/span&gt;&lt;/span&gt;&lt;/div&gt;&lt;div style=&quot;display: flex; justify-content: center; text-align: center; align-items: baseline; font-size: 14px; line-height: 1.25; margin-top: -2px;&quot;&gt;&lt;span style=&quot;font-size: 14px;&quot;&gt;&lt;span style=&quot;font-size: 14px; color: rgb(51, 51, 51);&quot;&gt;Mechanical Structure&lt;/span&gt;&lt;/span&gt;&lt;/div&gt;" style="html=1;overflow=block;blockSpacing=1;whiteSpace=wrap;fontSize=14;spacing=9;strokeColor=#0D5CBA;strokeOpacity=100;fillOpacity=100;rounded=1;absoluteArcSize=1;arcSize=9;fillColor=#edf5ff;strokeWidth=2.3;lucidId=op2DeZ.cYt9W;" parent="1" vertex="1">
          <mxGeometry x="262" y="446" width="99" height="68" as="geometry" />
        </mxCell>
        <mxCell id="8GjarqtCZsp81MKR5A-h-46" value="&lt;div style=&quot;display: flex; justify-content: center; text-align: center; align-items: baseline; font-size: 14px; line-height: 1.25; margin-top: -2px;&quot;&gt;&lt;span style=&quot;font-size: 14px;&quot;&gt;&lt;span style=&quot;font-size: 14px; color: rgb(51, 51, 51);&quot;&gt;2000&#xa;&lt;/span&gt;&lt;/span&gt;&lt;/div&gt;&lt;div style=&quot;display: flex; justify-content: center; text-align: center; align-items: baseline; font-size: 14px; line-height: 1.25; margin-top: -2px;&quot;&gt;&lt;span style=&quot;font-size: 14px;&quot;&gt;&lt;span style=&quot;font-size: 14px; color: rgb(51, 51, 51);&quot;&gt;Actuators&lt;/span&gt;&lt;/span&gt;&lt;/div&gt;" style="html=1;overflow=block;blockSpacing=1;whiteSpace=wrap;fontSize=14;spacing=9;strokeColor=#0D5CBA;strokeOpacity=100;fillOpacity=100;rounded=1;absoluteArcSize=1;arcSize=9;fillColor=#edf5ff;strokeWidth=2.3;lucidId=op2DIdq_~rvC;" parent="1" vertex="1">
          <mxGeometry x="418" y="449" width="102" height="67" as="geometry" />
        </mxCell>
        <mxCell id="8GjarqtCZsp81MKR5A-h-88" style="edgeStyle=orthogonalEdgeStyle;rounded=1;orthogonalLoop=1;jettySize=auto;html=1;exitX=0.258;exitY=0.976;exitDx=0;exitDy=0;entryX=0;entryY=0.5;entryDx=0;entryDy=0;strokeWidth=1.5;strokeColor=#5E5E5E;exitPerimeter=0;" parent="1" source="8GjarqtCZsp81MKR5A-h-47" target="8GjarqtCZsp81MKR5A-h-57" edge="1">
          <mxGeometry relative="1" as="geometry">
            <Array as="points">
              <mxPoint x="582" y="517" />
              <mxPoint x="581" y="517" />
              <mxPoint x="581" y="576" />
            </Array>
          </mxGeometry>
        </mxCell>
        <mxCell id="QH--4bEgFCzSNv2URltK-8" style="edgeStyle=orthogonalEdgeStyle;rounded=1;orthogonalLoop=1;jettySize=auto;html=1;exitX=0.25;exitY=1;exitDx=0;exitDy=0;entryX=0;entryY=0.5;entryDx=0;entryDy=0;strokeWidth=1.5;curved=0;strokeColor=#666666;" edge="1" parent="1" source="8GjarqtCZsp81MKR5A-h-47" target="QH--4bEgFCzSNv2URltK-7">
          <mxGeometry relative="1" as="geometry" />
        </mxCell>
        <mxCell id="8GjarqtCZsp81MKR5A-h-47" value="&lt;div style=&quot;display: flex; justify-content: center; text-align: center; align-items: baseline; font-size: 14px; line-height: 1.25; margin-top: -2px;&quot;&gt;&lt;span style=&quot;font-size: 14px;&quot;&gt;&lt;span style=&quot;font-size: 14px; color: rgb(51, 51, 51);&quot;&gt;3000&#xa;&lt;/span&gt;&lt;/span&gt;&lt;/div&gt;&lt;div style=&quot;display: flex; justify-content: center; text-align: center; align-items: baseline; font-size: 14px; line-height: 1.25; margin-top: -2px;&quot;&gt;&lt;span style=&quot;font-size: 14px;&quot;&gt;&lt;span style=&quot;font-size: 14px; color: rgb(51, 51, 51);&quot;&gt;Sensors&lt;/span&gt;&lt;/span&gt;&lt;/div&gt;" style="html=1;overflow=block;blockSpacing=1;whiteSpace=wrap;fontSize=14;spacing=9;strokeColor=#0D5CBA;strokeOpacity=100;fillOpacity=100;rounded=1;absoluteArcSize=1;arcSize=9;fillColor=#edf5ff;strokeWidth=2.3;lucidId=op2DrcHy-5GN;" parent="1" vertex="1">
          <mxGeometry x="559" y="449" width="88" height="68" as="geometry" />
        </mxCell>
        <mxCell id="QH--4bEgFCzSNv2URltK-11" style="edgeStyle=orthogonalEdgeStyle;rounded=1;orthogonalLoop=1;jettySize=auto;html=1;exitX=0.25;exitY=1;exitDx=0;exitDy=0;entryX=0;entryY=0.5;entryDx=0;entryDy=0;curved=0;strokeWidth=1.5;strokeColor=#666666;" edge="1" parent="1" source="8GjarqtCZsp81MKR5A-h-48" target="8GjarqtCZsp81MKR5A-h-59">
          <mxGeometry relative="1" as="geometry">
            <Array as="points">
              <mxPoint x="722" y="541" />
              <mxPoint x="722" y="567" />
            </Array>
          </mxGeometry>
        </mxCell>
        <mxCell id="QH--4bEgFCzSNv2URltK-12" style="edgeStyle=orthogonalEdgeStyle;rounded=1;orthogonalLoop=1;jettySize=auto;html=1;exitX=0.25;exitY=1;exitDx=0;exitDy=0;entryX=0;entryY=0.5;entryDx=0;entryDy=0;curved=0;strokeColor=#666666;strokeWidth=1.5;" edge="1" parent="1" source="8GjarqtCZsp81MKR5A-h-48" target="QH--4bEgFCzSNv2URltK-10">
          <mxGeometry relative="1" as="geometry">
            <Array as="points">
              <mxPoint x="723" y="516" />
              <mxPoint x="723" y="634" />
            </Array>
          </mxGeometry>
        </mxCell>
        <mxCell id="8GjarqtCZsp81MKR5A-h-48" value="&lt;div style=&quot;display: flex; justify-content: center; text-align: center; align-items: baseline; font-size: 14px; line-height: 1.25; margin-top: -2px;&quot;&gt;&lt;span style=&quot;font-size: 14px;&quot;&gt;&lt;span style=&quot;font-size: 14px; color: rgb(51, 51, 51);&quot;&gt;4000&#xa;&lt;/span&gt;&lt;/span&gt;&lt;/div&gt;&lt;div style=&quot;display: flex; justify-content: center; text-align: center; align-items: baseline; font-size: 14px; line-height: 1.25; margin-top: -2px;&quot;&gt;&lt;span style=&quot;font-size: 14px;&quot;&gt;&lt;span style=&quot;font-size: 14px; color: rgb(51, 51, 51);&quot;&gt;Power Supply&lt;/span&gt;&lt;/span&gt;&lt;/div&gt;" style="html=1;overflow=block;blockSpacing=1;whiteSpace=wrap;fontSize=14;spacing=9;strokeColor=#0D5CBA;strokeOpacity=100;fillOpacity=100;rounded=1;absoluteArcSize=1;arcSize=9;fillColor=#edf5ff;strokeWidth=2.3;lucidId=op2DH3rtzFCJ;" parent="1" vertex="1">
          <mxGeometry x="698" y="449" width="97" height="67" as="geometry" />
        </mxCell>
        <mxCell id="QH--4bEgFCzSNv2URltK-13" style="edgeStyle=orthogonalEdgeStyle;rounded=1;orthogonalLoop=1;jettySize=auto;html=1;exitX=0.25;exitY=1;exitDx=0;exitDy=0;entryX=0;entryY=0.5;entryDx=0;entryDy=0;strokeColor=#666666;curved=0;strokeWidth=1.5;" edge="1" parent="1" source="8GjarqtCZsp81MKR5A-h-49" target="QH--4bEgFCzSNv2URltK-1">
          <mxGeometry relative="1" as="geometry" />
        </mxCell>
        <mxCell id="QH--4bEgFCzSNv2URltK-15" style="edgeStyle=orthogonalEdgeStyle;rounded=1;orthogonalLoop=1;jettySize=auto;html=1;exitX=0.25;exitY=1;exitDx=0;exitDy=0;entryX=0;entryY=0.5;entryDx=0;entryDy=0;curved=0;strokeColor=#666666;strokeWidth=1.5;" edge="1" parent="1" source="8GjarqtCZsp81MKR5A-h-49" target="QH--4bEgFCzSNv2URltK-14">
          <mxGeometry relative="1" as="geometry" />
        </mxCell>
        <mxCell id="8GjarqtCZsp81MKR5A-h-49" value="&lt;div style=&quot;display: flex; justify-content: center; text-align: center; align-items: baseline; font-size: 14px; line-height: 1.25; margin-top: -2px;&quot;&gt;&lt;span style=&quot;font-size: 14px;&quot;&gt;&lt;span style=&quot;font-size: 14px; color: rgb(51, 51, 51);&quot;&gt;5000&#xa;&lt;/span&gt;&lt;/span&gt;&lt;/div&gt;&lt;div style=&quot;display: flex; justify-content: center; text-align: center; align-items: baseline; font-size: 14px; line-height: 1.25; margin-top: -2px;&quot;&gt;&lt;span style=&quot;font-size: 14px;&quot;&gt;&lt;span style=&quot;font-size: 14px; color: rgb(51, 51, 51);&quot;&gt;Computing System&lt;/span&gt;&lt;/span&gt;&lt;/div&gt;" style="html=1;overflow=block;blockSpacing=1;whiteSpace=wrap;fontSize=14;spacing=9;strokeColor=#0D5CBA;strokeOpacity=100;fillOpacity=100;rounded=1;absoluteArcSize=1;arcSize=9;fillColor=#edf5ff;strokeWidth=2.3;lucidId=op2DZ983SHyo;" parent="1" vertex="1">
          <mxGeometry x="851" y="449" width="92" height="70" as="geometry" />
        </mxCell>
        <mxCell id="8GjarqtCZsp81MKR5A-h-50" value="" style="html=1;jettySize=18;whiteSpace=wrap;fontSize=14;strokeColor=#5E5E5E;strokeWidth=1.5;rounded=1;arcSize=12;edgeStyle=orthogonalEdgeStyle;startArrow=none;endArrow=block;endFill=1;exitX=0.5;exitY=1.011;exitPerimeter=0;entryX=0.5;entryY=-0.012;entryPerimeter=0;lucidId=op2D4Qm-s5.9;" parent="1" source="8GjarqtCZsp81MKR5A-h-42" target="8GjarqtCZsp81MKR5A-h-45" edge="1">
          <mxGeometry width="100" height="100" relative="1" as="geometry">
            <Array as="points">
              <mxPoint x="674" y="372" />
              <mxPoint x="674" y="410" />
              <mxPoint x="311" y="410" />
              <mxPoint x="311" y="445" />
            </Array>
          </mxGeometry>
        </mxCell>
        <mxCell id="8GjarqtCZsp81MKR5A-h-51" value="" style="html=1;jettySize=18;whiteSpace=wrap;fontSize=14;strokeColor=#5E5E5E;strokeWidth=1.5;rounded=1;arcSize=12;edgeStyle=orthogonalEdgeStyle;startArrow=none;endArrow=block;endFill=1;exitX=0.5;exitY=1.011;exitPerimeter=0;entryX=0.5;entryY=-0.012;entryPerimeter=0;lucidId=op2DSndrqWX7;" parent="1" source="8GjarqtCZsp81MKR5A-h-42" target="8GjarqtCZsp81MKR5A-h-46" edge="1">
          <mxGeometry width="100" height="100" relative="1" as="geometry">
            <Array as="points">
              <mxPoint x="673" y="410" />
              <mxPoint x="469" y="410" />
            </Array>
          </mxGeometry>
        </mxCell>
        <mxCell id="8GjarqtCZsp81MKR5A-h-52" value="" style="html=1;jettySize=18;whiteSpace=wrap;fontSize=14;strokeColor=#5E5E5E;strokeWidth=1.5;rounded=1;arcSize=12;edgeStyle=orthogonalEdgeStyle;startArrow=none;endArrow=block;endFill=1;exitX=0.5;exitY=1.011;exitPerimeter=0;entryX=0.5;entryY=-0.012;entryPerimeter=0;lucidId=op2DwWMJoZg.;" parent="1" source="8GjarqtCZsp81MKR5A-h-42" target="8GjarqtCZsp81MKR5A-h-47" edge="1">
          <mxGeometry width="100" height="100" relative="1" as="geometry">
            <Array as="points">
              <mxPoint x="673" y="410" />
              <mxPoint x="603" y="410" />
            </Array>
          </mxGeometry>
        </mxCell>
        <mxCell id="8GjarqtCZsp81MKR5A-h-53" value="" style="html=1;jettySize=18;whiteSpace=wrap;fontSize=14;strokeColor=#5E5E5E;strokeWidth=1.5;rounded=1;arcSize=12;edgeStyle=orthogonalEdgeStyle;startArrow=none;endArrow=block;endFill=1;exitX=0.5;exitY=1.011;exitPerimeter=0;entryX=0.5;entryY=-0.012;entryPerimeter=0;lucidId=op2DVnM9Jc29;" parent="1" source="8GjarqtCZsp81MKR5A-h-42" target="8GjarqtCZsp81MKR5A-h-48" edge="1">
          <mxGeometry width="100" height="100" relative="1" as="geometry">
            <Array as="points">
              <mxPoint x="673" y="410" />
              <mxPoint x="747" y="410" />
              <mxPoint x="747" y="448" />
            </Array>
          </mxGeometry>
        </mxCell>
        <mxCell id="8GjarqtCZsp81MKR5A-h-54" value="" style="html=1;jettySize=18;whiteSpace=wrap;fontSize=14;strokeColor=#5E5E5E;strokeWidth=1.5;rounded=1;arcSize=12;edgeStyle=orthogonalEdgeStyle;startArrow=none;endArrow=block;endFill=1;exitX=0.5;exitY=1.011;exitPerimeter=0;entryX=0.5;entryY=-0.012;entryPerimeter=0;lucidId=op2DF9aEdJrC;" parent="1" source="8GjarqtCZsp81MKR5A-h-42" target="8GjarqtCZsp81MKR5A-h-49" edge="1">
          <mxGeometry width="100" height="100" relative="1" as="geometry">
            <Array as="points">
              <mxPoint x="673" y="410" />
              <mxPoint x="898" y="410" />
              <mxPoint x="898" y="448" />
            </Array>
          </mxGeometry>
        </mxCell>
        <mxCell id="8GjarqtCZsp81MKR5A-h-55" value="&lt;div style=&quot;display: flex; justify-content: center; text-align: center; align-items: baseline; font-size: 14px; line-height: 1.25; margin-top: -2px;&quot;&gt;&lt;span style=&quot;font-size: 14px;&quot;&gt;&lt;span style=&quot;font-size: 14px; color: rgb(51, 51, 51);&quot;&gt;2100&lt;br&gt;&lt;/span&gt;&lt;/span&gt;&lt;/div&gt;&lt;div style=&quot;display: flex; justify-content: center; text-align: center; align-items: baseline; font-size: 14px; line-height: 1.25; margin-top: -2px;&quot;&gt;&lt;span style=&quot;font-size: 14px;&quot;&gt;&lt;span style=&quot;font-size: 14px; color: rgb(51, 51, 51);&quot;&gt;Chuck Stepper Motor&lt;/span&gt;&lt;/span&gt;&lt;/div&gt;" style="html=1;overflow=block;blockSpacing=1;whiteSpace=wrap;fontSize=14;spacing=9;strokeColor=#0D5CBA;strokeOpacity=100;fillOpacity=100;rounded=1;absoluteArcSize=1;arcSize=9;fillColor=#edf5ff;strokeWidth=2.3;lucidId=op2DPShWuuZC;" parent="1" vertex="1">
          <mxGeometry x="456" y="544" width="111" height="60" as="geometry" />
        </mxCell>
        <mxCell id="8GjarqtCZsp81MKR5A-h-56" value="" style="html=1;jettySize=18;whiteSpace=wrap;fontSize=14;strokeColor=#666666;strokeWidth=1.5;rounded=1;arcSize=12;edgeStyle=orthogonalEdgeStyle;startArrow=none;endArrow=block;endFill=1;exitX=0.211;exitY=0.992;lucidId=op2D_loqMMDQ;exitDx=0;exitDy=0;exitPerimeter=0;" parent="1" source="8GjarqtCZsp81MKR5A-h-46" edge="1">
          <mxGeometry width="100" height="100" relative="1" as="geometry">
            <Array as="points">
              <mxPoint x="440" y="585" />
            </Array>
            <mxPoint x="408.25200000000007" y="516.804" as="sourcePoint" />
            <mxPoint x="456" y="585" as="targetPoint" />
          </mxGeometry>
        </mxCell>
        <mxCell id="8GjarqtCZsp81MKR5A-h-57" value="&lt;div style=&quot;display: flex; justify-content: center; text-align: center; align-items: baseline; font-size: 14px; line-height: 1.25; margin-top: -2px;&quot;&gt;&lt;span style=&quot;font-size: 14px;&quot;&gt;&lt;span style=&quot;font-size: 14px; color: rgb(51, 51, 51);&quot;&gt;3100&#xa;&lt;/span&gt;&lt;/span&gt;&lt;/div&gt;&lt;div style=&quot;display: flex; justify-content: center; text-align: center; align-items: baseline; font-size: 14px; line-height: 1.25; margin-top: -2px;&quot;&gt;&lt;span style=&quot;font-size: 14px;&quot;&gt;&lt;span style=&quot;font-size: 14px; color: rgb(51, 51, 51);&quot;&gt;Magnetic field sensor&lt;/span&gt;&lt;/span&gt;&lt;/div&gt;" style="html=1;overflow=block;blockSpacing=1;whiteSpace=wrap;fontSize=14;spacing=9;strokeColor=#0D5CBA;strokeOpacity=100;fillOpacity=100;rounded=1;absoluteArcSize=1;arcSize=9;fillColor=#edf5ff;strokeWidth=2.3;lucidId=op2D3rJPvKz7;" parent="1" vertex="1">
          <mxGeometry x="601" y="544" width="97" height="64" as="geometry" />
        </mxCell>
        <mxCell id="8GjarqtCZsp81MKR5A-h-59" value="&lt;div style=&quot;display: flex; justify-content: center; text-align: center; align-items: baseline; font-size: 14px; line-height: 1.25; margin-top: -2px;&quot;&gt;&lt;span style=&quot;font-size: 14px;&quot;&gt;&lt;span style=&quot;font-size: 14px; color: rgb(51, 51, 51);&quot;&gt;4100&lt;br&gt;&lt;/span&gt;&lt;/span&gt;&lt;/div&gt;&lt;div style=&quot;display: flex; justify-content: center; text-align: center; align-items: baseline; font-size: 14px; line-height: 1.25; margin-top: -2px;&quot;&gt;&lt;span style=&quot;font-size: 14px;&quot;&gt;&lt;span style=&quot;font-size: 14px; color: rgb(51, 51, 51);&quot;&gt;Chuck Stepper &lt;br&gt;&lt;/span&gt;&lt;/span&gt;&lt;/div&gt;" style="html=1;overflow=block;blockSpacing=1;whiteSpace=wrap;fontSize=14;spacing=9;strokeColor=#0D5CBA;strokeOpacity=100;fillOpacity=100;rounded=1;absoluteArcSize=1;arcSize=9;fillColor=#edf5ff;strokeWidth=2.3;lucidId=op2DEWVl0N-0;" parent="1" vertex="1">
          <mxGeometry x="741" y="544" width="112" height="45" as="geometry" />
        </mxCell>
        <mxCell id="8GjarqtCZsp81MKR5A-h-60" value="&lt;div style=&quot;display: flex; justify-content: center; text-align: center; align-items: baseline; font-size: 14px; line-height: 1.25; margin-top: -2px;&quot;&gt;&lt;span style=&quot;font-size: 14px;&quot;&gt;&lt;span style=&quot;font-size: 14px; color: rgb(51, 51, 51);&quot;&gt;4300&lt;br&gt;&lt;/span&gt;&lt;/span&gt;&lt;/div&gt;&lt;div style=&quot;display: flex; justify-content: center; text-align: center; align-items: baseline; font-size: 14px; line-height: 1.25; margin-top: -2px;&quot;&gt;&lt;span style=&quot;font-size: 14px;&quot;&gt;&lt;span style=&quot;font-size: 14px; color: rgb(51, 51, 51);&quot;&gt;Arduino card&lt;br&gt;&lt;/span&gt;&lt;/span&gt;&lt;/div&gt;" style="html=1;overflow=block;blockSpacing=1;whiteSpace=wrap;fontSize=14;spacing=9;strokeColor=#0D5CBA;strokeOpacity=100;fillOpacity=100;rounded=1;absoluteArcSize=1;arcSize=9;fillColor=#edf5ff;strokeWidth=2.3;lucidId=op2DUKm2hryK;" parent="1" vertex="1">
          <mxGeometry x="740" y="665" width="110" height="47" as="geometry" />
        </mxCell>
        <mxCell id="8GjarqtCZsp81MKR5A-h-62" value="" style="html=1;jettySize=18;whiteSpace=wrap;fontSize=14;strokeColor=#5E5E5E;strokeWidth=1.5;rounded=1;arcSize=12;edgeStyle=orthogonalEdgeStyle;startArrow=none;endArrow=block;endFill=1;exitX=0.25;exitY=1;entryX=-0.006;entryY=0.5;entryPerimeter=0;lucidId=op2D~V.C5mhO;exitDx=0;exitDy=0;" parent="1" source="8GjarqtCZsp81MKR5A-h-48" target="8GjarqtCZsp81MKR5A-h-60" edge="1">
          <mxGeometry width="100" height="100" relative="1" as="geometry">
            <Array as="points">
              <mxPoint x="722" y="597" />
              <mxPoint x="722" y="689" />
            </Array>
          </mxGeometry>
        </mxCell>
        <mxCell id="8GjarqtCZsp81MKR5A-h-63" value="&lt;div style=&quot;display: flex; justify-content: center; text-align: center; align-items: baseline; font-size: 14px; line-height: 1.25; margin-top: -2px;&quot;&gt;&lt;span style=&quot;font-size: 14px;&quot;&gt;&lt;span style=&quot;font-size: 14px; color: rgb(51, 51, 51);&quot;&gt;1100&#xa;&lt;/span&gt;&lt;/span&gt;&lt;/div&gt;&lt;div style=&quot;display: flex; justify-content: center; text-align: center; align-items: baseline; font-size: 14px; line-height: 1.25; margin-top: -2px;&quot;&gt;&lt;span style=&quot;font-size: 14px;&quot;&gt;&lt;span style=&quot;font-size: 14px; color: rgb(51, 51, 51);&quot;&gt;Work Bench&lt;/span&gt;&lt;/span&gt;&lt;/div&gt;" style="html=1;overflow=block;blockSpacing=1;whiteSpace=wrap;fontSize=14;spacing=9;strokeColor=#0D5CBA;strokeOpacity=100;fillOpacity=100;rounded=1;absoluteArcSize=1;arcSize=9;fillColor=#edf5ff;strokeWidth=2.3;lucidId=op2DwUtpFRGd;" parent="1" vertex="1">
          <mxGeometry x="311" y="544" width="103" height="58" as="geometry" />
        </mxCell>
        <mxCell id="8GjarqtCZsp81MKR5A-h-64" value="&lt;div style=&quot;display: flex; justify-content: center; text-align: center; align-items: baseline; font-size: 14px; line-height: 1.25; margin-top: -2px;&quot;&gt;&lt;span style=&quot;font-size: 14px;&quot;&gt;&lt;span style=&quot;font-size: 14px; color: rgb(51, 51, 51);&quot;&gt;1200&lt;br&gt;&lt;/span&gt;&lt;/span&gt;&lt;/div&gt;&lt;div style=&quot;display: flex; justify-content: center; text-align: center; align-items: baseline; font-size: 14px; line-height: 1.25; margin-top: -2px;&quot;&gt;&lt;span style=&quot;font-size: 14px;&quot;&gt;&lt;span style=&quot;font-size: 14px; color: rgb(51, 51, 51);&quot;&gt;Motorized Chuck Block&lt;/span&gt;&lt;/span&gt;&lt;/div&gt;" style="html=1;overflow=block;blockSpacing=1;whiteSpace=wrap;fontSize=14;spacing=9;strokeColor=#0D5CBA;strokeOpacity=100;fillOpacity=100;rounded=1;absoluteArcSize=1;arcSize=9;fillColor=#edf5ff;strokeWidth=2.3;lucidId=op2D1d5.EJ8E;" parent="1" vertex="1">
          <mxGeometry x="311" y="616" width="104" height="66" as="geometry" />
        </mxCell>
        <mxCell id="8GjarqtCZsp81MKR5A-h-65" value="&lt;div style=&quot;display: flex; justify-content: center; text-align: center; align-items: baseline; font-size: 14px; line-height: 1.25; margin-top: -2px;&quot;&gt;&lt;span style=&quot;font-size: 14px;&quot;&gt;&lt;span style=&quot;font-size: 14px; color: rgb(51, 51, 51);&quot;&gt;1300&lt;br&gt;&lt;/span&gt;&lt;/span&gt;&lt;/div&gt;&lt;div style=&quot;display: flex; justify-content: center; text-align: center; align-items: baseline; font-size: 14px; line-height: 1.25; margin-top: -2px;&quot;&gt;&lt;span style=&quot;font-size: 14px;&quot;&gt;&lt;span style=&quot;font-size: 14px; color: rgb(51, 51, 51);&quot;&gt;TailStock Block&lt;/span&gt;&lt;/span&gt;&lt;/div&gt;" style="html=1;overflow=block;blockSpacing=1;whiteSpace=wrap;fontSize=14;spacing=9;strokeColor=#0D5CBA;strokeOpacity=100;fillOpacity=100;rounded=1;absoluteArcSize=1;arcSize=9;fillColor=#edf5ff;strokeWidth=2.3;lucidId=op2DaYbvGgqG;" parent="1" vertex="1">
          <mxGeometry x="311" y="694" width="106" height="64.5" as="geometry" />
        </mxCell>
        <mxCell id="8GjarqtCZsp81MKR5A-h-69" value="&lt;div style=&quot;display: flex; justify-content: center; text-align: center; align-items: baseline; font-size: 14px; line-height: 1.25; margin-top: -2px;&quot;&gt;&lt;span style=&quot;font-size: 14px;&quot;&gt;&lt;span style=&quot;font-size: 14px; color: rgb(51, 51, 51);&quot;&gt;5100&lt;br&gt;&lt;/span&gt;&lt;/span&gt;&lt;/div&gt;&lt;div style=&quot;display: flex; justify-content: center; text-align: center; align-items: baseline; font-size: 14px; line-height: 1.25; margin-top: -2px;&quot;&gt;&lt;span style=&quot;font-size: 14px;&quot;&gt;&lt;span style=&quot;font-size: 14px; color: rgb(51, 51, 51);&quot;&gt;MEGA2560 card&lt;/span&gt;&lt;/span&gt;&lt;/div&gt;" style="html=1;overflow=block;blockSpacing=1;whiteSpace=wrap;fontSize=14;spacing=9;strokeColor=#0D5CBA;strokeOpacity=100;fillOpacity=100;rounded=1;absoluteArcSize=1;arcSize=9;fillColor=#edf5ff;strokeWidth=2.3;lucidId=op2DwiNkQa2K;" parent="1" vertex="1">
          <mxGeometry x="900" y="541" width="111" height="61" as="geometry" />
        </mxCell>
        <mxCell id="8GjarqtCZsp81MKR5A-h-70" value="" style="html=1;jettySize=18;whiteSpace=wrap;fontSize=14;strokeColor=#5E5E5E;strokeWidth=1.5;rounded=1;arcSize=12;edgeStyle=orthogonalEdgeStyle;startArrow=none;endArrow=block;endFill=1;exitX=0.25;exitY=1;entryX=-0.008;entryY=0.5;entryPerimeter=0;lucidId=op2DSFLO5KK~;exitDx=0;exitDy=0;" parent="1" source="8GjarqtCZsp81MKR5A-h-49" target="8GjarqtCZsp81MKR5A-h-69" edge="1">
          <mxGeometry width="100" height="100" relative="1" as="geometry">
            <Array as="points" />
          </mxGeometry>
        </mxCell>
        <mxCell id="8GjarqtCZsp81MKR5A-h-71" value="&lt;div style=&quot;display: flex; justify-content: center; text-align: center; align-items: baseline; font-size: 14px; line-height: 1.25; margin-top: -2px;&quot;&gt;&lt;span style=&quot;font-size: 14px;&quot;&gt;&lt;span style=&quot;font-size: 14px; color: rgb(51, 51, 51);&quot;&gt;5200&lt;br&gt;&lt;/span&gt;&lt;/span&gt;&lt;/div&gt;&lt;div style=&quot;display: flex; justify-content: center; text-align: center; align-items: baseline; font-size: 14px; line-height: 1.25; margin-top: -2px;&quot;&gt;&lt;span style=&quot;font-size: 14px;&quot;&gt;&lt;span style=&quot;font-size: 14px; color: rgb(51, 51, 51);&quot;&gt;B6600 Stepper Motor Driver &lt;/span&gt;&lt;/span&gt;&lt;/div&gt;" style="html=1;overflow=block;blockSpacing=1;whiteSpace=wrap;fontSize=14;spacing=9;strokeColor=#0D5CBA;strokeOpacity=100;fillOpacity=100;rounded=1;absoluteArcSize=1;arcSize=9;fillColor=#edf5ff;strokeWidth=2.3;lucidId=QH2DF~hNH7CZ;" parent="1" vertex="1">
          <mxGeometry x="900" y="618" width="114" height="59" as="geometry" />
        </mxCell>
        <mxCell id="8GjarqtCZsp81MKR5A-h-72" value="" style="html=1;jettySize=18;whiteSpace=wrap;fontSize=14;strokeColor=#5E5E5E;strokeWidth=1.5;rounded=1;arcSize=12;edgeStyle=orthogonalEdgeStyle;startArrow=none;endArrow=block;endFill=1;exitX=0.25;exitY=1;entryX=-0.008;entryY=0.5;entryPerimeter=0;lucidId=vI2D_zl7JVAI;exitDx=0;exitDy=0;" parent="1" source="8GjarqtCZsp81MKR5A-h-49" target="8GjarqtCZsp81MKR5A-h-71" edge="1">
          <mxGeometry width="100" height="100" relative="1" as="geometry">
            <Array as="points" />
          </mxGeometry>
        </mxCell>
        <mxCell id="8GjarqtCZsp81MKR5A-h-73" value="&lt;div style=&quot;display: flex; justify-content: center; text-align: center; align-items: baseline; font-size: 14px; line-height: 1.25; margin-top: -2px;&quot;&gt;&lt;span style=&quot;font-size: 14px;&quot;&gt;&lt;span style=&quot;font-size: 14px; color: rgb(51, 51, 51);&quot;&gt;5400&lt;br&gt;&lt;/span&gt;&lt;/span&gt;&lt;/div&gt;&lt;div style=&quot;display: flex; justify-content: center; text-align: center; align-items: baseline; font-size: 14px; line-height: 1.25; margin-top: -2px;&quot;&gt;&lt;span style=&quot;font-size: 14px;&quot;&gt;&lt;span style=&quot;font-size: 14px; color: rgb(51, 51, 51);&quot;&gt;Micro-SD card&lt;/span&gt;&lt;/span&gt;&lt;/div&gt;" style="html=1;overflow=block;blockSpacing=1;whiteSpace=wrap;fontSize=14;spacing=9;strokeColor=#0D5CBA;strokeOpacity=100;fillOpacity=100;rounded=1;absoluteArcSize=1;arcSize=9;fillColor=#edf5ff;strokeWidth=2.3;lucidId=jJ2DOeKgWx2X;" parent="1" vertex="1">
          <mxGeometry x="901.5" y="764" width="113.5" height="50" as="geometry" />
        </mxCell>
        <mxCell id="8GjarqtCZsp81MKR5A-h-74" value="" style="html=1;jettySize=18;whiteSpace=wrap;fontSize=14;strokeColor=#5E5E5E;strokeWidth=1.5;rounded=1;arcSize=12;edgeStyle=orthogonalEdgeStyle;startArrow=none;endArrow=block;endFill=1;exitX=0.25;exitY=1;entryX=-0.008;entryY=0.5;entryPerimeter=0;lucidId=yM2DXgf9nWSb;exitDx=0;exitDy=0;" parent="1" source="8GjarqtCZsp81MKR5A-h-49" target="8GjarqtCZsp81MKR5A-h-73" edge="1">
          <mxGeometry width="100" height="100" relative="1" as="geometry">
            <Array as="points" />
          </mxGeometry>
        </mxCell>
        <mxCell id="8GjarqtCZsp81MKR5A-h-75" value="&lt;div style=&quot;display: flex; justify-content: center; text-align: center; align-items: baseline; font-size: 14px; line-height: 1.25; margin-top: -2px;&quot;&gt;&lt;span style=&quot;font-size: 14px;&quot;&gt;&lt;span style=&quot;font-size: 14px; color: rgb(51, 51, 51);&quot;&gt;6000&#xa;&lt;/span&gt;&lt;/span&gt;&lt;/div&gt;&lt;div style=&quot;display: flex; justify-content: center; text-align: center; align-items: baseline; font-size: 14px; line-height: 1.25; margin-top: -2px;&quot;&gt;&lt;span style=&quot;font-size: 14px;&quot;&gt;&lt;span style=&quot;font-size: 14px; color: rgb(51, 51, 51);&quot;&gt;Software&lt;/span&gt;&lt;/span&gt;&lt;/div&gt;" style="html=1;overflow=block;blockSpacing=1;whiteSpace=wrap;fontSize=14;spacing=9;strokeColor=#0D5CBA;strokeOpacity=100;fillOpacity=100;rounded=1;absoluteArcSize=1;arcSize=9;fillColor=#edf5ff;strokeWidth=2.3;lucidId=RX2Dc.WBU14V;" parent="1" vertex="1">
          <mxGeometry x="1019" y="449" width="82" height="72" as="geometry" />
        </mxCell>
        <mxCell id="8GjarqtCZsp81MKR5A-h-76" value="" style="html=1;jettySize=18;whiteSpace=wrap;fontSize=14;strokeColor=#5E5E5E;strokeWidth=1.5;rounded=1;arcSize=12;edgeStyle=orthogonalEdgeStyle;startArrow=none;endArrow=block;endFill=1;exitX=0.5;exitY=1.011;exitPerimeter=0;entryX=0.5;entryY=-0.012;entryPerimeter=0;lucidId=4Y2Dq01y5dqt;" parent="1" source="8GjarqtCZsp81MKR5A-h-42" target="8GjarqtCZsp81MKR5A-h-75" edge="1">
          <mxGeometry width="100" height="100" relative="1" as="geometry">
            <Array as="points">
              <mxPoint x="673" y="410" />
              <mxPoint x="1060" y="410" />
            </Array>
          </mxGeometry>
        </mxCell>
        <mxCell id="8GjarqtCZsp81MKR5A-h-77" value="&lt;div style=&quot;display: flex; justify-content: center; text-align: center; align-items: baseline; font-size: 14px; line-height: 1.25; margin-top: -2px;&quot;&gt;&lt;span style=&quot;font-size: 14px;&quot;&gt;&lt;span style=&quot;font-size: 14px; color: rgb(51, 51, 51);&quot;&gt;6100&#xa;&lt;/span&gt;&lt;/span&gt;&lt;/div&gt;&lt;div style=&quot;display: flex; justify-content: center; text-align: center; align-items: baseline; font-size: 14px; line-height: 1.25; margin-top: -2px;&quot;&gt;&lt;span style=&quot;font-size: 14px;&quot;&gt;&lt;span style=&quot;font-size: 14px; color: rgb(51, 51, 51);&quot;&gt;Automaton&lt;/span&gt;&lt;/span&gt;&lt;/div&gt;" style="html=1;overflow=block;blockSpacing=1;whiteSpace=wrap;fontSize=14;spacing=9;strokeColor=#0D5CBA;strokeOpacity=100;fillOpacity=100;rounded=1;absoluteArcSize=1;arcSize=9;fillColor=#edf5ff;strokeWidth=2.3;lucidId=7Y2DjmoZVE3K;" parent="1" vertex="1">
          <mxGeometry x="1065" y="541" width="91" height="57" as="geometry" />
        </mxCell>
        <mxCell id="8GjarqtCZsp81MKR5A-h-78" value="&lt;div style=&quot;display: flex; justify-content: center; text-align: center; align-items: baseline; font-size: 14px; line-height: 1.25; margin-top: -2px;&quot;&gt;&lt;span style=&quot;font-size: 14px;&quot;&gt;&lt;span style=&quot;font-size: 14px; color: rgb(51, 51, 51);&quot;&gt;6200&#xa;&lt;/span&gt;&lt;/span&gt;&lt;/div&gt;&lt;div style=&quot;display: flex; justify-content: center; text-align: center; align-items: baseline; font-size: 14px; line-height: 1.25; margin-top: -2px;&quot;&gt;&lt;span style=&quot;font-size: 14px;&quot;&gt;&lt;span style=&quot;font-size: 14px; color: rgb(51, 51, 51);&quot;&gt;Data acquisition&lt;/span&gt;&lt;/span&gt;&lt;/div&gt;" style="html=1;overflow=block;blockSpacing=1;whiteSpace=wrap;fontSize=14;spacing=9;strokeColor=#0D5CBA;strokeOpacity=100;fillOpacity=100;rounded=1;absoluteArcSize=1;arcSize=9;fillColor=#edf5ff;strokeWidth=2.3;lucidId=yZ2Dx6f_7SJq;" parent="1" vertex="1">
          <mxGeometry x="1065" y="617" width="89" height="58" as="geometry" />
        </mxCell>
        <mxCell id="8GjarqtCZsp81MKR5A-h-79" value="&lt;div style=&quot;display: flex; justify-content: center; text-align: center; align-items: baseline; font-size: 14px; line-height: 1.25; margin-top: -2px;&quot;&gt;&lt;span style=&quot;font-size: 14px;&quot;&gt;&lt;span style=&quot;font-size: 14px; color: rgb(51, 51, 51);&quot;&gt;6300&#xa;&lt;/span&gt;&lt;/span&gt;&lt;/div&gt;&lt;div style=&quot;display: flex; justify-content: center; text-align: center; align-items: baseline; font-size: 14px; line-height: 1.25; margin-top: -2px;&quot;&gt;&lt;span style=&quot;font-size: 14px;&quot;&gt;&lt;span style=&quot;font-size: 14px; color: rgb(51, 51, 51);&quot;&gt;Data Processing&lt;/span&gt;&lt;/span&gt;&lt;/div&gt;" style="html=1;overflow=block;blockSpacing=1;whiteSpace=wrap;fontSize=14;spacing=9;strokeColor=#0D5CBA;strokeOpacity=100;fillOpacity=100;rounded=1;absoluteArcSize=1;arcSize=9;fillColor=#edf5ff;strokeWidth=2.3;lucidId=YZ2DKWKq_tG.;" parent="1" vertex="1">
          <mxGeometry x="1066" y="693" width="86" height="56" as="geometry" />
        </mxCell>
        <mxCell id="8GjarqtCZsp81MKR5A-h-80" value="" style="html=1;jettySize=18;whiteSpace=wrap;fontSize=14;strokeColor=#5E5E5E;strokeWidth=1.5;rounded=1;arcSize=12;edgeStyle=orthogonalEdgeStyle;startArrow=none;endArrow=block;endFill=1;exitX=0.25;exitY=1;entryX=-0.008;entryY=0.5;entryPerimeter=0;lucidId=f02DgGN.fwjA;exitDx=0;exitDy=0;" parent="1" source="8GjarqtCZsp81MKR5A-h-75" target="8GjarqtCZsp81MKR5A-h-77" edge="1">
          <mxGeometry width="100" height="100" relative="1" as="geometry">
            <Array as="points" />
          </mxGeometry>
        </mxCell>
        <mxCell id="8GjarqtCZsp81MKR5A-h-81" value="" style="html=1;jettySize=18;whiteSpace=wrap;fontSize=14;strokeColor=#5E5E5E;strokeWidth=1.5;rounded=1;arcSize=12;edgeStyle=orthogonalEdgeStyle;startArrow=none;endArrow=block;endFill=1;exitX=0.25;exitY=1;entryX=-0.008;entryY=0.5;entryPerimeter=0;lucidId=j02Dbz7nteP1;exitDx=0;exitDy=0;" parent="1" source="8GjarqtCZsp81MKR5A-h-75" target="8GjarqtCZsp81MKR5A-h-78" edge="1">
          <mxGeometry width="100" height="100" relative="1" as="geometry">
            <Array as="points" />
          </mxGeometry>
        </mxCell>
        <mxCell id="8GjarqtCZsp81MKR5A-h-82" value="" style="html=1;jettySize=18;whiteSpace=wrap;fontSize=14;strokeColor=#5E5E5E;strokeWidth=1.5;rounded=1;arcSize=12;edgeStyle=orthogonalEdgeStyle;startArrow=none;endArrow=block;endFill=1;exitX=0.25;exitY=1;entryX=-0.008;entryY=0.5;entryPerimeter=0;lucidId=t02Dbb3X~-~c;exitDx=0;exitDy=0;" parent="1" source="8GjarqtCZsp81MKR5A-h-75" target="8GjarqtCZsp81MKR5A-h-79" edge="1">
          <mxGeometry width="100" height="100" relative="1" as="geometry">
            <Array as="points" />
          </mxGeometry>
        </mxCell>
        <mxCell id="8GjarqtCZsp81MKR5A-h-92" value="" style="endArrow=none;html=1;rounded=0;exitX=0;exitY=0.5;exitDx=0;exitDy=0;" parent="1" edge="1">
          <mxGeometry width="50" height="50" relative="1" as="geometry">
            <mxPoint x="555" y="238.5" as="sourcePoint" />
            <mxPoint x="775" y="238" as="targetPoint" />
          </mxGeometry>
        </mxCell>
        <mxCell id="QH--4bEgFCzSNv2URltK-1" value="&lt;div style=&quot;display: flex; justify-content: center; text-align: center; align-items: baseline; font-size: 14px; line-height: 1.25; margin-top: -2px;&quot;&gt;&lt;span style=&quot;font-size: 14px;&quot;&gt;&lt;span style=&quot;font-size: 14px; color: rgb(51, 51, 51);&quot;&gt;5300&lt;br&gt;&lt;/span&gt;&lt;/span&gt;&lt;/div&gt;&lt;div style=&quot;display: flex; justify-content: center; text-align: center; align-items: baseline; font-size: 14px; line-height: 1.25; margin-top: -2px;&quot;&gt;&lt;span style=&quot;font-size: 14px;&quot;&gt;&lt;span style=&quot;font-size: 14px; color: rgb(51, 51, 51);&quot;&gt;A4988 Stepper Motor Driver &lt;/span&gt;&lt;/span&gt;&lt;/div&gt;" style="html=1;overflow=block;blockSpacing=1;whiteSpace=wrap;fontSize=14;spacing=9;strokeColor=#0D5CBA;strokeOpacity=100;fillOpacity=100;rounded=1;absoluteArcSize=1;arcSize=9;fillColor=#edf5ff;strokeWidth=2.3;lucidId=QH2DF~hNH7CZ;" vertex="1" parent="1">
          <mxGeometry x="900" y="690" width="116" height="61" as="geometry" />
        </mxCell>
        <mxCell id="QH--4bEgFCzSNv2URltK-2" value="&lt;div style=&quot;display: flex; justify-content: center; text-align: center; align-items: baseline; font-size: 14px; line-height: 1.25; margin-top: -2px;&quot;&gt;&lt;span style=&quot;font-size: 14px;&quot;&gt;&lt;span style=&quot;font-size: 14px; color: rgb(51, 51, 51);&quot;&gt;2200&lt;br&gt;&lt;/span&gt;&lt;/span&gt;&lt;/div&gt;&lt;div style=&quot;display: flex; justify-content: center; text-align: center; align-items: baseline; font-size: 14px; line-height: 1.25; margin-top: -2px;&quot;&gt;&lt;span style=&quot;font-size: 14px;&quot;&gt;&lt;span style=&quot;font-size: 14px; color: rgb(51, 51, 51);&quot;&gt;Z axis Stepper Motor&lt;/span&gt;&lt;/span&gt;&lt;/div&gt;" style="html=1;overflow=block;blockSpacing=1;whiteSpace=wrap;fontSize=14;spacing=9;strokeColor=#0D5CBA;strokeOpacity=100;fillOpacity=100;rounded=1;absoluteArcSize=1;arcSize=9;fillColor=#edf5ff;strokeWidth=2.3;lucidId=op2DPShWuuZC;" vertex="1" parent="1">
          <mxGeometry x="456" y="617" width="111" height="67" as="geometry" />
        </mxCell>
        <mxCell id="QH--4bEgFCzSNv2URltK-3" value="" style="html=1;jettySize=18;whiteSpace=wrap;fontSize=14;strokeColor=#5E5E5E;strokeWidth=1.5;rounded=1;arcSize=12;edgeStyle=orthogonalEdgeStyle;startArrow=none;endArrow=block;endFill=1;entryX=0;entryY=0.5;lucidId=op2D_loqMMDQ;entryDx=0;entryDy=0;exitX=0.237;exitY=0.996;exitDx=0;exitDy=0;exitPerimeter=0;" edge="1" parent="1" source="8GjarqtCZsp81MKR5A-h-46" target="QH--4bEgFCzSNv2URltK-2">
          <mxGeometry width="100" height="100" relative="1" as="geometry">
            <Array as="points">
              <mxPoint x="440" y="517" />
              <mxPoint x="439" y="517" />
              <mxPoint x="439" y="669" />
            </Array>
            <mxPoint x="431" y="517" as="sourcePoint" />
            <mxPoint x="463" y="596" as="targetPoint" />
          </mxGeometry>
        </mxCell>
        <mxCell id="QH--4bEgFCzSNv2URltK-5" value="&lt;div&gt;1400&lt;/div&gt;&lt;div&gt;Z axis&lt;/div&gt;&lt;div&gt;sensor motion&lt;br&gt;&lt;/div&gt;" style="html=1;overflow=block;blockSpacing=1;whiteSpace=wrap;fontSize=14;spacing=9;strokeColor=#0D5CBA;strokeOpacity=100;fillOpacity=100;rounded=1;absoluteArcSize=1;arcSize=9;fillColor=#edf5ff;strokeWidth=2.3;lucidId=op2DaYbvGgqG;" vertex="1" parent="1">
          <mxGeometry x="310" y="769" width="107" height="64.5" as="geometry" />
        </mxCell>
        <mxCell id="QH--4bEgFCzSNv2URltK-7" value="&lt;div&gt;3200&lt;/div&gt;&lt;div&gt;Limit switch sensor&lt;br&gt;&lt;/div&gt;" style="html=1;overflow=block;blockSpacing=1;whiteSpace=wrap;fontSize=14;spacing=9;strokeColor=#0D5CBA;strokeOpacity=100;fillOpacity=100;rounded=1;absoluteArcSize=1;arcSize=9;fillColor=#edf5ff;strokeWidth=2.3;lucidId=op2D3rJPvKz7;" vertex="1" parent="1">
          <mxGeometry x="602" y="619" width="95" height="64" as="geometry" />
        </mxCell>
        <mxCell id="QH--4bEgFCzSNv2URltK-10" value="&lt;div style=&quot;display: flex; justify-content: center; text-align: center; align-items: baseline; font-size: 14px; line-height: 1.25; margin-top: -2px;&quot;&gt;&lt;span style=&quot;font-size: 14px;&quot;&gt;&lt;span style=&quot;font-size: 14px; color: rgb(51, 51, 51);&quot;&gt;4200&lt;br&gt;&lt;/span&gt;&lt;/span&gt;&lt;/div&gt;&lt;div style=&quot;display: flex; justify-content: center; text-align: center; align-items: baseline; font-size: 14px; line-height: 1.25; margin-top: -2px;&quot;&gt;&lt;span style=&quot;font-size: 14px;&quot;&gt;&lt;span style=&quot;font-size: 14px; color: rgb(51, 51, 51);&quot;&gt;Z axis Stepper&lt;br&gt;&lt;/span&gt;&lt;/span&gt;&lt;/div&gt;" style="html=1;overflow=block;blockSpacing=1;whiteSpace=wrap;fontSize=14;spacing=9;strokeColor=#0D5CBA;strokeOpacity=100;fillOpacity=100;rounded=1;absoluteArcSize=1;arcSize=9;fillColor=#edf5ff;strokeWidth=2.3;lucidId=op2DEWVl0N-0;" vertex="1" parent="1">
          <mxGeometry x="739" y="602" width="112" height="48" as="geometry" />
        </mxCell>
        <mxCell id="QH--4bEgFCzSNv2URltK-14" value="&lt;div style=&quot;display: flex; justify-content: center; text-align: center; align-items: baseline; font-size: 14px; line-height: 1.25; margin-top: -2px;&quot;&gt;&lt;span style=&quot;font-size: 14px;&quot;&gt;&lt;span style=&quot;font-size: 14px; color: rgb(51, 51, 51);&quot;&gt;5500&lt;br&gt;&lt;/span&gt;&lt;/span&gt;&lt;/div&gt;&lt;div style=&quot;display: flex; justify-content: center; text-align: center; align-items: baseline; font-size: 14px; line-height: 1.25; margin-top: -2px;&quot;&gt;&lt;span style=&quot;font-size: 14px;&quot;&gt;&lt;span style=&quot;font-size: 14px; color: rgb(51, 51, 51);&quot;&gt;LCD display&lt;br&gt;&lt;/span&gt;&lt;/span&gt;&lt;/div&gt;" style="html=1;overflow=block;blockSpacing=1;whiteSpace=wrap;fontSize=14;spacing=9;strokeColor=#0D5CBA;strokeOpacity=100;fillOpacity=100;rounded=1;absoluteArcSize=1;arcSize=9;fillColor=#edf5ff;strokeWidth=2.3;lucidId=jJ2DOeKgWx2X;" vertex="1" parent="1">
          <mxGeometry x="901.5" y="827" width="113.5" height="50" as="geometry" />
        </mxCell>
      </root>
    </mxGraphModel>
  </diagram>
  <diagram id="d5aZngXSX7vcz7FWKPvq" name="Synoptic">
    <mxGraphModel dx="1195" dy="638" grid="0" gridSize="10" guides="1" tooltips="1" connect="1" arrows="1" fold="1" page="0" pageScale="1" pageWidth="827" pageHeight="1169" math="0" shadow="0">
      <root>
        <mxCell id="0" />
        <mxCell id="1" parent="0" />
        <mxCell id="MXdcKwibAUk7aoDQRohG-1" value="" style="html=1;overflow=block;blockSpacing=1;whiteSpace=wrap;fontSize=13;align=center;spacing=3.8;rounded=1;absoluteArcSize=1;arcSize=9;fixDash=1;strokeWidth=NaN;lucidId=neJCQycIsMct;fillColor=#eeeeee;strokeColor=#B3B3B3;" parent="1" vertex="1">
          <mxGeometry x="265" y="212" width="552" height="364" as="geometry" />
        </mxCell>
        <mxCell id="MXdcKwibAUk7aoDQRohG-3" value="&lt;div style=&quot;font-size: 15px;&quot;&gt;&lt;font style=&quot;font-size: 15px;&quot;&gt;&lt;b&gt;&lt;br&gt;&lt;/b&gt;&lt;/font&gt;&lt;/div&gt;&lt;div style=&quot;font-size: 15px;&quot;&gt;&lt;font style=&quot;font-size: 15px;&quot;&gt;&lt;b&gt;&lt;font style=&quot;font-size: 15px;&quot;&gt;MEGA2560&lt;/font&gt;&lt;br&gt;&lt;/b&gt;&lt;/font&gt;&lt;/div&gt;" style="html=1;overflow=block;blockSpacing=1;whiteSpace=wrap;fontSize=13;align=center;spacing=3.8;strokeColor=#008a0e;strokeOpacity=100;fillOpacity=100;rounded=1;absoluteArcSize=1;arcSize=9;fillColor=#e3fae3;strokeWidth=NaN;lucidId=vAICVZjkXimj;" parent="1" vertex="1">
          <mxGeometry x="456" y="260" width="212" height="173" as="geometry" />
        </mxCell>
        <mxCell id="MXdcKwibAUk7aoDQRohG-2" value="" style="html=1;overflow=block;blockSpacing=1;whiteSpace=wrap;fontSize=13;align=center;spacing=0;strokeColor=#5e5e5e;strokeOpacity=100;fillOpacity=100;rounded=0;absoluteArcSize=1;arcSize=9;rotation=90;fillColor=#f2f3f5;strokeWidth=1.5;lucidId=NzICSKtsHby3;glass=0;" parent="1" vertex="1">
          <mxGeometry x="92" y="258" width="49" height="51" as="geometry" />
        </mxCell>
        <mxCell id="MXdcKwibAUk7aoDQRohG-4" value="" style="html=1;overflow=block;blockSpacing=1;whiteSpace=wrap;shape=image;fontSize=13;spacing=0;strokeColor=none;strokeOpacity=100;rounded=1;absoluteArcSize=1;arcSize=9;strokeWidth=0;image=https://images.lucid.app/images/2bf2e281-e63b-4094-a0a2-95e3448d0fc6/content;imageAspect=0;lucidId=pRICNoLPJ4Pd;" parent="1" vertex="1">
          <mxGeometry x="521" y="267" width="77" height="53" as="geometry" />
        </mxCell>
        <mxCell id="MXdcKwibAUk7aoDQRohG-5" value="&lt;div align=&quot;left&quot;&gt;&amp;nbsp; Stepper&lt;/div&gt;&lt;div align=&quot;left&quot;&gt;&amp;nbsp; driver&lt;br&gt;&amp;nbsp; TB6600&lt;/div&gt;" style="html=1;overflow=block;blockSpacing=1;whiteSpace=wrap;fontSize=16.7;align=left;spacing=3.8;strokeColor=#008a0e;strokeOpacity=100;fillOpacity=100;rounded=1;absoluteArcSize=1;arcSize=9;fillColor=#e3fae3;strokeWidth=NaN;lucidId=tSICsN2mwRZC;" parent="1" vertex="1">
          <mxGeometry x="294" y="248" width="118" height="72" as="geometry" />
        </mxCell>
        <mxCell id="MXdcKwibAUk7aoDQRohG-6" value="DC power" style="html=1;overflow=block;blockSpacing=1;whiteSpace=wrap;fontSize=16.7;align=center;spacing=3.8;strokeColor=#000000;fillOpacity=100;rounded=1;absoluteArcSize=1;arcSize=9;fillColor=#fff0f0;strokeWidth=1;lucidId=nXICa3dpI2N5;" parent="1" vertex="1">
          <mxGeometry x="432" y="619" width="89" height="48" as="geometry" />
        </mxCell>
        <mxCell id="MXdcKwibAUk7aoDQRohG-7" value="microSD" style="html=1;overflow=block;blockSpacing=1;whiteSpace=wrap;fontSize=16.7;align=center;spacing=3.8;strokeColor=#008a0e;strokeOpacity=100;fillOpacity=100;rounded=1;absoluteArcSize=1;arcSize=9;fillColor=#e3fae3;strokeWidth=NaN;lucidId=20IC93ckv.jN;" parent="1" vertex="1">
          <mxGeometry x="716" y="327" width="77" height="39" as="geometry" />
        </mxCell>
        <mxCell id="MXdcKwibAUk7aoDQRohG-8" value="" style="html=1;jettySize=18;whiteSpace=wrap;fontSize=13;strokeColor=#1071e5;strokeOpacity=100;strokeWidth=4.5;rounded=1;arcSize=12;edgeStyle=orthogonalEdgeStyle;startArrow=none;endArrow=none;exitX=-0.01;exitY=0.5;exitPerimeter=0;entryX=1;entryY=0.5;lucidId=w1ICbb~EDq1Y;entryDx=0;entryDy=0;" parent="1" source="MXdcKwibAUk7aoDQRohG-7" target="MXdcKwibAUk7aoDQRohG-3" edge="1">
          <mxGeometry width="100" height="100" relative="1" as="geometry">
            <Array as="points" />
          </mxGeometry>
        </mxCell>
        <mxCell id="MXdcKwibAUk7aoDQRohG-9" value="&amp;nbsp;4&amp;nbsp; " style="text;html=1;resizable=0;labelBackgroundColor=default;align=center;verticalAlign=middle;fontStyle=1;fontColor=#333333;fontSize=13.3;" parent="MXdcKwibAUk7aoDQRohG-8" vertex="1">
          <mxGeometry x="-0.2086627982195921" relative="1" as="geometry">
            <mxPoint x="-4" as="offset" />
          </mxGeometry>
        </mxCell>
        <mxCell id="MXdcKwibAUk7aoDQRohG-10" value="&lt;div&gt;DC power&lt;/div&gt;&lt;div&gt;7.5 V / 2 A&lt;br&gt;&lt;/div&gt;" style="html=1;overflow=block;blockSpacing=1;whiteSpace=wrap;fontSize=16.7;align=center;spacing=3.8;strokeColor=#000000;fillOpacity=100;rounded=1;absoluteArcSize=1;arcSize=9;fillColor=#fff0f0;strokeWidth=1;lucidId=AZIC8iiOUr6U;" parent="1" vertex="1">
          <mxGeometry x="518" y="119" width="89" height="48" as="geometry" />
        </mxCell>
        <mxCell id="MXdcKwibAUk7aoDQRohG-13" value="" style="html=1;jettySize=18;whiteSpace=wrap;fontSize=13;strokeColor=#1071e5;strokeOpacity=100;strokeWidth=7.5;rounded=1;arcSize=12;edgeStyle=orthogonalEdgeStyle;startArrow=none;endArrow=none;exitX=-0.009;exitY=0.5;exitPerimeter=0;entryX=0.5;entryY=0.012;entryPerimeter=0;lucidId=iYICltOF_sVp;" parent="1" source="MXdcKwibAUk7aoDQRohG-5" target="MXdcKwibAUk7aoDQRohG-2" edge="1">
          <mxGeometry width="100" height="100" relative="1" as="geometry">
            <Array as="points" />
          </mxGeometry>
        </mxCell>
        <mxCell id="MXdcKwibAUk7aoDQRohG-14" value="&amp;nbsp;4&amp;nbsp; " style="text;html=1;resizable=0;labelBackgroundColor=default;align=center;verticalAlign=middle;fontStyle=1;fontColor=#333333;fontSize=13.3;" parent="MXdcKwibAUk7aoDQRohG-13" vertex="1">
          <mxGeometry x="-0.3141255499538088" relative="1" as="geometry">
            <mxPoint x="-9" as="offset" />
          </mxGeometry>
        </mxCell>
        <mxCell id="MXdcKwibAUk7aoDQRohG-15" value="" style="html=1;overflow=block;blockSpacing=1;whiteSpace=wrap;fontSize=13;align=center;spacing=9;strokeOpacity=0;fillOpacity=100;rounded=1;absoluteArcSize=1;arcSize=9;fillColor=#f2f3f5;strokeWidth=NaN;lucidId=~5IC7LnaRsC6;" parent="1" vertex="1">
          <mxGeometry x="47" y="77" width="238" height="109" as="geometry" />
        </mxCell>
        <mxCell id="MXdcKwibAUk7aoDQRohG-16" value="" style="html=1;jettySize=18;whiteSpace=wrap;fontSize=13;strokeColor=#1071e5;strokeOpacity=100;strokeWidth=7.5;rounded=1;arcSize=12;edgeStyle=orthogonalEdgeStyle;startArrow=none;endArrow=none;lucidId=v5IC~DPgcM3t;" parent="1" edge="1">
          <mxGeometry width="100" height="100" relative="1" as="geometry">
            <Array as="points" />
            <mxPoint x="140" y="166" as="sourcePoint" />
            <mxPoint x="61" y="166" as="targetPoint" />
          </mxGeometry>
        </mxCell>
        <mxCell id="MXdcKwibAUk7aoDQRohG-17" value="&amp;nbsp;n&amp;nbsp; " style="text;html=1;resizable=0;labelBackgroundColor=default;align=center;verticalAlign=middle;fontStyle=1;fontColor=#333333;fontSize=15;" parent="MXdcKwibAUk7aoDQRohG-16" vertex="1">
          <mxGeometry x="-0.13273749050529982" relative="1" as="geometry" />
        </mxCell>
        <mxCell id="MXdcKwibAUk7aoDQRohG-18" value="" style="html=1;jettySize=18;whiteSpace=wrap;fontSize=13;strokeColor=#1071e5;strokeOpacity=100;dashed=1;fixDash=1;dashPattern=6 5;strokeWidth=3;rounded=1;arcSize=12;edgeStyle=orthogonalEdgeStyle;startArrow=none;endArrow=none;lucidId=24IC2yL6qF4_;" parent="1" edge="1">
          <mxGeometry width="100" height="100" relative="1" as="geometry">
            <Array as="points" />
            <mxPoint x="140" y="113" as="sourcePoint" />
            <mxPoint x="62" y="113" as="targetPoint" />
          </mxGeometry>
        </mxCell>
        <mxCell id="MXdcKwibAUk7aoDQRohG-19" value="" style="html=1;jettySize=18;whiteSpace=wrap;fontSize=13;strokeColor=#e81313;strokeOpacity=100;strokeWidth=3;rounded=1;arcSize=12;edgeStyle=orthogonalEdgeStyle;startArrow=none;endArrow=none;lucidId=e5IC8UU3CtJL;" parent="1" edge="1">
          <mxGeometry width="100" height="100" relative="1" as="geometry">
            <Array as="points" />
            <mxPoint x="61" y="95" as="sourcePoint" />
            <mxPoint x="140" y="95" as="targetPoint" />
          </mxGeometry>
        </mxCell>
        <mxCell id="MXdcKwibAUk7aoDQRohG-20" value="" style="html=1;jettySize=18;whiteSpace=wrap;fontSize=13;strokeColor=#1071e5;strokeOpacity=100;strokeWidth=3;rounded=1;arcSize=12;edgeStyle=orthogonalEdgeStyle;startArrow=none;endArrow=none;lucidId=C9ICiuXFk67W;" parent="1" edge="1">
          <mxGeometry width="100" height="100" relative="1" as="geometry">
            <Array as="points" />
            <mxPoint x="141" y="130" as="sourcePoint" />
            <mxPoint x="62" y="130" as="targetPoint" />
          </mxGeometry>
        </mxCell>
        <mxCell id="MXdcKwibAUk7aoDQRohG-21" value="&lt;div style=&quot;display: flex; justify-content: flex-start; text-align: left; align-items: baseline; font-size: 0; line-height: 1.25;margin-top: -2px;&quot;&gt;&lt;span&gt;&lt;span style=&quot;font-size:15px;color:#282c33;&quot;&gt;DC link&#xa;&lt;/span&gt;&lt;/span&gt;&lt;/div&gt;&lt;div style=&quot;display: flex; justify-content: flex-start; text-align: left; align-items: baseline; font-size: 0; line-height: 1.25;margin-top: -2px;&quot;&gt;&lt;span&gt;&lt;span style=&quot;font-size:15px;color:#282c33;&quot;&gt;I2C bus&#xa;&lt;/span&gt;&lt;/span&gt;&lt;/div&gt;&lt;div style=&quot;display: flex; justify-content: flex-start; text-align: left; align-items: baseline; font-size: 0; line-height: 1.25;margin-top: -2px;&quot;&gt;&lt;span&gt;&lt;span style=&quot;font-size:15px;color:#282c33;&quot;&gt;digital link&#xa;&lt;/span&gt;&lt;/span&gt;&lt;/div&gt;&lt;div style=&quot;display: flex; justify-content: flex-start; text-align: left; align-items: baseline; font-size: 0; line-height: 1.25;margin-top: -2px;&quot;&gt;&lt;span&gt;&lt;span style=&quot;font-size:15px;color:#282c33;&quot;&gt;serial digital link&#xa;&lt;/span&gt;&lt;/span&gt;&lt;/div&gt;&lt;div style=&quot;display: flex; justify-content: flex-start; text-align: left; align-items: baseline; font-size: 0; line-height: 1.25;margin-top: -2px;&quot;&gt;&lt;span&gt;&lt;span style=&quot;font-size:15px;color:#282c33;&quot;&gt;n-wire digital link &#xa;&lt;/span&gt;&lt;/span&gt;&lt;/div&gt;&lt;div style=&quot;display: flex; justify-content: flex-start; text-align: left; align-items: baseline; font-size: 0; line-height: 1.25;margin-top: -2px;&quot;&gt;&lt;span&gt;&lt;/span&gt;&lt;/div&gt;" style="html=1;overflow=block;blockSpacing=1;whiteSpace=wrap;fontSize=13;spacing=0;verticalAlign=top;strokeColor=none;strokeOpacity=100;fillOpacity=100;rounded=1;absoluteArcSize=1;arcSize=9;fillColor=none;strokeWidth=1.5;lucidId=h-IC1s1P4eVj;" parent="1" vertex="1">
          <mxGeometry x="153" y="92" width="125" height="89" as="geometry" />
        </mxCell>
        <mxCell id="MXdcKwibAUk7aoDQRohG-22" value="" style="html=1;jettySize=18;whiteSpace=wrap;fontSize=13;strokeColor=#e81313;strokeOpacity=100;strokeWidth=2;rounded=1;arcSize=12;edgeStyle=orthogonalEdgeStyle;startArrow=none;endArrow=none;exitX=0.5;exitY=1.016;exitPerimeter=0;entryX=0.5;entryY=-0.009;entryPerimeter=0;lucidId=KZICtbnfuQ17;" parent="1" source="MXdcKwibAUk7aoDQRohG-10" target="MXdcKwibAUk7aoDQRohG-3" edge="1">
          <mxGeometry width="100" height="100" relative="1" as="geometry">
            <Array as="points" />
          </mxGeometry>
        </mxCell>
        <mxCell id="MXdcKwibAUk7aoDQRohG-23" value="" style="html=1;jettySize=18;whiteSpace=wrap;fontSize=13;strokeColor=#e81313;strokeOpacity=100;strokeWidth=4;rounded=1;arcSize=12;edgeStyle=orthogonalEdgeStyle;startArrow=none;endArrow=none;exitX=0.5;exitY=1;entryX=0.524;entryY=-0.01;entryPerimeter=0;lucidId=ZXICT_i-C1am;exitDx=0;exitDy=0;" parent="1" source="seLuKdgiRzoSCshMdlrV-15" target="MXdcKwibAUk7aoDQRohG-5" edge="1">
          <mxGeometry width="100" height="100" relative="1" as="geometry">
            <Array as="points" />
          </mxGeometry>
        </mxCell>
        <mxCell id="MXdcKwibAUk7aoDQRohG-24" value="" style="html=1;jettySize=18;whiteSpace=wrap;fontSize=13;strokeColor=#1071e5;strokeOpacity=100;dashed=1;fixDash=1;dashPattern=6 5;strokeWidth=3;rounded=1;arcSize=12;edgeStyle=orthogonalEdgeStyle;startArrow=none;endArrow=none;exitX=-0.006;exitY=0.5;exitPerimeter=0;entryX=0.827;entryY=-0.009;entryPerimeter=0;lucidId=gcJCW0G16knU;" parent="1" source="MXdcKwibAUk7aoDQRohG-25" target="MXdcKwibAUk7aoDQRohG-3" edge="1">
          <mxGeometry width="100" height="100" relative="1" as="geometry">
            <Array as="points">
              <mxPoint x="630" y="242" />
              <mxPoint x="630" y="258" />
            </Array>
          </mxGeometry>
        </mxCell>
        <mxCell id="MXdcKwibAUk7aoDQRohG-25" value="LCD display" style="html=1;overflow=block;blockSpacing=1;whiteSpace=wrap;fontSize=16.7;align=center;spacing=3.8;strokeColor=#008a0e;strokeOpacity=100;fillOpacity=100;rounded=1;absoluteArcSize=1;arcSize=9;fillColor=#e3fae3;strokeWidth=NaN;lucidId=wfJCey1MSa1q;" parent="1" vertex="1">
          <mxGeometry x="716" y="219" width="77" height="49" as="geometry" />
        </mxCell>
        <mxCell id="MXdcKwibAUk7aoDQRohG-26" value="Rotation&#xa;Stepper motor" style="html=1;overflow=block;blockSpacing=1;whiteSpace=wrap;fontSize=16.7;fontColor=#282c33;align=center;spacing=0;strokeColor=none;strokeOpacity=100;fillOpacity=100;rounded=1;absoluteArcSize=1;arcSize=9;fillColor=#ffffff;strokeWidth=1.5;lucidId=rgJCZE1M0kU5;" parent="1" vertex="1">
          <mxGeometry x="26.5" y="208" width="180" height="45" as="geometry" />
        </mxCell>
        <mxCell id="MXdcKwibAUk7aoDQRohG-27" value="&amp;nbsp;Computing system" style="html=1;overflow=block;blockSpacing=1;whiteSpace=wrap;fontSize=15;fontColor=#282c33;align=left;spacing=0;verticalAlign=top;strokeColor=#B3B3B3;strokeOpacity=100;fillOpacity=100;rounded=1;absoluteArcSize=1;arcSize=9;fillColor=#E6E6E6;strokeWidth=1;lucidId=7gJCHd.mq3Zo;" parent="1" vertex="1">
          <mxGeometry x="272" y="567" width="137" height="18" as="geometry" />
        </mxCell>
        <mxCell id="MXdcKwibAUk7aoDQRohG-28" value="" style="group;dropTarget=0;pointerEvents=0;" parent="1" vertex="1">
          <mxGeometry x="93" y="409" width="80" height="23" as="geometry" />
        </mxCell>
        <mxCell id="MXdcKwibAUk7aoDQRohG-29" value="&lt;div&gt;&lt;br&gt;&lt;/div&gt;&lt;div&gt;&lt;br&gt;&lt;/div&gt;" style="html=1;overflow=block;blockSpacing=1;whiteSpace=wrap;fontSize=16.7;align=center;spacing=9;strokeColor=#unset;fillOpacity=100;rounded=1;absoluteArcSize=1;arcSize=9;fillColor=#979ea8;strokeWidth=NaN;lucidId=gqJCTAgLAOx5;" parent="MXdcKwibAUk7aoDQRohG-28" vertex="1">
          <mxGeometry x="-26.329113924050628" y="12.369747899159664" width="39.49367088607595" height="4.831932773109243" as="geometry" />
        </mxCell>
        <mxCell id="MXdcKwibAUk7aoDQRohG-30" value="&lt;p style=&quot;line-height: 0%; margin-top: 0px; font-size: 16px;&quot;&gt;&lt;b&gt;&lt;font color=&quot;#ffffff&quot; style=&quot;font-size: 12px;&quot;&gt;USB25103&lt;/font&gt;&lt;/b&gt;&lt;/p&gt;" style="html=1;overflow=block;blockSpacing=1;whiteSpace=wrap;fontSize=16.7;align=center;spacing=9;strokeColor=#unset;fillOpacity=100;rounded=1;absoluteArcSize=1;arcSize=9;fillColor=#979ea8;strokeWidth=NaN;lucidId=rqJCgnRdxMBq;" parent="MXdcKwibAUk7aoDQRohG-28" vertex="1">
          <mxGeometry y="7.666666666666668" width="77.94871794871794" height="15.333333333333336" as="geometry" />
        </mxCell>
        <mxCell id="MXdcKwibAUk7aoDQRohG-31" value="" style="html=1;jettySize=18;whiteSpace=wrap;fontSize=13;strokeColor=#1071e5;strokeOpacity=100;dashed=1;fixDash=1;dashPattern=1 2;strokeWidth=3;rounded=1;arcSize=12;edgeStyle=orthogonalEdgeStyle;startArrow=none;endArrow=none;lucidId=SsJCbepxh2_w;" parent="1" edge="1">
          <mxGeometry width="100" height="100" relative="1" as="geometry">
            <Array as="points" />
            <mxPoint x="140" y="148" as="sourcePoint" />
            <mxPoint x="61" y="148" as="targetPoint" />
          </mxGeometry>
        </mxCell>
        <mxCell id="MXdcKwibAUk7aoDQRohG-32" value="" style="html=1;jettySize=18;whiteSpace=wrap;fontSize=13;strokeColor=#1071e5;strokeOpacity=100;dashed=1;fixDash=1;dashPattern=1 2;strokeWidth=3;rounded=1;arcSize=12;edgeStyle=orthogonalEdgeStyle;startArrow=none;endArrow=none;entryX=1.018;entryY=0.5;entryPerimeter=0;lucidId=~sJCrjoK775l;exitX=0;exitY=0.5;exitDx=0;exitDy=0;" parent="1" source="Ik6v7Lbk1_5pWf9Vg6na-3" target="MXdcKwibAUk7aoDQRohG-30" edge="1">
          <mxGeometry width="100" height="100" relative="1" as="geometry">
            <Array as="points" />
            <mxPoint x="200" y="432" as="sourcePoint" />
          </mxGeometry>
        </mxCell>
        <mxCell id="MXdcKwibAUk7aoDQRohG-33" value="3D magnetic sensor" style="html=1;overflow=block;blockSpacing=1;whiteSpace=wrap;fontSize=16.7;fontColor=#282c33;align=center;spacing=0;strokeColor=none;strokeOpacity=100;fillOpacity=100;rounded=1;absoluteArcSize=1;arcSize=9;fillColor=#ffffff;strokeWidth=1.5;lucidId=stJCteFD6GQX;" parent="1" vertex="1">
          <mxGeometry x="67" y="434" width="152" height="16" as="geometry" />
        </mxCell>
        <mxCell id="MXdcKwibAUk7aoDQRohG-34" value="&lt;div&gt;&lt;br&gt;&lt;/div&gt;&lt;div&gt;&lt;br&gt;&lt;/div&gt;" style="html=1;overflow=block;blockSpacing=1;whiteSpace=wrap;fontSize=16.7;align=center;spacing=9;strokeColor=#unset;fillOpacity=100;rounded=0;absoluteArcSize=1;arcSize=9;fillColor=#979ea8;strokeWidth=NaN;lucidId=gqJCTAgLAOx5;" parent="1" vertex="1">
          <mxGeometry x="82" y="277" width="10" height="11" as="geometry" />
        </mxCell>
        <mxCell id="seLuKdgiRzoSCshMdlrV-2" value="&lt;div align=&quot;left&quot;&gt;&amp;nbsp; Stepper&lt;/div&gt;&lt;div align=&quot;left&quot;&gt;&amp;nbsp; driver&lt;/div&gt;&lt;div align=&quot;left&quot;&gt;&amp;nbsp; A4988&lt;/div&gt;" style="html=1;overflow=block;blockSpacing=1;whiteSpace=wrap;fontSize=16.7;align=left;spacing=3.8;strokeColor=#008a0e;strokeOpacity=100;fillOpacity=100;rounded=1;absoluteArcSize=1;arcSize=9;fillColor=#e3fae3;strokeWidth=NaN;lucidId=tSICsN2mwRZC;" parent="1" vertex="1">
          <mxGeometry x="417.5" y="490" width="118.5" height="72" as="geometry" />
        </mxCell>
        <mxCell id="seLuKdgiRzoSCshMdlrV-4" value="" style="html=1;jettySize=18;whiteSpace=wrap;fontSize=13;strokeColor=#1071e5;strokeOpacity=100;strokeWidth=7.5;rounded=1;arcSize=12;edgeStyle=orthogonalEdgeStyle;startArrow=none;endArrow=none;exitX=-0.009;exitY=0.5;exitPerimeter=0;entryX=0.656;entryY=0.038;entryPerimeter=0;lucidId=iYICltOF_sVp;entryDx=0;entryDy=0;" parent="1" target="seLuKdgiRzoSCshMdlrV-1" edge="1">
          <mxGeometry width="100" height="100" relative="1" as="geometry">
            <Array as="points" />
            <mxPoint x="416.4335000000001" y="530.9999999999999" as="sourcePoint" />
            <mxPoint x="135.06799999999987" y="531.7499999999999" as="targetPoint" />
          </mxGeometry>
        </mxCell>
        <mxCell id="seLuKdgiRzoSCshMdlrV-5" value="&amp;nbsp;4&amp;nbsp; " style="text;html=1;resizable=0;labelBackgroundColor=default;align=center;verticalAlign=middle;fontStyle=1;fontColor=#333333;fontSize=13.3;" parent="seLuKdgiRzoSCshMdlrV-4" vertex="1">
          <mxGeometry x="-0.3141255499538088" relative="1" as="geometry">
            <mxPoint x="-80" as="offset" />
          </mxGeometry>
        </mxCell>
        <mxCell id="seLuKdgiRzoSCshMdlrV-6" value="Vertical motion stepper motor&lt;br&gt;&lt;div&gt;&lt;br&gt;&lt;/div&gt;" style="html=1;overflow=block;blockSpacing=1;whiteSpace=wrap;fontSize=16.7;fontColor=#282c33;align=center;spacing=0;strokeColor=none;strokeOpacity=100;fillOpacity=100;rounded=1;absoluteArcSize=1;arcSize=9;fillColor=#ffffff;strokeWidth=1.5;lucidId=rgJCZE1M0kU5;" parent="1" vertex="1">
          <mxGeometry x="65" y="544" width="129" height="45" as="geometry" />
        </mxCell>
        <mxCell id="seLuKdgiRzoSCshMdlrV-7" value="&lt;div&gt;&lt;br&gt;&lt;/div&gt;&lt;div&gt;&lt;br&gt;&lt;/div&gt;" style="html=1;overflow=block;blockSpacing=1;whiteSpace=wrap;fontSize=16.7;align=center;spacing=9;strokeColor=#unset;fillOpacity=100;rounded=0;absoluteArcSize=1;arcSize=9;fillColor=#979ea8;strokeWidth=NaN;lucidId=gqJCTAgLAOx5;rotation=90;" parent="1" vertex="1">
          <mxGeometry x="99.38" y="489.88" width="36.25" height="3" as="geometry" />
        </mxCell>
        <mxCell id="seLuKdgiRzoSCshMdlrV-8" value="" style="html=1;jettySize=18;whiteSpace=wrap;fontSize=13;strokeColor=#1071e5;strokeOpacity=100;strokeWidth=7.5;rounded=1;arcSize=12;edgeStyle=orthogonalEdgeStyle;startArrow=none;endArrow=none;exitX=0.636;exitY=1;lucidId=l2ICC5.eeOom;entryX=1;entryY=0.5;entryDx=0;entryDy=0;exitDx=0;exitDy=0;exitPerimeter=0;" parent="1" source="MXdcKwibAUk7aoDQRohG-3" target="seLuKdgiRzoSCshMdlrV-2" edge="1">
          <mxGeometry width="100" height="100" relative="1" as="geometry">
            <Array as="points" />
            <mxPoint x="554.2649999999999" y="349.5" as="sourcePoint" />
            <mxPoint x="452.7649999999999" y="350" as="targetPoint" />
          </mxGeometry>
        </mxCell>
        <mxCell id="seLuKdgiRzoSCshMdlrV-9" value="&amp;nbsp;3&amp;nbsp;" style="text;html=1;resizable=0;labelBackgroundColor=default;align=center;verticalAlign=middle;fontStyle=1;fontColor=#333333;fontSize=13.3;" parent="seLuKdgiRzoSCshMdlrV-8" vertex="1">
          <mxGeometry relative="1" as="geometry">
            <mxPoint x="-25" y="20" as="offset" />
          </mxGeometry>
        </mxCell>
        <mxCell id="seLuKdgiRzoSCshMdlrV-14" value="&lt;div align=&quot;right&quot; style=&quot;font-size: 10px;&quot;&gt;&lt;font style=&quot;font-size: 10px;&quot;&gt;STEP&lt;br style=&quot;font-size: 10px;&quot;&gt;DIR&lt;br style=&quot;font-size: 10px;&quot;&gt;ENABLE &lt;/font&gt;&lt;/div&gt;" style="text;html=1;resizable=0;labelBackgroundColor=#E3FAE3;align=right;verticalAlign=middle;fontStyle=0;fontColor=#333333;fontSize=10;" parent="1" vertex="1">
          <mxGeometry x="529.9975042691087" y="526.747084281886" as="geometry" />
        </mxCell>
        <mxCell id="seLuKdgiRzoSCshMdlrV-1" value="" style="html=1;overflow=block;blockSpacing=1;whiteSpace=wrap;fontSize=13;align=center;spacing=0;strokeColor=#5e5e5e;strokeOpacity=100;fillOpacity=100;rounded=0;absoluteArcSize=1;arcSize=9;rotation=90;fillColor=#f2f3f5;strokeWidth=1.5;lucidId=NzICSKtsHby3;glass=0;" parent="1" vertex="1">
          <mxGeometry x="100.25" y="508.75" width="34.5" height="36" as="geometry" />
        </mxCell>
        <mxCell id="seLuKdgiRzoSCshMdlrV-15" value="DC power&lt;br&gt;12 V / 5 A" style="html=1;overflow=block;blockSpacing=1;whiteSpace=wrap;fontSize=16.7;align=center;spacing=3.8;strokeColor=#000000;fillOpacity=100;rounded=1;absoluteArcSize=1;arcSize=9;fillColor=#fff0f0;strokeWidth=1;lucidId=AZIC8iiOUr6U;" parent="1" vertex="1">
          <mxGeometry x="311" y="119" width="89" height="48" as="geometry" />
        </mxCell>
        <mxCell id="seLuKdgiRzoSCshMdlrV-16" value="" style="html=1;jettySize=18;whiteSpace=wrap;fontSize=13;strokeColor=#e81313;strokeOpacity=100;strokeWidth=3;rounded=1;arcSize=12;edgeStyle=orthogonalEdgeStyle;startArrow=none;endArrow=none;entryX=0.5;entryY=0;lucidId=ZXICT_i-C1am;entryDx=0;entryDy=0;exitX=0.5;exitY=1;exitDx=0;exitDy=0;" parent="1" source="seLuKdgiRzoSCshMdlrV-2" target="MXdcKwibAUk7aoDQRohG-6" edge="1">
          <mxGeometry width="100" height="100" relative="1" as="geometry">
            <Array as="points" />
            <mxPoint x="460" y="395" as="sourcePoint" />
            <mxPoint x="458.15999999999997" y="304" as="targetPoint" />
          </mxGeometry>
        </mxCell>
        <mxCell id="seLuKdgiRzoSCshMdlrV-17" value="" style="image;html=1;image=img/lib/clip_art/computers/Workstation_128x128.png" parent="1" vertex="1">
          <mxGeometry x="767" y="444" width="221" height="243" as="geometry" />
        </mxCell>
        <mxCell id="seLuKdgiRzoSCshMdlrV-20" value="Dedicated PC" style="html=1;overflow=block;blockSpacing=1;whiteSpace=wrap;fontSize=16.7;fontColor=#FFFFFF;align=center;spacing=0;strokeColor=none;strokeOpacity=100;fillOpacity=100;rounded=1;absoluteArcSize=1;arcSize=9;fillColor=none;strokeWidth=1.5;lucidId=stJCteFD6GQX;fontStyle=1;rotation=-25;" parent="1" vertex="1">
          <mxGeometry x="823.5" y="581" width="108" height="38" as="geometry" />
        </mxCell>
        <mxCell id="seLuKdgiRzoSCshMdlrV-27" value="" style="html=1;overflow=block;blockSpacing=1;whiteSpace=wrap;fontSize=16.7;align=center;spacing=9;strokeColor=#unset;fillOpacity=100;rounded=1;absoluteArcSize=1;arcSize=9;fillColor=#333333;strokeWidth=NaN;lucidId=rqJCgnRdxMBq;" parent="1" vertex="1">
          <mxGeometry x="115" y="348" width="18" height="11" as="geometry" />
        </mxCell>
        <mxCell id="seLuKdgiRzoSCshMdlrV-35" value="" style="html=1;jettySize=18;whiteSpace=wrap;fontSize=13;strokeColor=#1071e5;strokeOpacity=100;strokeWidth=2;rounded=1;arcSize=12;edgeStyle=orthogonalEdgeStyle;startArrow=none;endArrow=none;exitX=-0.007;exitY=0.54;entryX=1;entryY=0.5;lucidId=iYICltOF_sVp;entryDx=0;entryDy=0;exitDx=0;exitDy=0;exitPerimeter=0;" parent="1" source="MXdcKwibAUk7aoDQRohG-3" target="seLuKdgiRzoSCshMdlrV-27" edge="1">
          <mxGeometry width="100" height="100" relative="1" as="geometry">
            <Array as="points" />
            <mxPoint x="446.94000000000005" y="353.79999999999995" as="sourcePoint" />
            <mxPoint x="145" y="471" as="targetPoint" />
          </mxGeometry>
        </mxCell>
        <mxCell id="seLuKdgiRzoSCshMdlrV-39" value="&lt;div&gt;Limit switch sensor&lt;/div&gt;&lt;div&gt;&lt;font style=&quot;font-size: 14px;&quot;&gt;&lt;i&gt;(NC: normally Closed)&lt;/i&gt;&lt;/font&gt;&lt;br&gt;&lt;/div&gt;" style="html=1;overflow=block;blockSpacing=1;whiteSpace=wrap;fontSize=16.7;fontColor=#282c33;align=center;spacing=0;strokeColor=none;strokeOpacity=100;fillOpacity=100;rounded=1;absoluteArcSize=1;arcSize=9;fillColor=#ffffff;strokeWidth=1.5;lucidId=rgJCZE1M0kU5;" parent="1" vertex="1">
          <mxGeometry x="79" y="361" width="163.5" height="26" as="geometry" />
        </mxCell>
        <mxCell id="Ik6v7Lbk1_5pWf9Vg6na-3" value="&lt;div style=&quot;font-size: 12px;&quot;&gt;&lt;font style=&quot;font-size: 12px;&quot;&gt;USB to&lt;/font&gt;&lt;/div&gt;&lt;div style=&quot;font-size: 12px;&quot;&gt;&lt;font style=&quot;font-size: 12px;&quot;&gt;&lt;font style=&quot;font-size: 12px;&quot;&gt;serial&lt;/font&gt;&lt;br&gt;&lt;/font&gt;&lt;/div&gt;" style="rounded=1;whiteSpace=wrap;html=1;fontSize=10;fillColor=#cce5ff;strokeColor=#007FFF;" parent="1" vertex="1">
          <mxGeometry x="310.5" y="406" width="59.5" height="35" as="geometry" />
        </mxCell>
        <mxCell id="Ik6v7Lbk1_5pWf9Vg6na-5" value="" style="html=1;jettySize=18;whiteSpace=wrap;fontSize=13;strokeColor=#1071e5;strokeOpacity=100;dashed=1;fixDash=1;dashPattern=1 2;strokeWidth=3;rounded=1;arcSize=12;edgeStyle=orthogonalEdgeStyle;startArrow=none;endArrow=none;entryX=0.949;entryY=0.492;entryPerimeter=0;lucidId=~sJCrjoK775l;entryDx=0;entryDy=0;" parent="1" target="Ik6v7Lbk1_5pWf9Vg6na-3" edge="1">
          <mxGeometry width="100" height="100" relative="1" as="geometry">
            <Array as="points" />
            <mxPoint x="456" y="422.9999999999999" as="sourcePoint" />
            <mxPoint x="147" y="434" as="targetPoint" />
          </mxGeometry>
        </mxCell>
        <mxCell id="Ik6v7Lbk1_5pWf9Vg6na-13" value="&lt;b&gt;&lt;font color=&quot;#007fff&quot;&gt;USB&lt;/font&gt;&lt;/b&gt;" style="text;html=1;align=center;verticalAlign=middle;whiteSpace=wrap;rounded=0;" parent="1" vertex="1">
          <mxGeometry x="767" y="617" width="25" height="16" as="geometry" />
        </mxCell>
        <mxCell id="Ik6v7Lbk1_5pWf9Vg6na-14" value="&lt;b&gt;&lt;font color=&quot;#007fff&quot;&gt;USB&lt;/font&gt;&lt;/b&gt;" style="text;html=1;align=center;verticalAlign=middle;whiteSpace=wrap;rounded=0;" parent="1" vertex="1">
          <mxGeometry x="624" y="417" width="25" height="16" as="geometry" />
        </mxCell>
        <mxCell id="seLuKdgiRzoSCshMdlrV-19" value="" style="html=1;jettySize=18;whiteSpace=wrap;fontSize=13;strokeColor=#1071e5;strokeOpacity=100;dashed=1;fixDash=1;dashPattern=1 2;strokeWidth=3;rounded=1;arcSize=12;edgeStyle=orthogonalEdgeStyle;startArrow=none;endArrow=none;exitX=0.5;exitY=1;lucidId=~sJCrjoK775l;exitDx=0;exitDy=0;entryX=-0.073;entryY=0.46;entryDx=0;entryDy=0;entryPerimeter=0;" parent="1" source="Ik6v7Lbk1_5pWf9Vg6na-14" target="Ik6v7Lbk1_5pWf9Vg6na-13" edge="1">
          <mxGeometry width="100" height="100" relative="1" as="geometry">
            <Array as="points">
              <mxPoint x="637" y="625" />
              <mxPoint x="765" y="625" />
            </Array>
            <mxPoint x="638.002" y="433.998" as="sourcePoint" />
            <mxPoint x="754.8280000000002" y="629.65" as="targetPoint" />
          </mxGeometry>
        </mxCell>
        <mxCell id="Ik6v7Lbk1_5pWf9Vg6na-15" value="&lt;font color=&quot;#007fff&quot;&gt;&lt;b&gt;TX1/RX1&lt;/b&gt;&lt;/font&gt;" style="text;html=1;align=center;verticalAlign=middle;whiteSpace=wrap;rounded=0;" parent="1" vertex="1">
          <mxGeometry x="459" y="415" width="56" height="16" as="geometry" />
        </mxCell>
        <mxCell id="Ik6v7Lbk1_5pWf9Vg6na-19" value="" style="html=1;jettySize=18;whiteSpace=wrap;fontSize=13;strokeColor=#1071e5;strokeOpacity=100;strokeWidth=7.5;rounded=1;arcSize=12;edgeStyle=orthogonalEdgeStyle;startArrow=none;endArrow=none;exitX=0;exitY=0.25;entryX=1;entryY=0.5;lucidId=l2ICC5.eeOom;entryDx=0;entryDy=0;exitDx=0;exitDy=0;" parent="1" target="MXdcKwibAUk7aoDQRohG-5" edge="1">
          <mxGeometry width="100" height="100" relative="1" as="geometry">
            <Array as="points">
              <mxPoint x="430" y="284" />
            </Array>
            <mxPoint x="456" y="284.25" as="sourcePoint" />
            <mxPoint x="382" y="284" as="targetPoint" />
          </mxGeometry>
        </mxCell>
        <mxCell id="Ik6v7Lbk1_5pWf9Vg6na-20" value="&amp;nbsp;3&amp;nbsp;" style="text;html=1;resizable=0;labelBackgroundColor=default;align=center;verticalAlign=middle;fontStyle=1;fontColor=#333333;fontSize=13.3;" parent="Ik6v7Lbk1_5pWf9Vg6na-19" vertex="1">
          <mxGeometry relative="1" as="geometry">
            <mxPoint x="-6" as="offset" />
          </mxGeometry>
        </mxCell>
        <mxCell id="seLuKdgiRzoSCshMdlrV-10" value="&lt;div align=&quot;right&quot; style=&quot;font-size: 10px;&quot;&gt;&lt;font style=&quot;font-size: 10px;&quot;&gt;STEP&lt;br style=&quot;font-size: 10px;&quot;&gt;DIR&lt;br style=&quot;font-size: 10px;&quot;&gt;ENABLE &lt;/font&gt;&lt;/div&gt;" style="text;html=1;resizable=0;labelBackgroundColor=#E3FAE3;align=right;verticalAlign=middle;fontStyle=0;fontColor=#333333;fontSize=10;" parent="1" vertex="1">
          <mxGeometry x="407.99750426910873" y="282.99708428188603" as="geometry" />
        </mxCell>
        <mxCell id="eYBYOV_0ItWHM6B0d7B3-1" value="" style="html=1;jettySize=18;whiteSpace=wrap;fontSize=13;strokeColor=#e81313;strokeOpacity=100;strokeWidth=1;rounded=1;arcSize=12;edgeStyle=orthogonalEdgeStyle;startArrow=none;endArrow=none;exitX=0.5;exitY=0;entryX=0.999;entryY=0.332;lucidId=KZICtbnfuQ17;exitDx=0;exitDy=0;entryDx=0;entryDy=0;entryPerimeter=0;" edge="1" parent="1" source="MXdcKwibAUk7aoDQRohG-7" target="MXdcKwibAUk7aoDQRohG-3">
          <mxGeometry width="100" height="100" relative="1" as="geometry">
            <Array as="points">
              <mxPoint x="754" y="317" />
              <mxPoint x="668" y="317" />
            </Array>
            <mxPoint x="573" y="178" as="sourcePoint" />
            <mxPoint x="572" y="268" as="targetPoint" />
          </mxGeometry>
        </mxCell>
        <mxCell id="eYBYOV_0ItWHM6B0d7B3-2" value="" style="html=1;jettySize=18;whiteSpace=wrap;fontSize=13;strokeColor=#e81313;strokeOpacity=100;strokeWidth=1;rounded=1;arcSize=12;edgeStyle=orthogonalEdgeStyle;startArrow=none;endArrow=none;exitX=0.5;exitY=1;entryX=0.999;entryY=0.154;lucidId=KZICtbnfuQ17;exitDx=0;exitDy=0;entryDx=0;entryDy=0;entryPerimeter=0;" edge="1" parent="1" source="MXdcKwibAUk7aoDQRohG-25" target="MXdcKwibAUk7aoDQRohG-3">
          <mxGeometry width="100" height="100" relative="1" as="geometry">
            <Array as="points" />
            <mxPoint x="765" y="376" as="sourcePoint" />
            <mxPoint x="678" y="395" as="targetPoint" />
          </mxGeometry>
        </mxCell>
        <mxCell id="eYBYOV_0ItWHM6B0d7B3-3" value="" style="html=1;jettySize=18;whiteSpace=wrap;fontSize=13;strokeColor=#e81313;strokeOpacity=100;strokeWidth=1;rounded=1;arcSize=12;edgeStyle=orthogonalEdgeStyle;startArrow=none;endArrow=none;exitX=-0.002;exitY=0.412;entryX=0.5;entryY=1;lucidId=KZICtbnfuQ17;exitDx=0;exitDy=0;entryDx=0;entryDy=0;exitPerimeter=0;" edge="1" parent="1" source="MXdcKwibAUk7aoDQRohG-3" target="MXdcKwibAUk7aoDQRohG-5">
          <mxGeometry width="100" height="100" relative="1" as="geometry">
            <Array as="points">
              <mxPoint x="446" y="331" />
              <mxPoint x="353" y="331" />
            </Array>
            <mxPoint x="446" y="341" as="sourcePoint" />
            <mxPoint x="359" y="331" as="targetPoint" />
          </mxGeometry>
        </mxCell>
        <mxCell id="eYBYOV_0ItWHM6B0d7B3-4" value="" style="html=1;jettySize=18;whiteSpace=wrap;fontSize=13;strokeColor=#e81313;strokeOpacity=100;strokeWidth=1;rounded=1;arcSize=12;edgeStyle=orthogonalEdgeStyle;startArrow=none;endArrow=none;exitX=0.5;exitY=1;entryX=0.5;entryY=0;lucidId=KZICtbnfuQ17;exitDx=0;exitDy=0;entryDx=0;entryDy=0;" edge="1" parent="1" source="MXdcKwibAUk7aoDQRohG-3" target="seLuKdgiRzoSCshMdlrV-2">
          <mxGeometry width="100" height="100" relative="1" as="geometry">
            <Array as="points">
              <mxPoint x="562" y="467" />
              <mxPoint x="477" y="467" />
            </Array>
            <mxPoint x="466" y="341" as="sourcePoint" />
            <mxPoint x="363" y="330" as="targetPoint" />
          </mxGeometry>
        </mxCell>
        <mxCell id="eYBYOV_0ItWHM6B0d7B3-5" value="" style="html=1;jettySize=18;whiteSpace=wrap;fontSize=13;strokeColor=#e81313;strokeOpacity=100;strokeWidth=4;rounded=1;arcSize=12;edgeStyle=orthogonalEdgeStyle;startArrow=none;endArrow=none;exitX=-0.027;exitY=0.333;entryX=0.25;entryY=0;lucidId=ZXICT_i-C1am;exitDx=0;exitDy=0;entryDx=0;entryDy=0;exitPerimeter=0;" edge="1" parent="1" source="MXdcKwibAUk7aoDQRohG-5" target="MXdcKwibAUk7aoDQRohG-2">
          <mxGeometry width="100" height="100" relative="1" as="geometry">
            <Array as="points" />
            <mxPoint x="366" y="177" as="sourcePoint" />
            <mxPoint x="366" y="257" as="targetPoint" />
          </mxGeometry>
        </mxCell>
        <mxCell id="eYBYOV_0ItWHM6B0d7B3-6" value="" style="html=1;jettySize=18;whiteSpace=wrap;fontSize=13;strokeColor=#e81313;strokeOpacity=100;strokeWidth=3;rounded=1;arcSize=12;edgeStyle=orthogonalEdgeStyle;startArrow=none;endArrow=none;exitX=0.008;exitY=0.387;entryX=0.25;entryY=0;lucidId=ZXICT_i-C1am;exitDx=0;exitDy=0;entryDx=0;entryDy=0;exitPerimeter=0;" edge="1" parent="1" source="seLuKdgiRzoSCshMdlrV-2" target="seLuKdgiRzoSCshMdlrV-1">
          <mxGeometry width="100" height="100" relative="1" as="geometry">
            <Array as="points" />
            <mxPoint x="297" y="509.75" as="sourcePoint" />
            <mxPoint x="148" y="508.75" as="targetPoint" />
          </mxGeometry>
        </mxCell>
      </root>
    </mxGraphModel>
  </diagram>
  <diagram name="Synoptic-RPi4" id="36aek0yKawI9bjJ-sc_W">
    <mxGraphModel dx="1434" dy="766" grid="0" gridSize="10" guides="1" tooltips="1" connect="1" arrows="1" fold="1" page="0" pageScale="1" pageWidth="827" pageHeight="1169" math="0" shadow="0">
      <root>
        <mxCell id="jOrHicvrorbe8Iknh3CX-0" />
        <mxCell id="jOrHicvrorbe8Iknh3CX-1" parent="jOrHicvrorbe8Iknh3CX-0" />
        <mxCell id="jOrHicvrorbe8Iknh3CX-2" value="" style="html=1;overflow=block;blockSpacing=1;whiteSpace=wrap;fontSize=13;align=center;spacing=3.8;rounded=1;absoluteArcSize=1;arcSize=9;fixDash=1;strokeWidth=NaN;lucidId=neJCQycIsMct;fillColor=#eeeeee;strokeColor=#B3B3B3;" parent="jOrHicvrorbe8Iknh3CX-1" vertex="1">
          <mxGeometry x="265" y="212" width="466" height="364" as="geometry" />
        </mxCell>
        <mxCell id="jOrHicvrorbe8Iknh3CX-3" value="" style="html=1;overflow=block;blockSpacing=1;whiteSpace=wrap;fontSize=13;align=center;spacing=3.8;strokeColor=#d79b00;strokeOpacity=100;fillOpacity=100;rounded=1;absoluteArcSize=1;arcSize=9;fillColor=#ffe6cc;strokeWidth=NaN;lucidId=vAICVZjkXimj;" parent="jOrHicvrorbe8Iknh3CX-1" vertex="1">
          <mxGeometry x="456" y="260" width="212" height="173" as="geometry" />
        </mxCell>
        <mxCell id="jOrHicvrorbe8Iknh3CX-4" value="" style="html=1;overflow=block;blockSpacing=1;whiteSpace=wrap;fontSize=13;align=center;spacing=0;strokeColor=#5e5e5e;strokeOpacity=100;fillOpacity=100;rounded=0;absoluteArcSize=1;arcSize=9;rotation=90;fillColor=#f2f3f5;strokeWidth=1.5;lucidId=NzICSKtsHby3;glass=0;" parent="jOrHicvrorbe8Iknh3CX-1" vertex="1">
          <mxGeometry x="92" y="258" width="49" height="51" as="geometry" />
        </mxCell>
        <mxCell id="jOrHicvrorbe8Iknh3CX-6" value="&lt;div align=&quot;left&quot;&gt;&amp;nbsp; Stepper&lt;/div&gt;&lt;div align=&quot;left&quot;&gt;&amp;nbsp; driver&lt;br&gt;&amp;nbsp; TB6600&lt;/div&gt;" style="html=1;overflow=block;blockSpacing=1;whiteSpace=wrap;fontSize=16.7;align=left;spacing=3.8;strokeColor=#008a0e;strokeOpacity=100;fillOpacity=100;rounded=1;absoluteArcSize=1;arcSize=9;fillColor=#e3fae3;strokeWidth=NaN;lucidId=tSICsN2mwRZC;" parent="jOrHicvrorbe8Iknh3CX-1" vertex="1">
          <mxGeometry x="294" y="248" width="118" height="72" as="geometry" />
        </mxCell>
        <mxCell id="jOrHicvrorbe8Iknh3CX-7" value="DC power&lt;br&gt;9 V / 2 A" style="html=1;overflow=block;blockSpacing=1;whiteSpace=wrap;fontSize=16.7;align=center;spacing=3.8;strokeColor=#000000;fillOpacity=100;rounded=1;absoluteArcSize=1;arcSize=9;fillColor=#fff0f0;strokeWidth=1;lucidId=nXICa3dpI2N5;" parent="jOrHicvrorbe8Iknh3CX-1" vertex="1">
          <mxGeometry x="432" y="619" width="89" height="48" as="geometry" />
        </mxCell>
        <mxCell id="jOrHicvrorbe8Iknh3CX-11" value="&lt;div&gt;DC power&lt;/div&gt;&lt;div&gt;5 V / 3 A&lt;br&gt;&lt;/div&gt;" style="html=1;overflow=block;blockSpacing=1;whiteSpace=wrap;fontSize=16.7;align=center;spacing=3.8;strokeColor=#000000;fillOpacity=100;rounded=1;absoluteArcSize=1;arcSize=9;fillColor=#fff0f0;strokeWidth=1;lucidId=AZIC8iiOUr6U;" parent="jOrHicvrorbe8Iknh3CX-1" vertex="1">
          <mxGeometry x="763" y="265" width="89" height="48" as="geometry" />
        </mxCell>
        <mxCell id="jOrHicvrorbe8Iknh3CX-12" value="" style="html=1;jettySize=18;whiteSpace=wrap;fontSize=13;strokeColor=#1071e5;strokeOpacity=100;strokeWidth=7.5;rounded=1;arcSize=12;edgeStyle=orthogonalEdgeStyle;startArrow=none;endArrow=none;exitX=-0.009;exitY=0.5;exitPerimeter=0;entryX=0.5;entryY=0.012;entryPerimeter=0;lucidId=iYICltOF_sVp;" parent="jOrHicvrorbe8Iknh3CX-1" source="jOrHicvrorbe8Iknh3CX-6" target="jOrHicvrorbe8Iknh3CX-4" edge="1">
          <mxGeometry width="100" height="100" relative="1" as="geometry">
            <Array as="points" />
          </mxGeometry>
        </mxCell>
        <mxCell id="jOrHicvrorbe8Iknh3CX-13" value="&amp;nbsp;4&amp;nbsp; " style="text;html=1;resizable=0;labelBackgroundColor=default;align=center;verticalAlign=middle;fontStyle=1;fontColor=#333333;fontSize=13.3;" parent="jOrHicvrorbe8Iknh3CX-12" vertex="1">
          <mxGeometry x="-0.3141255499538088" relative="1" as="geometry">
            <mxPoint x="-9" as="offset" />
          </mxGeometry>
        </mxCell>
        <mxCell id="jOrHicvrorbe8Iknh3CX-14" value="" style="html=1;overflow=block;blockSpacing=1;whiteSpace=wrap;fontSize=13;align=center;spacing=9;strokeOpacity=0;fillOpacity=100;rounded=1;absoluteArcSize=1;arcSize=9;fillColor=#f2f3f5;strokeWidth=NaN;lucidId=~5IC7LnaRsC6;" parent="jOrHicvrorbe8Iknh3CX-1" vertex="1">
          <mxGeometry x="611" y="88.5" width="238" height="109" as="geometry" />
        </mxCell>
        <mxCell id="jOrHicvrorbe8Iknh3CX-15" value="" style="html=1;jettySize=18;whiteSpace=wrap;fontSize=13;strokeColor=#1071e5;strokeOpacity=100;strokeWidth=7.5;rounded=1;arcSize=12;edgeStyle=orthogonalEdgeStyle;startArrow=none;endArrow=none;lucidId=v5IC~DPgcM3t;" parent="jOrHicvrorbe8Iknh3CX-1" edge="1">
          <mxGeometry width="100" height="100" relative="1" as="geometry">
            <Array as="points" />
            <mxPoint x="704" y="177.5" as="sourcePoint" />
            <mxPoint x="625" y="177.5" as="targetPoint" />
          </mxGeometry>
        </mxCell>
        <mxCell id="jOrHicvrorbe8Iknh3CX-16" value="&amp;nbsp;n&amp;nbsp; " style="text;html=1;resizable=0;labelBackgroundColor=default;align=center;verticalAlign=middle;fontStyle=1;fontColor=#333333;fontSize=15;" parent="jOrHicvrorbe8Iknh3CX-15" vertex="1">
          <mxGeometry x="-0.13273749050529982" relative="1" as="geometry" />
        </mxCell>
        <mxCell id="jOrHicvrorbe8Iknh3CX-17" value="" style="html=1;jettySize=18;whiteSpace=wrap;fontSize=13;strokeColor=#1071e5;strokeOpacity=100;dashed=1;fixDash=1;dashPattern=6 5;strokeWidth=3;rounded=1;arcSize=12;edgeStyle=orthogonalEdgeStyle;startArrow=none;endArrow=none;lucidId=24IC2yL6qF4_;" parent="jOrHicvrorbe8Iknh3CX-1" edge="1">
          <mxGeometry width="100" height="100" relative="1" as="geometry">
            <Array as="points" />
            <mxPoint x="704" y="124.5" as="sourcePoint" />
            <mxPoint x="626" y="124.5" as="targetPoint" />
          </mxGeometry>
        </mxCell>
        <mxCell id="jOrHicvrorbe8Iknh3CX-18" value="" style="html=1;jettySize=18;whiteSpace=wrap;fontSize=13;strokeColor=#e81313;strokeOpacity=100;strokeWidth=3;rounded=1;arcSize=12;edgeStyle=orthogonalEdgeStyle;startArrow=none;endArrow=none;lucidId=e5IC8UU3CtJL;" parent="jOrHicvrorbe8Iknh3CX-1" edge="1">
          <mxGeometry width="100" height="100" relative="1" as="geometry">
            <Array as="points" />
            <mxPoint x="625" y="106.5" as="sourcePoint" />
            <mxPoint x="704" y="106.5" as="targetPoint" />
          </mxGeometry>
        </mxCell>
        <mxCell id="jOrHicvrorbe8Iknh3CX-19" value="" style="html=1;jettySize=18;whiteSpace=wrap;fontSize=13;strokeColor=#1071e5;strokeOpacity=100;strokeWidth=3;rounded=1;arcSize=12;edgeStyle=orthogonalEdgeStyle;startArrow=none;endArrow=none;lucidId=C9ICiuXFk67W;" parent="jOrHicvrorbe8Iknh3CX-1" edge="1">
          <mxGeometry width="100" height="100" relative="1" as="geometry">
            <Array as="points" />
            <mxPoint x="705" y="141.5" as="sourcePoint" />
            <mxPoint x="626" y="141.5" as="targetPoint" />
          </mxGeometry>
        </mxCell>
        <mxCell id="jOrHicvrorbe8Iknh3CX-20" value="&lt;div style=&quot;display: flex; justify-content: flex-start; text-align: left; align-items: baseline; font-size: 0; line-height: 1.25;margin-top: -2px;&quot;&gt;&lt;span&gt;&lt;span style=&quot;font-size:15px;color:#282c33;&quot;&gt;DC link&#xa;&lt;/span&gt;&lt;/span&gt;&lt;/div&gt;&lt;div style=&quot;display: flex; justify-content: flex-start; text-align: left; align-items: baseline; font-size: 0; line-height: 1.25;margin-top: -2px;&quot;&gt;&lt;span&gt;&lt;span style=&quot;font-size:15px;color:#282c33;&quot;&gt;I2C bus&#xa;&lt;/span&gt;&lt;/span&gt;&lt;/div&gt;&lt;div style=&quot;display: flex; justify-content: flex-start; text-align: left; align-items: baseline; font-size: 0; line-height: 1.25;margin-top: -2px;&quot;&gt;&lt;span&gt;&lt;span style=&quot;font-size:15px;color:#282c33;&quot;&gt;digital link&#xa;&lt;/span&gt;&lt;/span&gt;&lt;/div&gt;&lt;div style=&quot;display: flex; justify-content: flex-start; text-align: left; align-items: baseline; font-size: 0; line-height: 1.25;margin-top: -2px;&quot;&gt;&lt;span&gt;&lt;span style=&quot;font-size:15px;color:#282c33;&quot;&gt;serial digital link&#xa;&lt;/span&gt;&lt;/span&gt;&lt;/div&gt;&lt;div style=&quot;display: flex; justify-content: flex-start; text-align: left; align-items: baseline; font-size: 0; line-height: 1.25;margin-top: -2px;&quot;&gt;&lt;span&gt;&lt;span style=&quot;font-size:15px;color:#282c33;&quot;&gt;n-wire digital link &#xa;&lt;/span&gt;&lt;/span&gt;&lt;/div&gt;&lt;div style=&quot;display: flex; justify-content: flex-start; text-align: left; align-items: baseline; font-size: 0; line-height: 1.25;margin-top: -2px;&quot;&gt;&lt;span&gt;&lt;/span&gt;&lt;/div&gt;" style="html=1;overflow=block;blockSpacing=1;whiteSpace=wrap;fontSize=13;spacing=0;verticalAlign=top;strokeColor=none;strokeOpacity=100;fillOpacity=100;rounded=1;absoluteArcSize=1;arcSize=9;fillColor=none;strokeWidth=1.5;lucidId=h-IC1s1P4eVj;" parent="jOrHicvrorbe8Iknh3CX-1" vertex="1">
          <mxGeometry x="717" y="103.5" width="125" height="89" as="geometry" />
        </mxCell>
        <mxCell id="jOrHicvrorbe8Iknh3CX-21" value="" style="html=1;jettySize=18;whiteSpace=wrap;fontSize=13;strokeColor=#e81313;strokeOpacity=100;strokeWidth=2;rounded=1;arcSize=12;edgeStyle=orthogonalEdgeStyle;startArrow=none;endArrow=none;exitX=0;exitY=0.5;entryX=1.002;entryY=0.166;entryPerimeter=0;lucidId=KZICtbnfuQ17;entryDx=0;entryDy=0;exitDx=0;exitDy=0;" parent="jOrHicvrorbe8Iknh3CX-1" source="jOrHicvrorbe8Iknh3CX-11" target="jOrHicvrorbe8Iknh3CX-3" edge="1">
          <mxGeometry width="100" height="100" relative="1" as="geometry">
            <Array as="points" />
          </mxGeometry>
        </mxCell>
        <mxCell id="jOrHicvrorbe8Iknh3CX-22" value="" style="html=1;jettySize=18;whiteSpace=wrap;fontSize=13;strokeColor=#e81313;strokeOpacity=100;strokeWidth=4;rounded=1;arcSize=12;edgeStyle=orthogonalEdgeStyle;startArrow=none;endArrow=none;exitX=0.5;exitY=1;entryX=0.524;entryY=-0.01;entryPerimeter=0;lucidId=ZXICT_i-C1am;exitDx=0;exitDy=0;" parent="jOrHicvrorbe8Iknh3CX-1" source="jOrHicvrorbe8Iknh3CX-43" target="jOrHicvrorbe8Iknh3CX-6" edge="1">
          <mxGeometry width="100" height="100" relative="1" as="geometry">
            <Array as="points" />
          </mxGeometry>
        </mxCell>
        <mxCell id="jOrHicvrorbe8Iknh3CX-25" value="Rotation&#xa;Stepper motor" style="html=1;overflow=block;blockSpacing=1;whiteSpace=wrap;fontSize=16.7;fontColor=#282c33;align=center;spacing=0;strokeColor=none;strokeOpacity=100;fillOpacity=100;rounded=1;absoluteArcSize=1;arcSize=9;fillColor=#ffffff;strokeWidth=1.5;lucidId=rgJCZE1M0kU5;" parent="jOrHicvrorbe8Iknh3CX-1" vertex="1">
          <mxGeometry x="26.5" y="208" width="180" height="45" as="geometry" />
        </mxCell>
        <mxCell id="jOrHicvrorbe8Iknh3CX-26" value="&amp;nbsp;Computing system" style="html=1;overflow=block;blockSpacing=1;whiteSpace=wrap;fontSize=15;fontColor=#282c33;align=left;spacing=0;verticalAlign=top;strokeColor=#B3B3B3;strokeOpacity=100;fillOpacity=100;rounded=1;absoluteArcSize=1;arcSize=9;fillColor=#E6E6E6;strokeWidth=1;lucidId=7gJCHd.mq3Zo;" parent="jOrHicvrorbe8Iknh3CX-1" vertex="1">
          <mxGeometry x="408.25" y="202" width="137" height="18" as="geometry" />
        </mxCell>
        <mxCell id="jOrHicvrorbe8Iknh3CX-27" value="" style="group;dropTarget=0;pointerEvents=0;" parent="jOrHicvrorbe8Iknh3CX-1" vertex="1">
          <mxGeometry x="93" y="409" width="80" height="23" as="geometry" />
        </mxCell>
        <mxCell id="jOrHicvrorbe8Iknh3CX-28" value="&lt;div&gt;&lt;br&gt;&lt;/div&gt;&lt;div&gt;&lt;br&gt;&lt;/div&gt;" style="html=1;overflow=block;blockSpacing=1;whiteSpace=wrap;fontSize=16.7;align=center;spacing=9;strokeColor=#unset;fillOpacity=100;rounded=1;absoluteArcSize=1;arcSize=9;fillColor=#979ea8;strokeWidth=NaN;lucidId=gqJCTAgLAOx5;" parent="jOrHicvrorbe8Iknh3CX-27" vertex="1">
          <mxGeometry x="-26.329113924050628" y="12.369747899159664" width="39.49367088607595" height="4.831932773109243" as="geometry" />
        </mxCell>
        <mxCell id="jOrHicvrorbe8Iknh3CX-29" value="&lt;p style=&quot;line-height: 0%; margin-top: 0px; font-size: 16px;&quot;&gt;&lt;b&gt;&lt;font color=&quot;#ffffff&quot; style=&quot;font-size: 12px;&quot;&gt;USB25103&lt;/font&gt;&lt;/b&gt;&lt;/p&gt;" style="html=1;overflow=block;blockSpacing=1;whiteSpace=wrap;fontSize=16.7;align=center;spacing=9;strokeColor=#unset;fillOpacity=100;rounded=1;absoluteArcSize=1;arcSize=9;fillColor=#979ea8;strokeWidth=NaN;lucidId=rqJCgnRdxMBq;" parent="jOrHicvrorbe8Iknh3CX-27" vertex="1">
          <mxGeometry y="7.666666666666668" width="77.94871794871794" height="15.333333333333336" as="geometry" />
        </mxCell>
        <mxCell id="jOrHicvrorbe8Iknh3CX-30" value="" style="html=1;jettySize=18;whiteSpace=wrap;fontSize=13;strokeColor=#1071e5;strokeOpacity=100;dashed=1;fixDash=1;dashPattern=1 2;strokeWidth=3;rounded=1;arcSize=12;edgeStyle=orthogonalEdgeStyle;startArrow=none;endArrow=none;lucidId=SsJCbepxh2_w;" parent="jOrHicvrorbe8Iknh3CX-1" edge="1">
          <mxGeometry width="100" height="100" relative="1" as="geometry">
            <Array as="points" />
            <mxPoint x="704" y="159.5" as="sourcePoint" />
            <mxPoint x="625" y="159.5" as="targetPoint" />
          </mxGeometry>
        </mxCell>
        <mxCell id="jOrHicvrorbe8Iknh3CX-31" value="" style="html=1;jettySize=18;whiteSpace=wrap;fontSize=13;strokeColor=#1071e5;strokeOpacity=100;dashed=1;fixDash=1;dashPattern=1 2;strokeWidth=3;rounded=1;arcSize=12;edgeStyle=orthogonalEdgeStyle;startArrow=none;endArrow=none;entryX=1.018;entryY=0.5;entryPerimeter=0;lucidId=~sJCrjoK775l;" parent="jOrHicvrorbe8Iknh3CX-1" target="jOrHicvrorbe8Iknh3CX-29" edge="1">
          <mxGeometry width="100" height="100" relative="1" as="geometry">
            <Array as="points" />
            <mxPoint x="455" y="424" as="sourcePoint" />
          </mxGeometry>
        </mxCell>
        <mxCell id="jOrHicvrorbe8Iknh3CX-32" value="3D magnetic sensor" style="html=1;overflow=block;blockSpacing=1;whiteSpace=wrap;fontSize=16.7;fontColor=#282c33;align=center;spacing=0;strokeColor=none;strokeOpacity=100;fillOpacity=100;rounded=1;absoluteArcSize=1;arcSize=9;fillColor=#ffffff;strokeWidth=1.5;lucidId=stJCteFD6GQX;" parent="jOrHicvrorbe8Iknh3CX-1" vertex="1">
          <mxGeometry x="67" y="434" width="152" height="16" as="geometry" />
        </mxCell>
        <mxCell id="jOrHicvrorbe8Iknh3CX-33" value="&lt;div&gt;&lt;br&gt;&lt;/div&gt;&lt;div&gt;&lt;br&gt;&lt;/div&gt;" style="html=1;overflow=block;blockSpacing=1;whiteSpace=wrap;fontSize=16.7;align=center;spacing=9;strokeColor=#unset;fillOpacity=100;rounded=0;absoluteArcSize=1;arcSize=9;fillColor=#979ea8;strokeWidth=NaN;lucidId=gqJCTAgLAOx5;" parent="jOrHicvrorbe8Iknh3CX-1" vertex="1">
          <mxGeometry x="82" y="277" width="10" height="11" as="geometry" />
        </mxCell>
        <mxCell id="jOrHicvrorbe8Iknh3CX-34" value="&lt;div align=&quot;left&quot;&gt;&amp;nbsp; Stepper&lt;/div&gt;&lt;div align=&quot;left&quot;&gt;&amp;nbsp; driver&lt;/div&gt;&lt;div align=&quot;left&quot;&gt;&amp;nbsp; A4988&lt;/div&gt;" style="html=1;overflow=block;blockSpacing=1;whiteSpace=wrap;fontSize=16.7;align=left;spacing=3.8;strokeColor=#008a0e;strokeOpacity=100;fillOpacity=100;rounded=1;absoluteArcSize=1;arcSize=9;fillColor=#e3fae3;strokeWidth=NaN;lucidId=tSICsN2mwRZC;" parent="jOrHicvrorbe8Iknh3CX-1" vertex="1">
          <mxGeometry x="417.5" y="490" width="118.5" height="72" as="geometry" />
        </mxCell>
        <mxCell id="jOrHicvrorbe8Iknh3CX-35" value="" style="html=1;jettySize=18;whiteSpace=wrap;fontSize=13;strokeColor=#1071e5;strokeOpacity=100;strokeWidth=7.5;rounded=1;arcSize=12;edgeStyle=orthogonalEdgeStyle;startArrow=none;endArrow=none;exitX=-0.009;exitY=0.5;exitPerimeter=0;entryX=0.656;entryY=0.038;entryPerimeter=0;lucidId=iYICltOF_sVp;entryDx=0;entryDy=0;" parent="jOrHicvrorbe8Iknh3CX-1" target="jOrHicvrorbe8Iknh3CX-42" edge="1">
          <mxGeometry width="100" height="100" relative="1" as="geometry">
            <Array as="points" />
            <mxPoint x="416.4335000000001" y="530.9999999999999" as="sourcePoint" />
            <mxPoint x="135.06799999999987" y="531.7499999999999" as="targetPoint" />
          </mxGeometry>
        </mxCell>
        <mxCell id="jOrHicvrorbe8Iknh3CX-36" value="&amp;nbsp;4&amp;nbsp; " style="text;html=1;resizable=0;labelBackgroundColor=default;align=center;verticalAlign=middle;fontStyle=1;fontColor=#333333;fontSize=13.3;" parent="jOrHicvrorbe8Iknh3CX-35" vertex="1">
          <mxGeometry x="-0.3141255499538088" relative="1" as="geometry">
            <mxPoint x="-80" as="offset" />
          </mxGeometry>
        </mxCell>
        <mxCell id="jOrHicvrorbe8Iknh3CX-37" value="Vertical motion stepper motor&lt;br&gt;&lt;div&gt;&lt;br&gt;&lt;/div&gt;" style="html=1;overflow=block;blockSpacing=1;whiteSpace=wrap;fontSize=16.7;fontColor=#282c33;align=center;spacing=0;strokeColor=none;strokeOpacity=100;fillOpacity=100;rounded=1;absoluteArcSize=1;arcSize=9;fillColor=#ffffff;strokeWidth=1.5;lucidId=rgJCZE1M0kU5;" parent="jOrHicvrorbe8Iknh3CX-1" vertex="1">
          <mxGeometry x="65" y="544" width="129" height="45" as="geometry" />
        </mxCell>
        <mxCell id="jOrHicvrorbe8Iknh3CX-38" value="&lt;div&gt;&lt;br&gt;&lt;/div&gt;&lt;div&gt;&lt;br&gt;&lt;/div&gt;" style="html=1;overflow=block;blockSpacing=1;whiteSpace=wrap;fontSize=16.7;align=center;spacing=9;strokeColor=#unset;fillOpacity=100;rounded=0;absoluteArcSize=1;arcSize=9;fillColor=#979ea8;strokeWidth=NaN;lucidId=gqJCTAgLAOx5;rotation=90;" parent="jOrHicvrorbe8Iknh3CX-1" vertex="1">
          <mxGeometry x="99.38" y="489.88" width="36.25" height="3" as="geometry" />
        </mxCell>
        <mxCell id="jOrHicvrorbe8Iknh3CX-39" value="" style="html=1;jettySize=18;whiteSpace=wrap;fontSize=13;strokeColor=#1071e5;strokeOpacity=100;strokeWidth=7.5;rounded=1;arcSize=12;edgeStyle=orthogonalEdgeStyle;startArrow=none;endArrow=none;exitX=0.636;exitY=1;lucidId=l2ICC5.eeOom;entryX=1;entryY=0.5;entryDx=0;entryDy=0;exitDx=0;exitDy=0;exitPerimeter=0;" parent="jOrHicvrorbe8Iknh3CX-1" source="jOrHicvrorbe8Iknh3CX-3" target="jOrHicvrorbe8Iknh3CX-34" edge="1">
          <mxGeometry width="100" height="100" relative="1" as="geometry">
            <Array as="points" />
            <mxPoint x="554.2649999999999" y="349.5" as="sourcePoint" />
            <mxPoint x="452.7649999999999" y="350" as="targetPoint" />
          </mxGeometry>
        </mxCell>
        <mxCell id="jOrHicvrorbe8Iknh3CX-40" value="&amp;nbsp;3&amp;nbsp;" style="text;html=1;resizable=0;labelBackgroundColor=default;align=center;verticalAlign=middle;fontStyle=1;fontColor=#333333;fontSize=13.3;" parent="jOrHicvrorbe8Iknh3CX-39" vertex="1">
          <mxGeometry relative="1" as="geometry">
            <mxPoint x="-25" y="20" as="offset" />
          </mxGeometry>
        </mxCell>
        <mxCell id="jOrHicvrorbe8Iknh3CX-41" value="&lt;div align=&quot;right&quot; style=&quot;font-size: 10px;&quot;&gt;&lt;font style=&quot;font-size: 10px;&quot;&gt;STEP&lt;br style=&quot;font-size: 10px;&quot;&gt;DIR&lt;br style=&quot;font-size: 10px;&quot;&gt;ENABLE &lt;/font&gt;&lt;/div&gt;" style="text;html=1;resizable=0;labelBackgroundColor=#E3FAE3;align=right;verticalAlign=middle;fontStyle=0;fontColor=#333333;fontSize=10;" parent="jOrHicvrorbe8Iknh3CX-1" vertex="1">
          <mxGeometry x="529.9975042691087" y="526.747084281886" as="geometry" />
        </mxCell>
        <mxCell id="jOrHicvrorbe8Iknh3CX-42" value="" style="html=1;overflow=block;blockSpacing=1;whiteSpace=wrap;fontSize=13;align=center;spacing=0;strokeColor=#5e5e5e;strokeOpacity=100;fillOpacity=100;rounded=0;absoluteArcSize=1;arcSize=9;rotation=90;fillColor=#f2f3f5;strokeWidth=1.5;lucidId=NzICSKtsHby3;glass=0;" parent="jOrHicvrorbe8Iknh3CX-1" vertex="1">
          <mxGeometry x="100.25" y="508.75" width="34.5" height="36" as="geometry" />
        </mxCell>
        <mxCell id="jOrHicvrorbe8Iknh3CX-43" value="DC power&lt;br&gt;12 V / 5 A" style="html=1;overflow=block;blockSpacing=1;whiteSpace=wrap;fontSize=16.7;align=center;spacing=3.8;strokeColor=#000000;fillOpacity=100;rounded=1;absoluteArcSize=1;arcSize=9;fillColor=#fff0f0;strokeWidth=1;lucidId=AZIC8iiOUr6U;" parent="jOrHicvrorbe8Iknh3CX-1" vertex="1">
          <mxGeometry x="311" y="119" width="89" height="48" as="geometry" />
        </mxCell>
        <mxCell id="jOrHicvrorbe8Iknh3CX-44" value="" style="html=1;jettySize=18;whiteSpace=wrap;fontSize=13;strokeColor=#e81313;strokeOpacity=100;strokeWidth=3;rounded=1;arcSize=12;edgeStyle=orthogonalEdgeStyle;startArrow=none;endArrow=none;entryX=0.5;entryY=0;lucidId=ZXICT_i-C1am;entryDx=0;entryDy=0;exitX=0.5;exitY=1;exitDx=0;exitDy=0;" parent="jOrHicvrorbe8Iknh3CX-1" source="jOrHicvrorbe8Iknh3CX-34" target="jOrHicvrorbe8Iknh3CX-7" edge="1">
          <mxGeometry width="100" height="100" relative="1" as="geometry">
            <Array as="points" />
            <mxPoint x="460" y="395" as="sourcePoint" />
            <mxPoint x="458.15999999999997" y="304" as="targetPoint" />
          </mxGeometry>
        </mxCell>
        <mxCell id="jOrHicvrorbe8Iknh3CX-46" value="Dedicated PC" style="html=1;overflow=block;blockSpacing=1;whiteSpace=wrap;fontSize=16.7;fontColor=#FFFFFF;align=center;spacing=0;strokeColor=none;strokeOpacity=100;fillOpacity=100;rounded=1;absoluteArcSize=1;arcSize=9;fillColor=none;strokeWidth=1.5;lucidId=stJCteFD6GQX;fontStyle=1;rotation=-25;" parent="jOrHicvrorbe8Iknh3CX-1" vertex="1">
          <mxGeometry x="823.5" y="581" width="108" height="38" as="geometry" />
        </mxCell>
        <mxCell id="jOrHicvrorbe8Iknh3CX-47" value="" style="html=1;overflow=block;blockSpacing=1;whiteSpace=wrap;fontSize=16.7;align=center;spacing=9;strokeColor=#unset;fillOpacity=100;rounded=1;absoluteArcSize=1;arcSize=9;fillColor=#333333;strokeWidth=NaN;lucidId=rqJCgnRdxMBq;" parent="jOrHicvrorbe8Iknh3CX-1" vertex="1">
          <mxGeometry x="115" y="348" width="18" height="11" as="geometry" />
        </mxCell>
        <mxCell id="jOrHicvrorbe8Iknh3CX-48" value="" style="html=1;jettySize=18;whiteSpace=wrap;fontSize=13;strokeColor=#1071e5;strokeOpacity=100;strokeWidth=2;rounded=1;arcSize=12;edgeStyle=orthogonalEdgeStyle;startArrow=none;endArrow=none;exitX=-0.007;exitY=0.54;entryX=1;entryY=0.5;lucidId=iYICltOF_sVp;entryDx=0;entryDy=0;exitDx=0;exitDy=0;exitPerimeter=0;" parent="jOrHicvrorbe8Iknh3CX-1" source="jOrHicvrorbe8Iknh3CX-3" target="jOrHicvrorbe8Iknh3CX-47" edge="1">
          <mxGeometry width="100" height="100" relative="1" as="geometry">
            <Array as="points" />
            <mxPoint x="446.94000000000005" y="353.79999999999995" as="sourcePoint" />
            <mxPoint x="145" y="471" as="targetPoint" />
          </mxGeometry>
        </mxCell>
        <mxCell id="jOrHicvrorbe8Iknh3CX-49" value="&lt;div&gt;Limit switch sensor&lt;/div&gt;&lt;div&gt;&lt;font style=&quot;font-size: 14px;&quot;&gt;&lt;i&gt;(NC: normally Closed)&lt;/i&gt;&lt;/font&gt;&lt;br&gt;&lt;/div&gt;" style="html=1;overflow=block;blockSpacing=1;whiteSpace=wrap;fontSize=16.7;fontColor=#282c33;align=center;spacing=0;strokeColor=none;strokeOpacity=100;fillOpacity=100;rounded=1;absoluteArcSize=1;arcSize=9;fillColor=#ffffff;strokeWidth=1.5;lucidId=rgJCZE1M0kU5;" parent="jOrHicvrorbe8Iknh3CX-1" vertex="1">
          <mxGeometry x="79" y="361" width="163.5" height="26" as="geometry" />
        </mxCell>
        <mxCell id="jOrHicvrorbe8Iknh3CX-52" value="&lt;b&gt;&lt;font color=&quot;#007fff&quot;&gt;USB&lt;/font&gt;&lt;/b&gt;" style="text;html=1;align=center;verticalAlign=middle;whiteSpace=wrap;rounded=0;" parent="jOrHicvrorbe8Iknh3CX-1" vertex="1">
          <mxGeometry x="459" y="416.5" width="25" height="16" as="geometry" />
        </mxCell>
        <mxCell id="jOrHicvrorbe8Iknh3CX-53" value="&lt;font color=&quot;#007fff&quot;&gt;&lt;b&gt;GPIO&lt;/b&gt;&lt;/font&gt;" style="text;html=1;align=center;verticalAlign=middle;whiteSpace=wrap;rounded=0;" parent="jOrHicvrorbe8Iknh3CX-1" vertex="1">
          <mxGeometry x="578" y="417" width="25" height="16" as="geometry" />
        </mxCell>
        <mxCell id="jOrHicvrorbe8Iknh3CX-56" value="" style="html=1;jettySize=18;whiteSpace=wrap;fontSize=13;strokeColor=#1071e5;strokeOpacity=100;strokeWidth=7.5;rounded=1;arcSize=12;edgeStyle=orthogonalEdgeStyle;startArrow=none;endArrow=none;exitX=0;exitY=0.25;entryX=1;entryY=0.5;lucidId=l2ICC5.eeOom;entryDx=0;entryDy=0;exitDx=0;exitDy=0;" parent="jOrHicvrorbe8Iknh3CX-1" target="jOrHicvrorbe8Iknh3CX-6" edge="1">
          <mxGeometry width="100" height="100" relative="1" as="geometry">
            <Array as="points">
              <mxPoint x="430" y="284" />
            </Array>
            <mxPoint x="456" y="284.25" as="sourcePoint" />
            <mxPoint x="382" y="284" as="targetPoint" />
          </mxGeometry>
        </mxCell>
        <mxCell id="jOrHicvrorbe8Iknh3CX-57" value="&amp;nbsp;3&amp;nbsp;" style="text;html=1;resizable=0;labelBackgroundColor=default;align=center;verticalAlign=middle;fontStyle=1;fontColor=#333333;fontSize=13.3;" parent="jOrHicvrorbe8Iknh3CX-56" vertex="1">
          <mxGeometry relative="1" as="geometry">
            <mxPoint x="-6" as="offset" />
          </mxGeometry>
        </mxCell>
        <mxCell id="jOrHicvrorbe8Iknh3CX-58" value="&lt;div align=&quot;right&quot; style=&quot;font-size: 10px;&quot;&gt;&lt;font style=&quot;font-size: 10px;&quot;&gt;STEP&lt;br style=&quot;font-size: 10px;&quot;&gt;DIR&lt;br style=&quot;font-size: 10px;&quot;&gt;ENABLE &lt;/font&gt;&lt;/div&gt;" style="text;html=1;resizable=0;labelBackgroundColor=#E3FAE3;align=right;verticalAlign=middle;fontStyle=0;fontColor=#333333;fontSize=10;" parent="jOrHicvrorbe8Iknh3CX-1" vertex="1">
          <mxGeometry x="407.99750426910873" y="282.99708428188603" as="geometry" />
        </mxCell>
        <mxCell id="jOrHicvrorbe8Iknh3CX-62" value="" style="html=1;jettySize=18;whiteSpace=wrap;fontSize=13;strokeColor=#e81313;strokeOpacity=100;strokeWidth=1;rounded=1;arcSize=12;edgeStyle=orthogonalEdgeStyle;startArrow=none;endArrow=none;exitX=0.5;exitY=1;entryX=1.004;entryY=0.159;lucidId=KZICtbnfuQ17;exitDx=0;exitDy=0;entryDx=0;entryDy=0;entryPerimeter=0;" parent="jOrHicvrorbe8Iknh3CX-1" source="jOrHicvrorbe8Iknh3CX-3" target="jOrHicvrorbe8Iknh3CX-34" edge="1">
          <mxGeometry width="100" height="100" relative="1" as="geometry">
            <Array as="points">
              <mxPoint x="562" y="501" />
            </Array>
            <mxPoint x="466" y="341" as="sourcePoint" />
            <mxPoint x="363" y="330" as="targetPoint" />
          </mxGeometry>
        </mxCell>
        <mxCell id="jOrHicvrorbe8Iknh3CX-63" value="" style="html=1;jettySize=18;whiteSpace=wrap;fontSize=13;strokeColor=#e81313;strokeOpacity=100;strokeWidth=4;rounded=1;arcSize=12;edgeStyle=orthogonalEdgeStyle;startArrow=none;endArrow=none;exitX=-0.027;exitY=0.333;entryX=0.25;entryY=0;lucidId=ZXICT_i-C1am;exitDx=0;exitDy=0;entryDx=0;entryDy=0;exitPerimeter=0;" parent="jOrHicvrorbe8Iknh3CX-1" source="jOrHicvrorbe8Iknh3CX-6" target="jOrHicvrorbe8Iknh3CX-4" edge="1">
          <mxGeometry width="100" height="100" relative="1" as="geometry">
            <Array as="points" />
            <mxPoint x="366" y="177" as="sourcePoint" />
            <mxPoint x="366" y="257" as="targetPoint" />
          </mxGeometry>
        </mxCell>
        <mxCell id="jOrHicvrorbe8Iknh3CX-64" value="" style="html=1;jettySize=18;whiteSpace=wrap;fontSize=13;strokeColor=#e81313;strokeOpacity=100;strokeWidth=3;rounded=1;arcSize=12;edgeStyle=orthogonalEdgeStyle;startArrow=none;endArrow=none;exitX=0.008;exitY=0.387;entryX=0.25;entryY=0;lucidId=ZXICT_i-C1am;exitDx=0;exitDy=0;entryDx=0;entryDy=0;exitPerimeter=0;" parent="jOrHicvrorbe8Iknh3CX-1" source="jOrHicvrorbe8Iknh3CX-34" target="jOrHicvrorbe8Iknh3CX-42" edge="1">
          <mxGeometry width="100" height="100" relative="1" as="geometry">
            <Array as="points" />
            <mxPoint x="297" y="509.75" as="sourcePoint" />
            <mxPoint x="148" y="508.75" as="targetPoint" />
          </mxGeometry>
        </mxCell>
        <mxCell id="OcEgfSWNlgHCn7JUU3er-0" value="" style="shape=image;verticalLabelPosition=bottom;labelBackgroundColor=default;verticalAlign=top;aspect=fixed;imageAspect=0;image=https://www.kynetics.com/wp-content/uploads/2021/08/RPi-Logo-Stacked-Reg-SCREEN.png;" parent="jOrHicvrorbe8Iknh3CX-1" vertex="1">
          <mxGeometry x="521" y="272" width="80.29" height="80" as="geometry" />
        </mxCell>
        <mxCell id="OcEgfSWNlgHCn7JUU3er-3" value="&lt;font color=&quot;#007fff&quot;&gt;&lt;b&gt;GPIO&lt;/b&gt;&lt;/font&gt;" style="text;html=1;align=center;verticalAlign=middle;whiteSpace=wrap;rounded=0;" parent="jOrHicvrorbe8Iknh3CX-1" vertex="1">
          <mxGeometry x="464.25" y="277" width="25" height="16" as="geometry" />
        </mxCell>
        <mxCell id="OcEgfSWNlgHCn7JUU3er-4" value="&lt;font color=&quot;#007fff&quot;&gt;&lt;b&gt;GPIO&lt;/b&gt;&lt;/font&gt;" style="text;html=1;align=center;verticalAlign=middle;whiteSpace=wrap;rounded=0;" parent="jOrHicvrorbe8Iknh3CX-1" vertex="1">
          <mxGeometry x="464.25" y="345.5" width="25" height="16" as="geometry" />
        </mxCell>
      </root>
    </mxGraphModel>
  </diagram>
  <diagram id="GZTQaLwNj66MjFeLVsj8" name="PBS-RPi">
    <mxGraphModel dx="1434" dy="766" grid="0" gridSize="10" guides="1" tooltips="1" connect="1" arrows="1" fold="1" page="1" pageScale="1" pageWidth="827" pageHeight="1169" math="0" shadow="0">
      <root>
        <mxCell id="0" />
        <mxCell id="1" parent="0" />
        <mxCell id="UHIFCZ9A_E46CZrV6PBX-1" value="Rotor magnetic field&#xa;measurement bench" style="html=1;overflow=block;blockSpacing=1;whiteSpace=wrap;fontSize=17;fontStyle=1;align=center;spacing=9;strokeColor=#1071e5;strokeOpacity=100;fillOpacity=100;rounded=1;absoluteArcSize=1;arcSize=9;fillColor=#edf5ff;strokeWidth=2.3;lucidId=op2DlNhiaoXF;shadow=1;" vertex="1" parent="1">
          <mxGeometry x="408" y="128" width="206" height="97" as="geometry" />
        </mxCell>
        <mxCell id="UHIFCZ9A_E46CZrV6PBX-2" value="&lt;div style=&quot;display: flex; justify-content: center; text-align: center; align-items: baseline; font-size: 16px; line-height: 1.25; margin-top: -2px;&quot;&gt;&lt;span style=&quot;&quot;&gt;&lt;span style=&quot;color: rgb(51, 51, 51); font-weight: bold;&quot;&gt;Arbre Produit&lt;/span&gt;&lt;span style=&quot;font-size: 14px; color: rgb(51, 51, 51); font-weight: bold;&quot;&gt;&lt;br&gt;&lt;/span&gt;&lt;/span&gt;&lt;/div&gt;&lt;div style=&quot;display: flex; justify-content: center; text-align: center; align-items: baseline; font-size: 14px; line-height: 1.25; margin-top: -2px;&quot;&gt;&lt;span style=&quot;font-size: 14px;&quot;&gt;&lt;span style=&quot;font-size: 14px; color: rgb(51, 51, 51);&quot;&gt;&lt;span style=&quot;font-size: 14px; color: rgb(51, 51, 51);&quot;&gt;(PBS: Product Breakdown Structure)&lt;/span&gt;&lt;/span&gt;&lt;/span&gt;&lt;/div&gt;" style="html=1;overflow=block;blockSpacing=1;whiteSpace=wrap;fontSize=14;spacing=3.8;strokeOpacity=0;fillOpacity=0;rounded=1;absoluteArcSize=1;arcSize=9;fillColor=#ffffff;strokeWidth=2.3;lucidId=op2DOxUPKWHS;" vertex="1" parent="1">
          <mxGeometry x="387" y="70" width="236" height="47" as="geometry" />
        </mxCell>
        <mxCell id="UHIFCZ9A_E46CZrV6PBX-3" style="edgeStyle=orthogonalEdgeStyle;rounded=1;orthogonalLoop=1;jettySize=auto;html=1;exitX=0.25;exitY=1;exitDx=0;exitDy=0;entryX=0;entryY=0.5;entryDx=0;entryDy=0;curved=0;strokeWidth=1.5;strokeColor=#5E5E5E;" edge="1" parent="1" source="UHIFCZ9A_E46CZrV6PBX-7" target="UHIFCZ9A_E46CZrV6PBX-29">
          <mxGeometry relative="1" as="geometry" />
        </mxCell>
        <mxCell id="UHIFCZ9A_E46CZrV6PBX-4" style="edgeStyle=orthogonalEdgeStyle;rounded=1;orthogonalLoop=1;jettySize=auto;html=1;exitX=0.25;exitY=1;exitDx=0;exitDy=0;entryX=0;entryY=0.5;entryDx=0;entryDy=0;curved=0;strokeColor=#5E5E5E;strokeWidth=1.5;" edge="1" parent="1" source="UHIFCZ9A_E46CZrV6PBX-7" target="UHIFCZ9A_E46CZrV6PBX-30">
          <mxGeometry relative="1" as="geometry" />
        </mxCell>
        <mxCell id="UHIFCZ9A_E46CZrV6PBX-5" style="edgeStyle=orthogonalEdgeStyle;rounded=1;orthogonalLoop=1;jettySize=auto;html=1;exitX=0.25;exitY=1;exitDx=0;exitDy=0;entryX=0;entryY=0.5;entryDx=0;entryDy=0;curved=0;strokeWidth=1.5;strokeColor=#5E5E5E;" edge="1" parent="1" source="UHIFCZ9A_E46CZrV6PBX-7" target="UHIFCZ9A_E46CZrV6PBX-31">
          <mxGeometry relative="1" as="geometry" />
        </mxCell>
        <mxCell id="UHIFCZ9A_E46CZrV6PBX-6" style="edgeStyle=orthogonalEdgeStyle;rounded=1;orthogonalLoop=1;jettySize=auto;html=1;exitX=0.25;exitY=1;exitDx=0;exitDy=0;entryX=0;entryY=0.5;entryDx=0;entryDy=0;curved=0;strokeWidth=1.5;strokeColor=#666666;" edge="1" parent="1" source="UHIFCZ9A_E46CZrV6PBX-7">
          <mxGeometry relative="1" as="geometry">
            <mxPoint x="149" y="663.25" as="targetPoint" />
            <Array as="points">
              <mxPoint x="125" y="663" />
            </Array>
          </mxGeometry>
        </mxCell>
        <mxCell id="UHIFCZ9A_E46CZrV6PBX-7" value="&lt;div style=&quot;display: flex; justify-content: center; text-align: center; align-items: baseline; font-size: 14px; line-height: 1.25; margin-top: -2px;&quot;&gt;&lt;span style=&quot;font-size: 14px;&quot;&gt;&lt;span style=&quot;font-size: 14px; color: rgb(51, 51, 51);&quot;&gt;1000&lt;br&gt;&lt;/span&gt;&lt;/span&gt;&lt;/div&gt;&lt;div style=&quot;display: flex; justify-content: center; text-align: center; align-items: baseline; font-size: 14px; line-height: 1.25; margin-top: -2px;&quot;&gt;&lt;span style=&quot;font-size: 14px;&quot;&gt;&lt;span style=&quot;font-size: 14px; color: rgb(51, 51, 51);&quot;&gt;Mechanical Structure&lt;/span&gt;&lt;/span&gt;&lt;/div&gt;" style="html=1;overflow=block;blockSpacing=1;whiteSpace=wrap;fontSize=14;spacing=9;strokeColor=#0D5CBA;strokeOpacity=100;fillOpacity=100;rounded=1;absoluteArcSize=1;arcSize=9;fillColor=#edf5ff;strokeWidth=2.3;lucidId=op2DeZ.cYt9W;" vertex="1" parent="1">
          <mxGeometry x="100" y="300" width="99" height="68" as="geometry" />
        </mxCell>
        <mxCell id="UHIFCZ9A_E46CZrV6PBX-8" value="&lt;div style=&quot;display: flex; justify-content: center; text-align: center; align-items: baseline; font-size: 14px; line-height: 1.25; margin-top: -2px;&quot;&gt;&lt;span style=&quot;font-size: 14px;&quot;&gt;&lt;span style=&quot;font-size: 14px; color: rgb(51, 51, 51);&quot;&gt;2000&#xa;&lt;/span&gt;&lt;/span&gt;&lt;/div&gt;&lt;div style=&quot;display: flex; justify-content: center; text-align: center; align-items: baseline; font-size: 14px; line-height: 1.25; margin-top: -2px;&quot;&gt;&lt;span style=&quot;font-size: 14px;&quot;&gt;&lt;span style=&quot;font-size: 14px; color: rgb(51, 51, 51);&quot;&gt;Actuators&lt;/span&gt;&lt;/span&gt;&lt;/div&gt;" style="html=1;overflow=block;blockSpacing=1;whiteSpace=wrap;fontSize=14;spacing=9;strokeColor=#0D5CBA;strokeOpacity=100;fillOpacity=100;rounded=1;absoluteArcSize=1;arcSize=9;fillColor=#edf5ff;strokeWidth=2.3;lucidId=op2DIdq_~rvC;" vertex="1" parent="1">
          <mxGeometry x="256" y="303" width="102" height="67" as="geometry" />
        </mxCell>
        <mxCell id="UHIFCZ9A_E46CZrV6PBX-9" style="edgeStyle=orthogonalEdgeStyle;rounded=1;orthogonalLoop=1;jettySize=auto;html=1;exitX=0.258;exitY=0.976;exitDx=0;exitDy=0;entryX=0;entryY=0.5;entryDx=0;entryDy=0;strokeWidth=1.5;strokeColor=#5E5E5E;exitPerimeter=0;" edge="1" parent="1" source="UHIFCZ9A_E46CZrV6PBX-11" target="UHIFCZ9A_E46CZrV6PBX-25">
          <mxGeometry relative="1" as="geometry">
            <Array as="points">
              <mxPoint x="420" y="371" />
              <mxPoint x="419" y="371" />
              <mxPoint x="419" y="430" />
            </Array>
          </mxGeometry>
        </mxCell>
        <mxCell id="UHIFCZ9A_E46CZrV6PBX-10" style="edgeStyle=orthogonalEdgeStyle;rounded=1;orthogonalLoop=1;jettySize=auto;html=1;exitX=0.25;exitY=1;exitDx=0;exitDy=0;entryX=0;entryY=0.5;entryDx=0;entryDy=0;strokeWidth=1.5;curved=0;strokeColor=#666666;" edge="1" parent="1" source="UHIFCZ9A_E46CZrV6PBX-11" target="UHIFCZ9A_E46CZrV6PBX-51">
          <mxGeometry relative="1" as="geometry" />
        </mxCell>
        <mxCell id="UHIFCZ9A_E46CZrV6PBX-11" value="&lt;div style=&quot;display: flex; justify-content: center; text-align: center; align-items: baseline; font-size: 14px; line-height: 1.25; margin-top: -2px;&quot;&gt;&lt;span style=&quot;font-size: 14px;&quot;&gt;&lt;span style=&quot;font-size: 14px; color: rgb(51, 51, 51);&quot;&gt;3000&#xa;&lt;/span&gt;&lt;/span&gt;&lt;/div&gt;&lt;div style=&quot;display: flex; justify-content: center; text-align: center; align-items: baseline; font-size: 14px; line-height: 1.25; margin-top: -2px;&quot;&gt;&lt;span style=&quot;font-size: 14px;&quot;&gt;&lt;span style=&quot;font-size: 14px; color: rgb(51, 51, 51);&quot;&gt;Sensors&lt;/span&gt;&lt;/span&gt;&lt;/div&gt;" style="html=1;overflow=block;blockSpacing=1;whiteSpace=wrap;fontSize=14;spacing=9;strokeColor=#0D5CBA;strokeOpacity=100;fillOpacity=100;rounded=1;absoluteArcSize=1;arcSize=9;fillColor=#edf5ff;strokeWidth=2.3;lucidId=op2DrcHy-5GN;" vertex="1" parent="1">
          <mxGeometry x="397" y="303" width="88" height="68" as="geometry" />
        </mxCell>
        <mxCell id="UHIFCZ9A_E46CZrV6PBX-12" style="edgeStyle=orthogonalEdgeStyle;rounded=1;orthogonalLoop=1;jettySize=auto;html=1;exitX=0.25;exitY=1;exitDx=0;exitDy=0;entryX=0;entryY=0.5;entryDx=0;entryDy=0;curved=0;strokeWidth=1.5;strokeColor=#666666;" edge="1" parent="1" source="UHIFCZ9A_E46CZrV6PBX-14" target="UHIFCZ9A_E46CZrV6PBX-26">
          <mxGeometry relative="1" as="geometry">
            <Array as="points">
              <mxPoint x="560" y="395" />
              <mxPoint x="560" y="421" />
            </Array>
          </mxGeometry>
        </mxCell>
        <mxCell id="UHIFCZ9A_E46CZrV6PBX-13" style="edgeStyle=orthogonalEdgeStyle;rounded=1;orthogonalLoop=1;jettySize=auto;html=1;exitX=0.25;exitY=1;exitDx=0;exitDy=0;entryX=0;entryY=0.5;entryDx=0;entryDy=0;curved=0;strokeColor=#666666;strokeWidth=1.5;" edge="1" parent="1" source="UHIFCZ9A_E46CZrV6PBX-14" target="UHIFCZ9A_E46CZrV6PBX-52">
          <mxGeometry relative="1" as="geometry">
            <Array as="points">
              <mxPoint x="561" y="370" />
              <mxPoint x="561" y="488" />
            </Array>
          </mxGeometry>
        </mxCell>
        <mxCell id="UHIFCZ9A_E46CZrV6PBX-14" value="&lt;div style=&quot;display: flex; justify-content: center; text-align: center; align-items: baseline; font-size: 14px; line-height: 1.25; margin-top: -2px;&quot;&gt;&lt;span style=&quot;font-size: 14px;&quot;&gt;&lt;span style=&quot;font-size: 14px; color: rgb(51, 51, 51);&quot;&gt;4000&#xa;&lt;/span&gt;&lt;/span&gt;&lt;/div&gt;&lt;div style=&quot;display: flex; justify-content: center; text-align: center; align-items: baseline; font-size: 14px; line-height: 1.25; margin-top: -2px;&quot;&gt;&lt;span style=&quot;font-size: 14px;&quot;&gt;&lt;span style=&quot;font-size: 14px; color: rgb(51, 51, 51);&quot;&gt;Power Supply&lt;/span&gt;&lt;/span&gt;&lt;/div&gt;" style="html=1;overflow=block;blockSpacing=1;whiteSpace=wrap;fontSize=14;spacing=9;strokeColor=#0D5CBA;strokeOpacity=100;fillOpacity=100;rounded=1;absoluteArcSize=1;arcSize=9;fillColor=#edf5ff;strokeWidth=2.3;lucidId=op2DH3rtzFCJ;" vertex="1" parent="1">
          <mxGeometry x="536" y="303" width="97" height="67" as="geometry" />
        </mxCell>
        <mxCell id="UHIFCZ9A_E46CZrV6PBX-15" style="edgeStyle=orthogonalEdgeStyle;rounded=1;orthogonalLoop=1;jettySize=auto;html=1;exitX=0.25;exitY=1;exitDx=0;exitDy=0;entryX=0;entryY=0.5;entryDx=0;entryDy=0;strokeColor=#666666;curved=0;strokeWidth=1.5;" edge="1" parent="1" source="UHIFCZ9A_E46CZrV6PBX-17" target="UHIFCZ9A_E46CZrV6PBX-47">
          <mxGeometry relative="1" as="geometry" />
        </mxCell>
        <mxCell id="UHIFCZ9A_E46CZrV6PBX-17" value="&lt;div style=&quot;display: flex; justify-content: center; text-align: center; align-items: baseline; font-size: 14px; line-height: 1.25; margin-top: -2px;&quot;&gt;&lt;span style=&quot;font-size: 14px;&quot;&gt;&lt;span style=&quot;font-size: 14px; color: rgb(51, 51, 51);&quot;&gt;5000&#xa;&lt;/span&gt;&lt;/span&gt;&lt;/div&gt;&lt;div style=&quot;display: flex; justify-content: center; text-align: center; align-items: baseline; font-size: 14px; line-height: 1.25; margin-top: -2px;&quot;&gt;&lt;span style=&quot;font-size: 14px;&quot;&gt;&lt;span style=&quot;font-size: 14px; color: rgb(51, 51, 51);&quot;&gt;Computing System&lt;/span&gt;&lt;/span&gt;&lt;/div&gt;" style="html=1;overflow=block;blockSpacing=1;whiteSpace=wrap;fontSize=14;spacing=9;strokeColor=#0D5CBA;strokeOpacity=100;fillOpacity=100;rounded=1;absoluteArcSize=1;arcSize=9;fillColor=#edf5ff;strokeWidth=2.3;lucidId=op2DZ983SHyo;" vertex="1" parent="1">
          <mxGeometry x="689" y="303" width="92" height="70" as="geometry" />
        </mxCell>
        <mxCell id="UHIFCZ9A_E46CZrV6PBX-18" value="" style="html=1;jettySize=18;whiteSpace=wrap;fontSize=14;strokeColor=#5E5E5E;strokeWidth=1.5;rounded=1;arcSize=12;edgeStyle=orthogonalEdgeStyle;startArrow=none;endArrow=block;endFill=1;exitX=0.5;exitY=1.011;exitPerimeter=0;entryX=0.5;entryY=-0.012;entryPerimeter=0;lucidId=op2D4Qm-s5.9;" edge="1" parent="1" source="UHIFCZ9A_E46CZrV6PBX-1" target="UHIFCZ9A_E46CZrV6PBX-7">
          <mxGeometry width="100" height="100" relative="1" as="geometry">
            <Array as="points">
              <mxPoint x="512" y="226" />
              <mxPoint x="512" y="264" />
              <mxPoint x="149" y="264" />
              <mxPoint x="149" y="299" />
            </Array>
          </mxGeometry>
        </mxCell>
        <mxCell id="UHIFCZ9A_E46CZrV6PBX-19" value="" style="html=1;jettySize=18;whiteSpace=wrap;fontSize=14;strokeColor=#5E5E5E;strokeWidth=1.5;rounded=1;arcSize=12;edgeStyle=orthogonalEdgeStyle;startArrow=none;endArrow=block;endFill=1;exitX=0.5;exitY=1.011;exitPerimeter=0;entryX=0.5;entryY=-0.012;entryPerimeter=0;lucidId=op2DSndrqWX7;" edge="1" parent="1" source="UHIFCZ9A_E46CZrV6PBX-1" target="UHIFCZ9A_E46CZrV6PBX-8">
          <mxGeometry width="100" height="100" relative="1" as="geometry">
            <Array as="points">
              <mxPoint x="511" y="264" />
              <mxPoint x="307" y="264" />
            </Array>
          </mxGeometry>
        </mxCell>
        <mxCell id="UHIFCZ9A_E46CZrV6PBX-20" value="" style="html=1;jettySize=18;whiteSpace=wrap;fontSize=14;strokeColor=#5E5E5E;strokeWidth=1.5;rounded=1;arcSize=12;edgeStyle=orthogonalEdgeStyle;startArrow=none;endArrow=block;endFill=1;exitX=0.5;exitY=1.011;exitPerimeter=0;entryX=0.5;entryY=-0.012;entryPerimeter=0;lucidId=op2DwWMJoZg.;" edge="1" parent="1" source="UHIFCZ9A_E46CZrV6PBX-1" target="UHIFCZ9A_E46CZrV6PBX-11">
          <mxGeometry width="100" height="100" relative="1" as="geometry">
            <Array as="points">
              <mxPoint x="511" y="264" />
              <mxPoint x="441" y="264" />
            </Array>
          </mxGeometry>
        </mxCell>
        <mxCell id="UHIFCZ9A_E46CZrV6PBX-21" value="" style="html=1;jettySize=18;whiteSpace=wrap;fontSize=14;strokeColor=#5E5E5E;strokeWidth=1.5;rounded=1;arcSize=12;edgeStyle=orthogonalEdgeStyle;startArrow=none;endArrow=block;endFill=1;exitX=0.5;exitY=1.011;exitPerimeter=0;entryX=0.5;entryY=-0.012;entryPerimeter=0;lucidId=op2DVnM9Jc29;" edge="1" parent="1" source="UHIFCZ9A_E46CZrV6PBX-1" target="UHIFCZ9A_E46CZrV6PBX-14">
          <mxGeometry width="100" height="100" relative="1" as="geometry">
            <Array as="points">
              <mxPoint x="511" y="264" />
              <mxPoint x="585" y="264" />
              <mxPoint x="585" y="302" />
            </Array>
          </mxGeometry>
        </mxCell>
        <mxCell id="UHIFCZ9A_E46CZrV6PBX-22" value="" style="html=1;jettySize=18;whiteSpace=wrap;fontSize=14;strokeColor=#5E5E5E;strokeWidth=1.5;rounded=1;arcSize=12;edgeStyle=orthogonalEdgeStyle;startArrow=none;endArrow=block;endFill=1;exitX=0.5;exitY=1.011;exitPerimeter=0;entryX=0.5;entryY=-0.012;entryPerimeter=0;lucidId=op2DF9aEdJrC;" edge="1" parent="1" source="UHIFCZ9A_E46CZrV6PBX-1" target="UHIFCZ9A_E46CZrV6PBX-17">
          <mxGeometry width="100" height="100" relative="1" as="geometry">
            <Array as="points">
              <mxPoint x="511" y="264" />
              <mxPoint x="736" y="264" />
              <mxPoint x="736" y="302" />
            </Array>
          </mxGeometry>
        </mxCell>
        <mxCell id="UHIFCZ9A_E46CZrV6PBX-23" value="&lt;div style=&quot;display: flex; justify-content: center; text-align: center; align-items: baseline; font-size: 14px; line-height: 1.25; margin-top: -2px;&quot;&gt;&lt;span style=&quot;font-size: 14px;&quot;&gt;&lt;span style=&quot;font-size: 14px; color: rgb(51, 51, 51);&quot;&gt;2100&lt;br&gt;&lt;/span&gt;&lt;/span&gt;&lt;/div&gt;&lt;div style=&quot;display: flex; justify-content: center; text-align: center; align-items: baseline; font-size: 14px; line-height: 1.25; margin-top: -2px;&quot;&gt;&lt;span style=&quot;font-size: 14px;&quot;&gt;&lt;span style=&quot;font-size: 14px; color: rgb(51, 51, 51);&quot;&gt;Chuck Stepper Motor&lt;/span&gt;&lt;/span&gt;&lt;/div&gt;" style="html=1;overflow=block;blockSpacing=1;whiteSpace=wrap;fontSize=14;spacing=9;strokeColor=#0D5CBA;strokeOpacity=100;fillOpacity=100;rounded=1;absoluteArcSize=1;arcSize=9;fillColor=#edf5ff;strokeWidth=2.3;lucidId=op2DPShWuuZC;" vertex="1" parent="1">
          <mxGeometry x="294" y="398" width="111" height="60" as="geometry" />
        </mxCell>
        <mxCell id="UHIFCZ9A_E46CZrV6PBX-24" value="" style="html=1;jettySize=18;whiteSpace=wrap;fontSize=14;strokeColor=#666666;strokeWidth=1.5;rounded=1;arcSize=12;edgeStyle=orthogonalEdgeStyle;startArrow=none;endArrow=block;endFill=1;exitX=0.211;exitY=0.992;lucidId=op2D_loqMMDQ;exitDx=0;exitDy=0;exitPerimeter=0;" edge="1" parent="1" source="UHIFCZ9A_E46CZrV6PBX-8">
          <mxGeometry width="100" height="100" relative="1" as="geometry">
            <Array as="points">
              <mxPoint x="278" y="439" />
            </Array>
            <mxPoint x="246.25200000000007" y="370.804" as="sourcePoint" />
            <mxPoint x="294" y="439" as="targetPoint" />
          </mxGeometry>
        </mxCell>
        <mxCell id="UHIFCZ9A_E46CZrV6PBX-25" value="&lt;div style=&quot;display: flex; justify-content: center; text-align: center; align-items: baseline; font-size: 14px; line-height: 1.25; margin-top: -2px;&quot;&gt;&lt;span style=&quot;font-size: 14px;&quot;&gt;&lt;span style=&quot;font-size: 14px; color: rgb(51, 51, 51);&quot;&gt;3100&#xa;&lt;/span&gt;&lt;/span&gt;&lt;/div&gt;&lt;div style=&quot;display: flex; justify-content: center; text-align: center; align-items: baseline; font-size: 14px; line-height: 1.25; margin-top: -2px;&quot;&gt;&lt;span style=&quot;font-size: 14px;&quot;&gt;&lt;span style=&quot;font-size: 14px; color: rgb(51, 51, 51);&quot;&gt;Magnetic field sensor&lt;/span&gt;&lt;/span&gt;&lt;/div&gt;" style="html=1;overflow=block;blockSpacing=1;whiteSpace=wrap;fontSize=14;spacing=9;strokeColor=#0D5CBA;strokeOpacity=100;fillOpacity=100;rounded=1;absoluteArcSize=1;arcSize=9;fillColor=#edf5ff;strokeWidth=2.3;lucidId=op2D3rJPvKz7;" vertex="1" parent="1">
          <mxGeometry x="439" y="398" width="97" height="64" as="geometry" />
        </mxCell>
        <mxCell id="UHIFCZ9A_E46CZrV6PBX-26" value="&lt;div style=&quot;display: flex; justify-content: center; text-align: center; align-items: baseline; font-size: 14px; line-height: 1.25; margin-top: -2px;&quot;&gt;&lt;span style=&quot;font-size: 14px;&quot;&gt;&lt;span style=&quot;font-size: 14px; color: rgb(51, 51, 51);&quot;&gt;4100&lt;br&gt;&lt;/span&gt;&lt;/span&gt;&lt;/div&gt;&lt;div style=&quot;display: flex; justify-content: center; text-align: center; align-items: baseline; font-size: 14px; line-height: 1.25; margin-top: -2px;&quot;&gt;&lt;span style=&quot;font-size: 14px;&quot;&gt;&lt;span style=&quot;font-size: 14px; color: rgb(51, 51, 51);&quot;&gt;Chuck Stepper &lt;br&gt;&lt;/span&gt;&lt;/span&gt;&lt;/div&gt;" style="html=1;overflow=block;blockSpacing=1;whiteSpace=wrap;fontSize=14;spacing=9;strokeColor=#0D5CBA;strokeOpacity=100;fillOpacity=100;rounded=1;absoluteArcSize=1;arcSize=9;fillColor=#edf5ff;strokeWidth=2.3;lucidId=op2DEWVl0N-0;" vertex="1" parent="1">
          <mxGeometry x="579" y="398" width="112" height="45" as="geometry" />
        </mxCell>
        <mxCell id="UHIFCZ9A_E46CZrV6PBX-27" value="&lt;div style=&quot;display: flex; justify-content: center; text-align: center; align-items: baseline; font-size: 14px; line-height: 1.25; margin-top: -2px;&quot;&gt;&lt;span style=&quot;font-size: 14px;&quot;&gt;&lt;span style=&quot;font-size: 14px; color: rgb(51, 51, 51);&quot;&gt;4300&lt;br&gt;&lt;/span&gt;&lt;/span&gt;&lt;/div&gt;&lt;div style=&quot;display: flex; justify-content: center; text-align: center; align-items: baseline; font-size: 14px; line-height: 1.25; margin-top: -2px;&quot;&gt;&lt;span style=&quot;font-size: 14px;&quot;&gt;&lt;span style=&quot;font-size: 14px; color: rgb(51, 51, 51);&quot;&gt;RPI4 power&lt;br&gt;&lt;/span&gt;&lt;/span&gt;&lt;/div&gt;" style="html=1;overflow=block;blockSpacing=1;whiteSpace=wrap;fontSize=14;spacing=9;strokeColor=#0D5CBA;strokeOpacity=100;fillOpacity=100;rounded=1;absoluteArcSize=1;arcSize=9;fillColor=#edf5ff;strokeWidth=2.3;lucidId=op2DUKm2hryK;" vertex="1" parent="1">
          <mxGeometry x="578" y="519" width="110" height="47" as="geometry" />
        </mxCell>
        <mxCell id="UHIFCZ9A_E46CZrV6PBX-28" value="" style="html=1;jettySize=18;whiteSpace=wrap;fontSize=14;strokeColor=#5E5E5E;strokeWidth=1.5;rounded=1;arcSize=12;edgeStyle=orthogonalEdgeStyle;startArrow=none;endArrow=block;endFill=1;exitX=0.25;exitY=1;entryX=-0.006;entryY=0.5;entryPerimeter=0;lucidId=op2D~V.C5mhO;exitDx=0;exitDy=0;" edge="1" parent="1" source="UHIFCZ9A_E46CZrV6PBX-14" target="UHIFCZ9A_E46CZrV6PBX-27">
          <mxGeometry width="100" height="100" relative="1" as="geometry">
            <Array as="points">
              <mxPoint x="560" y="451" />
              <mxPoint x="560" y="543" />
            </Array>
          </mxGeometry>
        </mxCell>
        <mxCell id="UHIFCZ9A_E46CZrV6PBX-29" value="&lt;div style=&quot;display: flex; justify-content: center; text-align: center; align-items: baseline; font-size: 14px; line-height: 1.25; margin-top: -2px;&quot;&gt;&lt;span style=&quot;font-size: 14px;&quot;&gt;&lt;span style=&quot;font-size: 14px; color: rgb(51, 51, 51);&quot;&gt;1100&#xa;&lt;/span&gt;&lt;/span&gt;&lt;/div&gt;&lt;div style=&quot;display: flex; justify-content: center; text-align: center; align-items: baseline; font-size: 14px; line-height: 1.25; margin-top: -2px;&quot;&gt;&lt;span style=&quot;font-size: 14px;&quot;&gt;&lt;span style=&quot;font-size: 14px; color: rgb(51, 51, 51);&quot;&gt;Work Bench&lt;/span&gt;&lt;/span&gt;&lt;/div&gt;" style="html=1;overflow=block;blockSpacing=1;whiteSpace=wrap;fontSize=14;spacing=9;strokeColor=#0D5CBA;strokeOpacity=100;fillOpacity=100;rounded=1;absoluteArcSize=1;arcSize=9;fillColor=#edf5ff;strokeWidth=2.3;lucidId=op2DwUtpFRGd;" vertex="1" parent="1">
          <mxGeometry x="149" y="398" width="103" height="58" as="geometry" />
        </mxCell>
        <mxCell id="UHIFCZ9A_E46CZrV6PBX-30" value="&lt;div style=&quot;display: flex; justify-content: center; text-align: center; align-items: baseline; font-size: 14px; line-height: 1.25; margin-top: -2px;&quot;&gt;&lt;span style=&quot;font-size: 14px;&quot;&gt;&lt;span style=&quot;font-size: 14px; color: rgb(51, 51, 51);&quot;&gt;1200&lt;br&gt;&lt;/span&gt;&lt;/span&gt;&lt;/div&gt;&lt;div style=&quot;display: flex; justify-content: center; text-align: center; align-items: baseline; font-size: 14px; line-height: 1.25; margin-top: -2px;&quot;&gt;&lt;span style=&quot;font-size: 14px;&quot;&gt;&lt;span style=&quot;font-size: 14px; color: rgb(51, 51, 51);&quot;&gt;Motorized Chuck Block&lt;/span&gt;&lt;/span&gt;&lt;/div&gt;" style="html=1;overflow=block;blockSpacing=1;whiteSpace=wrap;fontSize=14;spacing=9;strokeColor=#0D5CBA;strokeOpacity=100;fillOpacity=100;rounded=1;absoluteArcSize=1;arcSize=9;fillColor=#edf5ff;strokeWidth=2.3;lucidId=op2D1d5.EJ8E;" vertex="1" parent="1">
          <mxGeometry x="149" y="470" width="104" height="66" as="geometry" />
        </mxCell>
        <mxCell id="UHIFCZ9A_E46CZrV6PBX-31" value="&lt;div style=&quot;display: flex; justify-content: center; text-align: center; align-items: baseline; font-size: 14px; line-height: 1.25; margin-top: -2px;&quot;&gt;&lt;span style=&quot;font-size: 14px;&quot;&gt;&lt;span style=&quot;font-size: 14px; color: rgb(51, 51, 51);&quot;&gt;1300&lt;br&gt;&lt;/span&gt;&lt;/span&gt;&lt;/div&gt;&lt;div style=&quot;display: flex; justify-content: center; text-align: center; align-items: baseline; font-size: 14px; line-height: 1.25; margin-top: -2px;&quot;&gt;&lt;span style=&quot;font-size: 14px;&quot;&gt;&lt;span style=&quot;font-size: 14px; color: rgb(51, 51, 51);&quot;&gt;TailStock Block&lt;/span&gt;&lt;/span&gt;&lt;/div&gt;" style="html=1;overflow=block;blockSpacing=1;whiteSpace=wrap;fontSize=14;spacing=9;strokeColor=#0D5CBA;strokeOpacity=100;fillOpacity=100;rounded=1;absoluteArcSize=1;arcSize=9;fillColor=#edf5ff;strokeWidth=2.3;lucidId=op2DaYbvGgqG;" vertex="1" parent="1">
          <mxGeometry x="149" y="548" width="106" height="64.5" as="geometry" />
        </mxCell>
        <mxCell id="UHIFCZ9A_E46CZrV6PBX-32" value="&lt;div style=&quot;display: flex; justify-content: center; text-align: center; align-items: baseline; font-size: 14px; line-height: 1.25; margin-top: -2px;&quot;&gt;&lt;span style=&quot;font-size: 14px;&quot;&gt;&lt;span style=&quot;font-size: 14px; color: rgb(51, 51, 51);&quot;&gt;5100&lt;br&gt;&lt;/span&gt;&lt;/span&gt;&lt;/div&gt;&lt;div style=&quot;display: flex; justify-content: center; text-align: center; align-items: baseline; font-size: 14px; line-height: 1.25; margin-top: -2px;&quot;&gt;&lt;span style=&quot;font-size: 14px;&quot;&gt;&lt;span style=&quot;font-size: 14px; color: rgb(51, 51, 51);&quot;&gt;RPi4 card&lt;br&gt;&lt;/span&gt;&lt;/span&gt;&lt;/div&gt;" style="html=1;overflow=block;blockSpacing=1;whiteSpace=wrap;fontSize=14;spacing=9;strokeColor=#0D5CBA;strokeOpacity=100;fillOpacity=100;rounded=1;absoluteArcSize=1;arcSize=9;fillColor=#edf5ff;strokeWidth=2.3;lucidId=op2DwiNkQa2K;" vertex="1" parent="1">
          <mxGeometry x="738" y="395" width="111" height="61" as="geometry" />
        </mxCell>
        <mxCell id="UHIFCZ9A_E46CZrV6PBX-33" value="" style="html=1;jettySize=18;whiteSpace=wrap;fontSize=14;strokeColor=#5E5E5E;strokeWidth=1.5;rounded=1;arcSize=12;edgeStyle=orthogonalEdgeStyle;startArrow=none;endArrow=block;endFill=1;exitX=0.25;exitY=1;entryX=-0.008;entryY=0.5;entryPerimeter=0;lucidId=op2DSFLO5KK~;exitDx=0;exitDy=0;" edge="1" parent="1" source="UHIFCZ9A_E46CZrV6PBX-17" target="UHIFCZ9A_E46CZrV6PBX-32">
          <mxGeometry width="100" height="100" relative="1" as="geometry">
            <Array as="points" />
          </mxGeometry>
        </mxCell>
        <mxCell id="UHIFCZ9A_E46CZrV6PBX-34" value="&lt;div style=&quot;display: flex; justify-content: center; text-align: center; align-items: baseline; font-size: 14px; line-height: 1.25; margin-top: -2px;&quot;&gt;&lt;span style=&quot;font-size: 14px;&quot;&gt;&lt;span style=&quot;font-size: 14px; color: rgb(51, 51, 51);&quot;&gt;5200&lt;br&gt;&lt;/span&gt;&lt;/span&gt;&lt;/div&gt;&lt;div style=&quot;display: flex; justify-content: center; text-align: center; align-items: baseline; font-size: 14px; line-height: 1.25; margin-top: -2px;&quot;&gt;&lt;span style=&quot;font-size: 14px;&quot;&gt;&lt;span style=&quot;font-size: 14px; color: rgb(51, 51, 51);&quot;&gt;B6600 Stepper Motor Driver &lt;/span&gt;&lt;/span&gt;&lt;/div&gt;" style="html=1;overflow=block;blockSpacing=1;whiteSpace=wrap;fontSize=14;spacing=9;strokeColor=#0D5CBA;strokeOpacity=100;fillOpacity=100;rounded=1;absoluteArcSize=1;arcSize=9;fillColor=#edf5ff;strokeWidth=2.3;lucidId=QH2DF~hNH7CZ;" vertex="1" parent="1">
          <mxGeometry x="738" y="472" width="114" height="59" as="geometry" />
        </mxCell>
        <mxCell id="UHIFCZ9A_E46CZrV6PBX-35" value="" style="html=1;jettySize=18;whiteSpace=wrap;fontSize=14;strokeColor=#5E5E5E;strokeWidth=1.5;rounded=1;arcSize=12;edgeStyle=orthogonalEdgeStyle;startArrow=none;endArrow=block;endFill=1;exitX=0.25;exitY=1;entryX=-0.008;entryY=0.5;entryPerimeter=0;lucidId=vI2D_zl7JVAI;exitDx=0;exitDy=0;" edge="1" parent="1" source="UHIFCZ9A_E46CZrV6PBX-17" target="UHIFCZ9A_E46CZrV6PBX-34">
          <mxGeometry width="100" height="100" relative="1" as="geometry">
            <Array as="points" />
          </mxGeometry>
        </mxCell>
        <mxCell id="UHIFCZ9A_E46CZrV6PBX-38" value="&lt;div style=&quot;display: flex; justify-content: center; text-align: center; align-items: baseline; font-size: 14px; line-height: 1.25; margin-top: -2px;&quot;&gt;&lt;span style=&quot;font-size: 14px;&quot;&gt;&lt;span style=&quot;font-size: 14px; color: rgb(51, 51, 51);&quot;&gt;6000&#xa;&lt;/span&gt;&lt;/span&gt;&lt;/div&gt;&lt;div style=&quot;display: flex; justify-content: center; text-align: center; align-items: baseline; font-size: 14px; line-height: 1.25; margin-top: -2px;&quot;&gt;&lt;span style=&quot;font-size: 14px;&quot;&gt;&lt;span style=&quot;font-size: 14px; color: rgb(51, 51, 51);&quot;&gt;Software&lt;/span&gt;&lt;/span&gt;&lt;/div&gt;" style="html=1;overflow=block;blockSpacing=1;whiteSpace=wrap;fontSize=14;spacing=9;strokeColor=#0D5CBA;strokeOpacity=100;fillOpacity=100;rounded=1;absoluteArcSize=1;arcSize=9;fillColor=#edf5ff;strokeWidth=2.3;lucidId=RX2Dc.WBU14V;" vertex="1" parent="1">
          <mxGeometry x="857" y="303" width="82" height="72" as="geometry" />
        </mxCell>
        <mxCell id="UHIFCZ9A_E46CZrV6PBX-39" value="" style="html=1;jettySize=18;whiteSpace=wrap;fontSize=14;strokeColor=#5E5E5E;strokeWidth=1.5;rounded=1;arcSize=12;edgeStyle=orthogonalEdgeStyle;startArrow=none;endArrow=block;endFill=1;exitX=0.5;exitY=1.011;exitPerimeter=0;entryX=0.5;entryY=-0.012;entryPerimeter=0;lucidId=4Y2Dq01y5dqt;" edge="1" parent="1" source="UHIFCZ9A_E46CZrV6PBX-1" target="UHIFCZ9A_E46CZrV6PBX-38">
          <mxGeometry width="100" height="100" relative="1" as="geometry">
            <Array as="points">
              <mxPoint x="511" y="264" />
              <mxPoint x="898" y="264" />
            </Array>
          </mxGeometry>
        </mxCell>
        <mxCell id="UHIFCZ9A_E46CZrV6PBX-40" value="&lt;div style=&quot;display: flex; justify-content: center; text-align: center; align-items: baseline; font-size: 14px; line-height: 1.25; margin-top: -2px;&quot;&gt;&lt;span style=&quot;font-size: 14px;&quot;&gt;&lt;span style=&quot;font-size: 14px; color: rgb(51, 51, 51);&quot;&gt;6100&#xa;&lt;/span&gt;&lt;/span&gt;&lt;/div&gt;&lt;div style=&quot;display: flex; justify-content: center; text-align: center; align-items: baseline; font-size: 14px; line-height: 1.25; margin-top: -2px;&quot;&gt;&lt;span style=&quot;font-size: 14px;&quot;&gt;&lt;span style=&quot;font-size: 14px; color: rgb(51, 51, 51);&quot;&gt;Automaton&lt;/span&gt;&lt;/span&gt;&lt;/div&gt;" style="html=1;overflow=block;blockSpacing=1;whiteSpace=wrap;fontSize=14;spacing=9;strokeColor=#0D5CBA;strokeOpacity=100;fillOpacity=100;rounded=1;absoluteArcSize=1;arcSize=9;fillColor=#edf5ff;strokeWidth=2.3;lucidId=7Y2DjmoZVE3K;" vertex="1" parent="1">
          <mxGeometry x="903" y="395" width="91" height="57" as="geometry" />
        </mxCell>
        <mxCell id="UHIFCZ9A_E46CZrV6PBX-41" value="&lt;div style=&quot;display: flex; justify-content: center; text-align: center; align-items: baseline; font-size: 14px; line-height: 1.25; margin-top: -2px;&quot;&gt;&lt;span style=&quot;font-size: 14px;&quot;&gt;&lt;span style=&quot;font-size: 14px; color: rgb(51, 51, 51);&quot;&gt;6200&#xa;&lt;/span&gt;&lt;/span&gt;&lt;/div&gt;&lt;div style=&quot;display: flex; justify-content: center; text-align: center; align-items: baseline; font-size: 14px; line-height: 1.25; margin-top: -2px;&quot;&gt;&lt;span style=&quot;font-size: 14px;&quot;&gt;&lt;span style=&quot;font-size: 14px; color: rgb(51, 51, 51);&quot;&gt;Data acquisition&lt;/span&gt;&lt;/span&gt;&lt;/div&gt;" style="html=1;overflow=block;blockSpacing=1;whiteSpace=wrap;fontSize=14;spacing=9;strokeColor=#0D5CBA;strokeOpacity=100;fillOpacity=100;rounded=1;absoluteArcSize=1;arcSize=9;fillColor=#edf5ff;strokeWidth=2.3;lucidId=yZ2Dx6f_7SJq;" vertex="1" parent="1">
          <mxGeometry x="903" y="471" width="89" height="58" as="geometry" />
        </mxCell>
        <mxCell id="UHIFCZ9A_E46CZrV6PBX-42" value="&lt;div style=&quot;display: flex; justify-content: center; text-align: center; align-items: baseline; font-size: 14px; line-height: 1.25; margin-top: -2px;&quot;&gt;&lt;span style=&quot;font-size: 14px;&quot;&gt;&lt;span style=&quot;font-size: 14px; color: rgb(51, 51, 51);&quot;&gt;6300&#xa;&lt;/span&gt;&lt;/span&gt;&lt;/div&gt;&lt;div style=&quot;display: flex; justify-content: center; text-align: center; align-items: baseline; font-size: 14px; line-height: 1.25; margin-top: -2px;&quot;&gt;&lt;span style=&quot;font-size: 14px;&quot;&gt;&lt;span style=&quot;font-size: 14px; color: rgb(51, 51, 51);&quot;&gt;Data Processing&lt;/span&gt;&lt;/span&gt;&lt;/div&gt;" style="html=1;overflow=block;blockSpacing=1;whiteSpace=wrap;fontSize=14;spacing=9;strokeColor=#0D5CBA;strokeOpacity=100;fillOpacity=100;rounded=1;absoluteArcSize=1;arcSize=9;fillColor=#edf5ff;strokeWidth=2.3;lucidId=YZ2DKWKq_tG.;" vertex="1" parent="1">
          <mxGeometry x="904" y="547" width="86" height="56" as="geometry" />
        </mxCell>
        <mxCell id="UHIFCZ9A_E46CZrV6PBX-43" value="" style="html=1;jettySize=18;whiteSpace=wrap;fontSize=14;strokeColor=#5E5E5E;strokeWidth=1.5;rounded=1;arcSize=12;edgeStyle=orthogonalEdgeStyle;startArrow=none;endArrow=block;endFill=1;exitX=0.25;exitY=1;entryX=-0.008;entryY=0.5;entryPerimeter=0;lucidId=f02DgGN.fwjA;exitDx=0;exitDy=0;" edge="1" parent="1" source="UHIFCZ9A_E46CZrV6PBX-38" target="UHIFCZ9A_E46CZrV6PBX-40">
          <mxGeometry width="100" height="100" relative="1" as="geometry">
            <Array as="points" />
          </mxGeometry>
        </mxCell>
        <mxCell id="UHIFCZ9A_E46CZrV6PBX-44" value="" style="html=1;jettySize=18;whiteSpace=wrap;fontSize=14;strokeColor=#5E5E5E;strokeWidth=1.5;rounded=1;arcSize=12;edgeStyle=orthogonalEdgeStyle;startArrow=none;endArrow=block;endFill=1;exitX=0.25;exitY=1;entryX=-0.008;entryY=0.5;entryPerimeter=0;lucidId=j02Dbz7nteP1;exitDx=0;exitDy=0;" edge="1" parent="1" source="UHIFCZ9A_E46CZrV6PBX-38" target="UHIFCZ9A_E46CZrV6PBX-41">
          <mxGeometry width="100" height="100" relative="1" as="geometry">
            <Array as="points" />
          </mxGeometry>
        </mxCell>
        <mxCell id="UHIFCZ9A_E46CZrV6PBX-45" value="" style="html=1;jettySize=18;whiteSpace=wrap;fontSize=14;strokeColor=#5E5E5E;strokeWidth=1.5;rounded=1;arcSize=12;edgeStyle=orthogonalEdgeStyle;startArrow=none;endArrow=block;endFill=1;exitX=0.25;exitY=1;entryX=-0.008;entryY=0.5;entryPerimeter=0;lucidId=t02Dbb3X~-~c;exitDx=0;exitDy=0;" edge="1" parent="1" source="UHIFCZ9A_E46CZrV6PBX-38" target="UHIFCZ9A_E46CZrV6PBX-42">
          <mxGeometry width="100" height="100" relative="1" as="geometry">
            <Array as="points" />
          </mxGeometry>
        </mxCell>
        <mxCell id="UHIFCZ9A_E46CZrV6PBX-46" value="" style="endArrow=none;html=1;rounded=0;exitX=0;exitY=0.5;exitDx=0;exitDy=0;" edge="1" parent="1">
          <mxGeometry width="50" height="50" relative="1" as="geometry">
            <mxPoint x="393" y="92.5" as="sourcePoint" />
            <mxPoint x="613" y="92" as="targetPoint" />
          </mxGeometry>
        </mxCell>
        <mxCell id="UHIFCZ9A_E46CZrV6PBX-47" value="&lt;div style=&quot;display: flex; justify-content: center; text-align: center; align-items: baseline; font-size: 14px; line-height: 1.25; margin-top: -2px;&quot;&gt;&lt;span style=&quot;font-size: 14px;&quot;&gt;&lt;span style=&quot;font-size: 14px; color: rgb(51, 51, 51);&quot;&gt;5300&lt;br&gt;&lt;/span&gt;&lt;/span&gt;&lt;/div&gt;&lt;div style=&quot;display: flex; justify-content: center; text-align: center; align-items: baseline; font-size: 14px; line-height: 1.25; margin-top: -2px;&quot;&gt;&lt;span style=&quot;font-size: 14px;&quot;&gt;&lt;span style=&quot;font-size: 14px; color: rgb(51, 51, 51);&quot;&gt;A4988 Stepper Motor Driver &lt;/span&gt;&lt;/span&gt;&lt;/div&gt;" style="html=1;overflow=block;blockSpacing=1;whiteSpace=wrap;fontSize=14;spacing=9;strokeColor=#0D5CBA;strokeOpacity=100;fillOpacity=100;rounded=1;absoluteArcSize=1;arcSize=9;fillColor=#edf5ff;strokeWidth=2.3;lucidId=QH2DF~hNH7CZ;" vertex="1" parent="1">
          <mxGeometry x="738" y="544" width="116" height="61" as="geometry" />
        </mxCell>
        <mxCell id="UHIFCZ9A_E46CZrV6PBX-48" value="&lt;div style=&quot;display: flex; justify-content: center; text-align: center; align-items: baseline; font-size: 14px; line-height: 1.25; margin-top: -2px;&quot;&gt;&lt;span style=&quot;font-size: 14px;&quot;&gt;&lt;span style=&quot;font-size: 14px; color: rgb(51, 51, 51);&quot;&gt;2200&lt;br&gt;&lt;/span&gt;&lt;/span&gt;&lt;/div&gt;&lt;div style=&quot;display: flex; justify-content: center; text-align: center; align-items: baseline; font-size: 14px; line-height: 1.25; margin-top: -2px;&quot;&gt;&lt;span style=&quot;font-size: 14px;&quot;&gt;&lt;span style=&quot;font-size: 14px; color: rgb(51, 51, 51);&quot;&gt;Z axis Stepper Motor&lt;/span&gt;&lt;/span&gt;&lt;/div&gt;" style="html=1;overflow=block;blockSpacing=1;whiteSpace=wrap;fontSize=14;spacing=9;strokeColor=#0D5CBA;strokeOpacity=100;fillOpacity=100;rounded=1;absoluteArcSize=1;arcSize=9;fillColor=#edf5ff;strokeWidth=2.3;lucidId=op2DPShWuuZC;" vertex="1" parent="1">
          <mxGeometry x="294" y="471" width="111" height="67" as="geometry" />
        </mxCell>
        <mxCell id="UHIFCZ9A_E46CZrV6PBX-49" value="" style="html=1;jettySize=18;whiteSpace=wrap;fontSize=14;strokeColor=#5E5E5E;strokeWidth=1.5;rounded=1;arcSize=12;edgeStyle=orthogonalEdgeStyle;startArrow=none;endArrow=block;endFill=1;entryX=0;entryY=0.5;lucidId=op2D_loqMMDQ;entryDx=0;entryDy=0;exitX=0.237;exitY=0.996;exitDx=0;exitDy=0;exitPerimeter=0;" edge="1" parent="1" source="UHIFCZ9A_E46CZrV6PBX-8" target="UHIFCZ9A_E46CZrV6PBX-48">
          <mxGeometry width="100" height="100" relative="1" as="geometry">
            <Array as="points">
              <mxPoint x="278" y="371" />
              <mxPoint x="277" y="371" />
              <mxPoint x="277" y="523" />
            </Array>
            <mxPoint x="269" y="371" as="sourcePoint" />
            <mxPoint x="301" y="450" as="targetPoint" />
          </mxGeometry>
        </mxCell>
        <mxCell id="UHIFCZ9A_E46CZrV6PBX-50" value="&lt;div&gt;1400&lt;/div&gt;&lt;div&gt;Z axis&lt;/div&gt;&lt;div&gt;sensor motion&lt;br&gt;&lt;/div&gt;" style="html=1;overflow=block;blockSpacing=1;whiteSpace=wrap;fontSize=14;spacing=9;strokeColor=#0D5CBA;strokeOpacity=100;fillOpacity=100;rounded=1;absoluteArcSize=1;arcSize=9;fillColor=#edf5ff;strokeWidth=2.3;lucidId=op2DaYbvGgqG;" vertex="1" parent="1">
          <mxGeometry x="148" y="623" width="107" height="64.5" as="geometry" />
        </mxCell>
        <mxCell id="UHIFCZ9A_E46CZrV6PBX-51" value="&lt;div&gt;3200&lt;/div&gt;&lt;div&gt;Limit switch sensor&lt;br&gt;&lt;/div&gt;" style="html=1;overflow=block;blockSpacing=1;whiteSpace=wrap;fontSize=14;spacing=9;strokeColor=#0D5CBA;strokeOpacity=100;fillOpacity=100;rounded=1;absoluteArcSize=1;arcSize=9;fillColor=#edf5ff;strokeWidth=2.3;lucidId=op2D3rJPvKz7;" vertex="1" parent="1">
          <mxGeometry x="440" y="473" width="95" height="64" as="geometry" />
        </mxCell>
        <mxCell id="UHIFCZ9A_E46CZrV6PBX-52" value="&lt;div style=&quot;display: flex; justify-content: center; text-align: center; align-items: baseline; font-size: 14px; line-height: 1.25; margin-top: -2px;&quot;&gt;&lt;span style=&quot;font-size: 14px;&quot;&gt;&lt;span style=&quot;font-size: 14px; color: rgb(51, 51, 51);&quot;&gt;4200&lt;br&gt;&lt;/span&gt;&lt;/span&gt;&lt;/div&gt;&lt;div style=&quot;display: flex; justify-content: center; text-align: center; align-items: baseline; font-size: 14px; line-height: 1.25; margin-top: -2px;&quot;&gt;&lt;span style=&quot;font-size: 14px;&quot;&gt;&lt;span style=&quot;font-size: 14px; color: rgb(51, 51, 51);&quot;&gt;Z axis Stepper&lt;br&gt;&lt;/span&gt;&lt;/span&gt;&lt;/div&gt;" style="html=1;overflow=block;blockSpacing=1;whiteSpace=wrap;fontSize=14;spacing=9;strokeColor=#0D5CBA;strokeOpacity=100;fillOpacity=100;rounded=1;absoluteArcSize=1;arcSize=9;fillColor=#edf5ff;strokeWidth=2.3;lucidId=op2DEWVl0N-0;" vertex="1" parent="1">
          <mxGeometry x="577" y="456" width="112" height="48" as="geometry" />
        </mxCell>
      </root>
    </mxGraphModel>
  </diagram>
  <diagram id="bD45UlhYAQNzhmyOuno2" name="Flowchart">
    <mxGraphModel dx="-253" dy="1475" grid="1" gridSize="10" guides="1" tooltips="1" connect="1" arrows="1" fold="1" page="1" pageScale="1" pageWidth="827" pageHeight="1169" math="0" shadow="0">
      <root>
        <mxCell id="0" />
        <mxCell id="1" parent="0" />
        <mxCell id="cv6TF9x1_W1iYpo0d1Sp-5" value="Program&lt;br&gt;stryke.py" style="rounded=1;whiteSpace=wrap;html=1;strokeColor=#007FFF;fontColor=#007FFF;fontStyle=1;shadow=1;" vertex="1" parent="1">
          <mxGeometry x="1170" y="-1150" width="100" height="30" as="geometry" />
        </mxCell>
        <mxCell id="cv6TF9x1_W1iYpo0d1Sp-6" value="" style="endArrow=none;html=1;rounded=0;exitX=0.091;exitY=1.012;exitDx=0;exitDy=0;exitPerimeter=0;fontColor=#007FFF;strokeColor=#007FFF;" edge="1" parent="1">
          <mxGeometry width="50" height="50" relative="1" as="geometry">
            <mxPoint x="1179.1000000000001" y="-1120" as="sourcePoint" />
            <mxPoint x="1179" y="-1150" as="targetPoint" />
          </mxGeometry>
        </mxCell>
        <mxCell id="cv6TF9x1_W1iYpo0d1Sp-8" value="" style="endArrow=none;html=1;rounded=0;exitX=0.091;exitY=1.012;exitDx=0;exitDy=0;exitPerimeter=0;fontColor=#007FFF;strokeColor=#007FFF;" edge="1" parent="1">
          <mxGeometry width="50" height="50" relative="1" as="geometry">
            <mxPoint x="1260" y="-1120" as="sourcePoint" />
            <mxPoint x="1260" y="-1150" as="targetPoint" />
          </mxGeometry>
        </mxCell>
        <mxCell id="cv6TF9x1_W1iYpo0d1Sp-10" value="" style="endArrow=classic;html=1;rounded=0;entryX=0.5;entryY=0;entryDx=0;entryDy=0;exitX=0.5;exitY=1;exitDx=0;exitDy=0;endFill=1;strokeColor=#007FFF;jumpSize=6;endSize=4;" edge="1" parent="1" source="cv6TF9x1_W1iYpo0d1Sp-5" target="cv6TF9x1_W1iYpo0d1Sp-14">
          <mxGeometry width="50" height="50" relative="1" as="geometry">
            <mxPoint x="1300" y="-1030" as="sourcePoint" />
            <mxPoint x="1220" y="-1110" as="targetPoint" />
          </mxGeometry>
        </mxCell>
        <mxCell id="cv6TF9x1_W1iYpo0d1Sp-11" value="open_serial" style="rounded=1;whiteSpace=wrap;html=1;glass=0;strokeColor=#007FFF;shadow=1;fontColor=#007FFF;" vertex="1" parent="1">
          <mxGeometry x="1534.87" y="-900" width="67" height="20" as="geometry" />
        </mxCell>
        <mxCell id="cv6TF9x1_W1iYpo0d1Sp-12" value="config_USBsensor" style="rounded=1;whiteSpace=wrap;html=1;glass=0;strokeColor=#007FFF;shadow=1;fontColor=#007FFF;" vertex="1" parent="1">
          <mxGeometry x="1511.62" y="-867" width="113.5" height="20" as="geometry" />
        </mxCell>
        <mxCell id="cv6TF9x1_W1iYpo0d1Sp-13" value="get USB sensor config" style="rounded=1;whiteSpace=wrap;html=1;glass=0;strokeColor=#007FFF;shadow=1;fontColor=#007FFF;" vertex="1" parent="1">
          <mxGeometry x="1500" y="-834" width="136.75" height="20" as="geometry" />
        </mxCell>
        <mxCell id="cv6TF9x1_W1iYpo0d1Sp-14" value="create &amp;amp; configure the&lt;br&gt; Stepper1 motor" style="rounded=1;whiteSpace=wrap;html=1;glass=0;strokeColor=#007FFF;shadow=1;fontColor=#007FFF;" vertex="1" parent="1">
          <mxGeometry x="1157.5" y="-1100" width="125" height="30" as="geometry" />
        </mxCell>
        <mxCell id="cv6TF9x1_W1iYpo0d1Sp-15" value="create &amp;amp; configure the&lt;br&gt; Stepper2 motor" style="rounded=1;whiteSpace=wrap;html=1;glass=0;strokeColor=#007FFF;shadow=1;fontColor=#007FFF;" vertex="1" parent="1">
          <mxGeometry x="1157.5" y="-1050" width="125" height="30" as="geometry" />
        </mxCell>
        <mxCell id="cv6TF9x1_W1iYpo0d1Sp-16" value="starts the pigpio&lt;br&gt;daemon process" style="rounded=1;whiteSpace=wrap;html=1;glass=0;strokeColor=#007FFF;shadow=1;fontColor=#007FFF;" vertex="1" parent="1">
          <mxGeometry x="1163.75" y="-1000" width="112.5" height="30" as="geometry" />
        </mxCell>
        <mxCell id="cv6TF9x1_W1iYpo0d1Sp-19" value="" style="endArrow=classic;html=1;rounded=0;entryX=0.5;entryY=0;entryDx=0;entryDy=0;exitX=0.5;exitY=1;exitDx=0;exitDy=0;endFill=1;strokeColor=#007FFF;jumpSize=6;endSize=4;" edge="1" parent="1" source="cv6TF9x1_W1iYpo0d1Sp-14" target="cv6TF9x1_W1iYpo0d1Sp-15">
          <mxGeometry width="50" height="50" relative="1" as="geometry">
            <mxPoint x="1219.89" y="-1050" as="sourcePoint" />
            <mxPoint x="1219.89" y="-1040" as="targetPoint" />
          </mxGeometry>
        </mxCell>
        <mxCell id="cv6TF9x1_W1iYpo0d1Sp-20" value="" style="endArrow=classic;html=1;rounded=0;entryX=0.5;entryY=0;entryDx=0;entryDy=0;exitX=0.5;exitY=1;exitDx=0;exitDy=0;endFill=1;strokeColor=#007FFF;jumpSize=6;endSize=4;" edge="1" parent="1" source="cv6TF9x1_W1iYpo0d1Sp-15" target="cv6TF9x1_W1iYpo0d1Sp-16">
          <mxGeometry width="50" height="50" relative="1" as="geometry">
            <mxPoint x="1219.89" y="-1010" as="sourcePoint" />
            <mxPoint x="1219.89" y="-1000" as="targetPoint" />
          </mxGeometry>
        </mxCell>
        <mxCell id="cv6TF9x1_W1iYpo0d1Sp-34" style="edgeStyle=orthogonalEdgeStyle;rounded=0;orthogonalLoop=1;jettySize=auto;html=1;exitX=0.5;exitY=1;exitDx=0;exitDy=0;entryX=0.5;entryY=0;entryDx=0;entryDy=0;strokeColor=#007FFF;" edge="1" parent="1" source="cv6TF9x1_W1iYpo0d1Sp-21" target="cv6TF9x1_W1iYpo0d1Sp-32">
          <mxGeometry relative="1" as="geometry">
            <Array as="points">
              <mxPoint x="1325" y="-820" />
              <mxPoint x="1220" y="-820" />
            </Array>
          </mxGeometry>
        </mxCell>
        <mxCell id="cv6TF9x1_W1iYpo0d1Sp-21" value="&lt;div&gt;defines params&lt;/div&gt;&lt;div&gt;from ROTOR_LAUNCH.txt&lt;br&gt;&lt;/div&gt;" style="rounded=1;whiteSpace=wrap;html=1;glass=0;strokeColor=#007FFF;shadow=1;fontColor=#007FFF;" vertex="1" parent="1">
          <mxGeometry x="1260" y="-880" width="130" height="50" as="geometry" />
        </mxCell>
        <mxCell id="cv6TF9x1_W1iYpo0d1Sp-24" style="edgeStyle=orthogonalEdgeStyle;rounded=0;orthogonalLoop=1;jettySize=auto;html=1;exitX=1;exitY=0.5;exitDx=0;exitDy=0;fontColor=#007FFF;strokeColor=#007FFF;entryX=0.5;entryY=0;entryDx=0;entryDy=0;" edge="1" parent="1" source="cv6TF9x1_W1iYpo0d1Sp-23" target="cv6TF9x1_W1iYpo0d1Sp-21">
          <mxGeometry relative="1" as="geometry">
            <mxPoint x="1280" y="-935" as="sourcePoint" />
            <mxPoint x="1320" y="-880" as="targetPoint" />
            <Array as="points">
              <mxPoint x="1325" y="-925" />
            </Array>
          </mxGeometry>
        </mxCell>
        <mxCell id="cv6TF9x1_W1iYpo0d1Sp-25" value="Y" style="edgeLabel;html=1;align=center;verticalAlign=middle;resizable=0;points=[];fontColor=#007FFF;" vertex="1" connectable="0" parent="cv6TF9x1_W1iYpo0d1Sp-24">
          <mxGeometry x="-0.4912" relative="1" as="geometry">
            <mxPoint x="-4" y="-5" as="offset" />
          </mxGeometry>
        </mxCell>
        <mxCell id="cv6TF9x1_W1iYpo0d1Sp-27" style="edgeStyle=orthogonalEdgeStyle;rounded=0;orthogonalLoop=1;jettySize=auto;html=1;exitX=0;exitY=0.5;exitDx=0;exitDy=0;entryX=0.5;entryY=0;entryDx=0;entryDy=0;fontColor=#007FFF;strokeColor=#007FFF;" edge="1" parent="1" source="cv6TF9x1_W1iYpo0d1Sp-23" target="cv6TF9x1_W1iYpo0d1Sp-26">
          <mxGeometry relative="1" as="geometry">
            <mxPoint x="1160" y="-935" as="sourcePoint" />
          </mxGeometry>
        </mxCell>
        <mxCell id="cv6TF9x1_W1iYpo0d1Sp-28" value="N" style="edgeLabel;html=1;align=center;verticalAlign=middle;resizable=0;points=[];fontColor=#007FFF;" vertex="1" connectable="0" parent="cv6TF9x1_W1iYpo0d1Sp-27">
          <mxGeometry x="-0.439" relative="1" as="geometry">
            <mxPoint x="7" y="-5" as="offset" />
          </mxGeometry>
        </mxCell>
        <mxCell id="cv6TF9x1_W1iYpo0d1Sp-23" value="param file&lt;br&gt;&lt;div&gt;ROTOR_LAUNCH.txt&lt;br&gt;exists ?&lt;/div&gt;" style="shape=hexagon;perimeter=hexagonPerimeter2;whiteSpace=wrap;html=1;fixedSize=1;strokeColor=#007FFF;fontColor=#007FFF;" vertex="1" parent="1">
          <mxGeometry x="1150" y="-950" width="140" height="50" as="geometry" />
        </mxCell>
        <mxCell id="cv6TF9x1_W1iYpo0d1Sp-33" style="edgeStyle=orthogonalEdgeStyle;rounded=0;orthogonalLoop=1;jettySize=auto;html=1;exitX=0.5;exitY=1;exitDx=0;exitDy=0;entryX=0.5;entryY=0;entryDx=0;entryDy=0;strokeColor=#007FFF;" edge="1" parent="1" source="cv6TF9x1_W1iYpo0d1Sp-26" target="cv6TF9x1_W1iYpo0d1Sp-32">
          <mxGeometry relative="1" as="geometry">
            <Array as="points">
              <mxPoint x="1117" y="-820" />
              <mxPoint x="1220" y="-820" />
            </Array>
          </mxGeometry>
        </mxCell>
        <mxCell id="cv6TF9x1_W1iYpo0d1Sp-26" value="defines params &lt;br&gt;in file stryke.py" style="rounded=1;whiteSpace=wrap;html=1;glass=0;strokeColor=#007FFF;shadow=1;fontColor=#007FFF;" vertex="1" parent="1">
          <mxGeometry x="1050" y="-880" width="133.75" height="40" as="geometry" />
        </mxCell>
        <mxCell id="cv6TF9x1_W1iYpo0d1Sp-31" value="" style="endArrow=classic;html=1;rounded=0;entryX=0.5;entryY=0;entryDx=0;entryDy=0;exitX=0.5;exitY=1;exitDx=0;exitDy=0;endFill=1;strokeColor=#007FFF;jumpSize=6;endSize=4;" edge="1" parent="1" source="cv6TF9x1_W1iYpo0d1Sp-16" target="cv6TF9x1_W1iYpo0d1Sp-23">
          <mxGeometry width="50" height="50" relative="1" as="geometry">
            <mxPoint x="1230" y="-1010" as="sourcePoint" />
            <mxPoint x="1230" y="-990" as="targetPoint" />
          </mxGeometry>
        </mxCell>
        <mxCell id="cv6TF9x1_W1iYpo0d1Sp-36" style="edgeStyle=orthogonalEdgeStyle;rounded=0;orthogonalLoop=1;jettySize=auto;html=1;exitX=0.5;exitY=1;exitDx=0;exitDy=0;entryX=0.5;entryY=0;entryDx=0;entryDy=0;strokeColor=#007FFF;" edge="1" parent="1" source="cv6TF9x1_W1iYpo0d1Sp-32" target="cv6TF9x1_W1iYpo0d1Sp-35">
          <mxGeometry relative="1" as="geometry" />
        </mxCell>
        <mxCell id="cv6TF9x1_W1iYpo0d1Sp-32" value="params[&#39;mode&#39;] = RunBench" style="shape=hexagon;perimeter=hexagonPerimeter2;whiteSpace=wrap;html=1;fixedSize=1;strokeColor=#007FFF;fontColor=#007FFF;" vertex="1" parent="1">
          <mxGeometry x="1135" y="-805" width="170" height="40" as="geometry" />
        </mxCell>
        <mxCell id="cv6TF9x1_W1iYpo0d1Sp-35" value="params[&#39;mode&#39;] = RunFree" style="shape=hexagon;perimeter=hexagonPerimeter2;whiteSpace=wrap;html=1;fixedSize=1;strokeColor=#007FFF;fontColor=#007FFF;" vertex="1" parent="1">
          <mxGeometry x="1135" y="-745" width="170" height="40" as="geometry" />
        </mxCell>
      </root>
    </mxGraphModel>
  </diagram>
</mxfile>
